{"glyphs":{"0":{"ha":694,"x_min":100,"x_max":624,"o":"m 435 935 q 248 833 324 935 q 136 578 172 731 q 100 274 100 425 q 148 59 100 132 q 288 -14 196 -14 q 474 88 399 -14 q 587 342 550 190 q 624 646 624 494 q 576 862 624 789 q 435 935 528 935 m 435 906 q 592 647 592 906 q 558 355 592 501 q 455 112 524 208 q 289 15 386 15 q 132 272 132 15 q 166 565 132 418 q 268 808 200 711 q 435 906 336 906 z "},"1":{"ha":497,"x_min":117,"x_max":403,"o":"m 403 918 l 274 0 l 243 0 l 367 881 l 131 729 l 117 753 l 378 918 l 403 918 z "},"2":{"ha":582,"x_min":0,"x_max":535,"o":"m 342 935 q 482 881 431 935 q 533 736 533 826 q 499 577 535 653 q 363 381 463 501 q 43 29 263 261 l 456 31 l 444 0 l 0 0 l 6 31 q 333 391 231 268 q 469 585 436 514 q 503 735 503 657 q 459 861 501 815 q 342 907 417 907 q 230 879 281 907 q 129 797 179 851 l 108 815 q 221 906 165 876 q 342 935 276 935 z "},"3":{"ha":603,"x_min":-7,"x_max":543,"o":"m 360 935 q 494 884 446 935 q 543 749 543 833 q 487 576 543 650 q 331 490 431 501 q 448 437 404 485 q 492 297 492 389 q 461 152 492 224 q 365 33 431 81 q 203 -14 300 -14 q 82 15 132 -14 q -7 101 32 43 l 17 118 q 97 39 53 63 q 203 15 140 15 q 352 60 294 15 q 435 169 410 104 q 461 299 461 233 q 415 431 461 388 q 285 475 368 475 l 236 475 l 244 503 l 283 503 q 408 539 357 503 q 485 631 460 575 q 511 749 511 688 q 471 866 511 824 q 360 908 431 908 q 253 885 304 908 q 150 814 203 863 l 132 833 q 242 910 188 885 q 360 935 297 935 z "},"4":{"ha":631,"x_min":49,"x_max":571,"o":"m 571 288 l 567 260 l 450 260 l 414 0 l 383 0 l 421 260 l 49 260 l 54 285 l 400 935 l 425 924 l 86 288 l 425 288 l 469 581 l 496 581 l 454 288 l 571 288 z "},"5":{"ha":593,"x_min":13,"x_max":575,"o":"m 567 890 l 218 890 l 165 522 q 241 562 203 547 q 326 576 279 576 q 466 517 415 576 q 517 356 517 457 q 485 186 517 271 q 387 44 454 101 q 217 -14 319 -14 q 13 92 85 -14 l 36 110 q 112 39 68 63 q 218 15 156 15 q 370 68 310 15 q 458 199 431 121 q 485 354 485 278 q 442 497 485 446 q 324 549 399 549 q 239 535 276 549 q 157 492 201 522 l 132 492 l 192 918 l 575 918 l 567 890 z "},"6":{"ha":654,"x_min":96,"x_max":607,"o":"m 475 907 q 328 844 396 907 q 212 674 260 782 q 142 431 164 565 q 256 549 192 506 q 393 593 319 593 q 524 539 475 593 q 574 382 574 485 q 544 203 574 294 q 451 49 514 111 q 294 -14 389 -14 q 144 60 192 -14 q 96 261 96 135 q 142 574 96 417 q 276 833 189 731 q 475 935 363 935 q 607 882 551 935 l 589 861 q 536 895 563 883 q 475 907 510 907 m 392 565 q 133 382 257 565 q 128 260 128 321 q 294 15 128 15 q 436 75 381 15 q 517 220 492 135 q 543 382 543 306 q 502 518 543 471 q 392 565 461 565 z "},"7":{"ha":542,"x_min":68,"x_max":568,"o":"m 568 918 l 564 893 l 96 -8 l 68 1 l 529 889 l 124 890 l 126 918 l 568 918 z "},"8":{"ha":669,"x_min":63,"x_max":613,"o":"m 414 479 q 534 392 497 439 q 571 272 571 344 q 534 124 571 189 q 431 22 497 58 q 283 -14 365 -14 q 121 43 179 -14 q 63 194 63 100 q 301 503 63 407 q 206 579 236 536 q 176 688 176 622 q 211 816 176 760 q 303 903 246 872 q 424 935 361 935 q 560 885 507 935 q 613 749 613 836 q 567 599 613 661 q 414 479 522 538 m 207 688 q 236 588 207 628 q 335 515 265 547 l 390 492 q 538 606 494 546 q 582 749 582 667 q 539 866 582 825 q 424 907 496 907 q 317 879 367 907 q 237 801 267 851 q 207 688 207 751 m 283 15 q 413 47 354 15 q 506 136 472 78 q 540 274 540 194 q 503 385 540 343 q 378 468 465 428 l 331 489 q 142 360 192 435 q 93 193 93 285 q 144 63 93 110 q 283 15 194 15 z "},"9":{"ha":644,"x_min":88,"x_max":589,"o":"m 393 935 q 541 870 493 935 q 589 685 589 806 q 94 -21 589 131 l 88 3 q 388 181 274 65 q 543 503 503 297 q 296 354 435 354 q 163 415 213 354 q 113 581 113 475 q 144 744 113 663 q 239 881 175 826 q 393 935 303 935 m 299 383 q 549 547 432 383 q 557 685 557 608 q 518 850 557 793 q 393 907 479 907 q 253 856 310 907 q 169 728 196 804 q 143 579 143 653 q 184 435 143 486 q 299 383 225 383 z "},"\r":{"ha":368,"x_min":0,"x_max":0,"o":""}," ":{"ha":368,"x_min":0,"x_max":0,"o":""},"A":{"ha":707,"x_min":-12,"x_max":618,"o":"m 585 0 l 538 282 l 147 282 l 21 0 l -12 0 l 415 946 l 454 946 l 618 0 l 585 0 m 160 311 l 533 311 l 432 919 l 160 311 z "},"Á":{"ha":707,"x_min":-12,"x_max":618,"o":"m 585 0 l 538 282 l 147 282 l 21 0 l -12 0 l 415 946 l 454 946 l 618 0 l 585 0 m 160 311 l 533 311 l 432 919 l 160 311 m 563 1194 l 576 1161 l 338 1061 l 328 1082 l 563 1194 z "},"Ă":{"ha":707,"x_min":-12,"x_max":618,"o":"m 585 0 l 538 282 l 147 282 l 21 0 l -12 0 l 415 946 l 454 946 l 618 0 l 585 0 m 160 311 l 533 311 l 432 919 l 160 311 m 449 1071 q 360 1102 394 1071 q 324 1178 326 1133 l 346 1181 q 379 1122 353 1144 q 449 1100 406 1100 q 525 1122 493 1100 q 575 1182 557 1144 l 599 1175 q 542 1101 582 1131 q 449 1071 503 1071 z "},"Ắ":{"ha":707,"x_min":-12,"x_max":618,"o":"m 606 1307 l 453 1151 l 438 1167 l 582 1331 l 606 1307 m 449 1024 q 360 1055 394 1024 q 324 1131 326 1086 l 346 1133 q 379 1075 353 1097 q 449 1053 406 1053 q 525 1075 493 1053 q 575 1135 557 1097 l 599 1128 q 542 1053 582 1083 q 449 1024 503 1024 m 585 0 l 538 282 l 147 282 l 21 0 l -12 0 l 415 946 l 454 946 l 618 0 l 585 0 m 160 311 l 533 311 l 432 919 l 160 311 z "},"Ặ":{"ha":707,"x_min":-12,"x_max":618,"o":"m 585 0 l 538 282 l 147 282 l 21 0 l -12 0 l 415 946 l 454 946 l 618 0 l 585 0 m 160 311 l 533 311 l 432 919 l 160 311 m 449 1071 q 360 1102 394 1071 q 324 1178 326 1133 l 346 1181 q 379 1122 353 1144 q 449 1100 406 1100 q 525 1122 493 1100 q 575 1182 557 1144 l 599 1175 q 542 1101 582 1131 q 449 1071 503 1071 m 285 -137 q 301 -144 294 -137 q 308 -161 308 -151 q 301 -182 308 -174 q 279 -190 293 -190 q 261 -184 268 -190 q 254 -167 254 -178 q 263 -147 254 -156 q 285 -137 271 -137 z "},"Ằ":{"ha":707,"x_min":-12,"x_max":618,"o":"m 474 1164 l 456 1151 l 346 1311 l 375 1331 l 474 1164 m 449 1024 q 360 1055 394 1024 q 324 1131 326 1086 l 346 1133 q 379 1075 353 1097 q 449 1053 406 1053 q 525 1075 493 1053 q 575 1135 557 1097 l 599 1128 q 542 1053 582 1083 q 449 1024 503 1024 m 585 0 l 538 282 l 147 282 l 21 0 l -12 0 l 415 946 l 454 946 l 618 0 l 585 0 m 160 311 l 533 311 l 432 919 l 160 311 z "},"Ẳ":{"ha":707,"x_min":-12,"x_max":618,"o":"m 585 0 l 538 282 l 147 282 l 21 0 l -12 0 l 415 946 l 454 946 l 618 0 l 585 0 m 160 311 l 533 311 l 432 919 l 160 311 m 449 1024 q 360 1055 394 1024 q 324 1131 326 1086 l 346 1133 q 379 1075 353 1097 q 449 1053 406 1053 q 525 1075 493 1053 q 575 1135 557 1097 l 599 1128 q 542 1053 582 1083 q 449 1024 503 1024 m 443 1196 q 540 1275 540 1201 q 526 1317 540 1303 q 483 1332 511 1332 q 447 1327 463 1332 q 410 1313 431 1322 l 400 1336 q 485 1360 443 1360 q 549 1337 525 1360 q 572 1275 572 1314 q 545 1207 572 1232 q 471 1175 518 1182 l 464 1117 l 435 1117 l 443 1196 z "},"Ẵ":{"ha":707,"x_min":-12,"x_max":642,"o":"m 400 1249 q 361 1238 378 1249 q 319 1199 344 1226 l 301 1213 q 400 1276 353 1276 q 434 1269 418 1276 q 472 1246 450 1261 q 509 1224 493 1232 q 542 1217 525 1217 q 581 1230 563 1217 q 622 1274 599 1243 l 642 1261 q 542 1189 594 1189 q 503 1197 521 1189 q 463 1221 485 1206 q 428 1242 440 1236 q 400 1249 415 1249 m 447 1053 q 524 1075 492 1053 q 574 1135 556 1097 l 597 1128 q 541 1053 581 1083 q 447 1024 501 1024 q 359 1055 393 1024 q 322 1131 325 1086 l 344 1133 q 378 1075 351 1097 q 447 1053 404 1053 m 415 946 l 454 946 l 618 0 l 585 0 l 538 282 l 147 282 l 21 0 l -12 0 l 415 946 m 160 311 l 533 311 l 432 919 l 160 311 z "},"Ǎ":{"ha":707,"x_min":-12,"x_max":626,"o":"m 585 0 l 538 282 l 147 282 l 21 0 l -12 0 l 415 946 l 454 946 l 618 0 l 585 0 m 160 311 l 533 311 l 432 919 l 160 311 m 613 1197 l 626 1181 l 458 1056 l 442 1056 l 310 1181 l 326 1197 l 453 1089 l 613 1197 z "},"Â":{"ha":707,"x_min":-12,"x_max":618,"o":"m 585 0 l 538 282 l 147 282 l 21 0 l -12 0 l 415 946 l 454 946 l 618 0 l 585 0 m 160 311 l 533 311 l 432 919 l 160 311 m 301 1064 l 288 1082 l 456 1207 l 472 1207 l 604 1082 l 588 1064 l 463 1174 l 301 1064 z "},"Ấ":{"ha":707,"x_min":-12,"x_max":715,"o":"m 715 1300 l 563 1144 l 547 1160 l 692 1324 l 715 1300 m 460 1133 l 299 1024 l 285 1042 l 453 1167 l 469 1167 l 601 1042 l 585 1024 l 460 1133 m 415 946 l 454 946 l 618 0 l 585 0 l 538 282 l 147 282 l 21 0 l -12 0 l 415 946 m 160 311 l 533 311 l 432 919 l 160 311 z "},"Ậ":{"ha":707,"x_min":-12,"x_max":618,"o":"m 585 0 l 538 282 l 147 282 l 21 0 l -12 0 l 415 946 l 454 946 l 618 0 l 585 0 m 160 311 l 533 311 l 432 919 l 160 311 m 301 1064 l 288 1082 l 456 1207 l 472 1207 l 604 1082 l 588 1064 l 463 1174 l 301 1064 m 285 -137 q 301 -144 294 -137 q 308 -161 308 -151 q 301 -182 308 -174 q 279 -190 293 -190 q 261 -184 268 -190 q 254 -167 254 -178 q 263 -147 254 -156 q 285 -137 271 -137 z "},"Ầ":{"ha":707,"x_min":-12,"x_max":618,"o":"m 358 1157 l 340 1144 l 231 1304 l 260 1324 l 358 1157 m 296 1024 l 282 1042 l 450 1167 l 467 1167 l 599 1042 l 582 1024 l 457 1133 l 296 1024 m 585 0 l 538 282 l 147 282 l 21 0 l -12 0 l 415 946 l 454 946 l 618 0 l 585 0 m 160 311 l 533 311 l 432 919 l 160 311 z "},"Ẩ":{"ha":707,"x_min":-12,"x_max":706,"o":"m 585 0 l 538 282 l 147 282 l 21 0 l -12 0 l 415 946 l 454 946 l 618 0 l 585 0 m 160 311 l 533 311 l 432 919 l 160 311 m 297 1024 l 283 1042 l 451 1167 l 468 1167 l 600 1042 l 583 1024 l 458 1133 l 297 1024 m 576 1196 q 674 1275 674 1201 q 659 1317 674 1303 q 617 1332 644 1332 q 580 1327 596 1332 q 543 1313 564 1322 l 533 1336 q 618 1360 576 1360 q 682 1337 658 1360 q 706 1275 706 1314 q 678 1207 706 1232 q 604 1175 651 1182 l 597 1117 l 568 1117 l 576 1196 z "},"Ẫ":{"ha":707,"x_min":-12,"x_max":639,"o":"m 397 1281 q 358 1269 375 1281 q 317 1231 342 1258 l 299 1244 q 397 1308 350 1308 q 431 1301 415 1308 q 469 1278 447 1293 q 506 1256 490 1264 q 539 1249 522 1249 q 578 1262 560 1249 q 619 1306 596 1275 l 639 1293 q 539 1221 592 1221 q 500 1229 518 1221 q 460 1253 482 1238 q 425 1274 438 1268 q 397 1281 413 1281 m 456 1133 l 294 1024 l 281 1042 l 449 1167 l 465 1167 l 597 1042 l 581 1024 l 456 1133 m 415 946 l 454 946 l 618 0 l 585 0 l 538 282 l 147 282 l 21 0 l -12 0 l 415 946 m 160 311 l 533 311 l 432 919 l 160 311 z "},"Ȁ":{"ha":707,"x_min":-12,"x_max":618,"o":"m 585 0 l 538 282 l 147 282 l 21 0 l -12 0 l 415 946 l 454 946 l 618 0 l 585 0 m 160 311 l 533 311 l 432 919 l 160 311 m 332 1274 l 396 1092 l 371 1081 l 297 1260 l 332 1274 m 471 1272 l 528 1096 l 503 1086 l 436 1257 l 471 1272 z "},"Ä":{"ha":707,"x_min":-12,"x_max":618,"o":"m 585 0 l 538 282 l 147 282 l 21 0 l -12 0 l 415 946 l 454 946 l 618 0 l 585 0 m 160 311 l 533 311 l 432 919 l 160 311 m 354 1110 q 337 1116 343 1110 q 331 1133 331 1122 q 338 1154 331 1146 q 360 1163 346 1163 q 376 1156 369 1163 q 383 1139 383 1150 q 375 1118 383 1126 q 354 1110 367 1110 m 564 1110 q 546 1116 553 1110 q 539 1133 539 1122 q 547 1154 539 1146 q 568 1163 554 1163 q 585 1156 579 1163 q 592 1139 592 1150 q 584 1118 592 1126 q 564 1110 576 1110 z "},"Ǟ":{"ha":707,"x_min":-12,"x_max":618,"o":"m 585 0 l 538 282 l 147 282 l 21 0 l -12 0 l 415 946 l 454 946 l 618 0 l 585 0 m 160 311 l 533 311 l 432 919 l 160 311 m 339 1031 q 322 1037 328 1031 q 315 1054 315 1043 q 323 1075 315 1067 q 344 1083 331 1083 q 361 1077 354 1083 q 368 1060 368 1071 q 360 1039 368 1047 q 339 1031 351 1031 m 549 1031 q 531 1037 538 1031 q 524 1054 524 1043 q 531 1075 524 1067 q 553 1083 539 1083 q 570 1077 564 1083 q 576 1060 576 1071 q 569 1039 576 1047 q 549 1031 561 1031 m 589 1181 l 328 1181 l 332 1210 l 593 1210 l 589 1181 z "},"Ȧ":{"ha":707,"x_min":-12,"x_max":618,"o":"m 585 0 l 538 282 l 147 282 l 21 0 l -12 0 l 415 946 l 454 946 l 618 0 l 585 0 m 160 311 l 533 311 l 432 919 l 160 311 m 458 1126 q 442 1133 449 1126 q 435 1150 435 1140 q 442 1171 435 1163 q 464 1179 450 1179 q 482 1173 475 1179 q 489 1156 489 1167 q 481 1135 489 1144 q 458 1126 472 1126 z "},"Ạ":{"ha":707,"x_min":-12,"x_max":618,"o":"m 585 0 l 538 282 l 147 282 l 21 0 l -12 0 l 415 946 l 454 946 l 618 0 l 585 0 m 160 311 l 533 311 l 432 919 l 160 311 m 285 -137 q 301 -144 294 -137 q 308 -161 308 -151 q 301 -182 308 -174 q 279 -190 293 -190 q 261 -184 268 -190 q 254 -167 254 -178 q 263 -147 254 -156 q 285 -137 271 -137 z "},"Ǡ":{"ha":707,"x_min":-12,"x_max":618,"o":"m 585 0 l 538 282 l 147 282 l 21 0 l -12 0 l 415 946 l 454 946 l 618 0 l 585 0 m 160 311 l 533 311 l 432 919 l 160 311 m 443 1038 q 426 1044 433 1038 q 419 1061 419 1051 q 427 1082 419 1074 q 449 1090 435 1090 q 467 1084 460 1090 q 474 1067 474 1078 q 465 1047 474 1056 q 443 1038 457 1038 m 590 1179 l 329 1179 l 333 1208 l 594 1208 l 590 1179 z "},"À":{"ha":707,"x_min":-12,"x_max":618,"o":"m 585 0 l 538 282 l 147 282 l 21 0 l -12 0 l 415 946 l 454 946 l 618 0 l 585 0 m 160 311 l 533 311 l 432 919 l 160 311 m 371 1193 l 572 1081 l 560 1061 l 351 1161 l 371 1193 z "},"Ả":{"ha":707,"x_min":-12,"x_max":618,"o":"m 585 0 l 538 282 l 147 282 l 21 0 l -12 0 l 415 946 l 454 946 l 618 0 l 585 0 m 160 311 l 533 311 l 432 919 l 160 311 m 449 1165 q 546 1244 546 1171 q 531 1287 546 1272 q 489 1301 517 1301 q 452 1297 468 1301 q 415 1282 436 1292 l 406 1306 q 490 1329 449 1329 q 554 1306 531 1329 q 578 1244 578 1283 q 551 1176 578 1201 q 476 1144 524 1151 l 469 1086 l 440 1086 l 449 1165 z "},"Ȃ":{"ha":707,"x_min":-12,"x_max":618,"o":"m 585 0 l 538 282 l 147 282 l 21 0 l -12 0 l 415 946 l 454 946 l 618 0 l 585 0 m 160 311 l 533 311 l 432 919 l 160 311 m 317 1114 q 373 1199 333 1167 q 467 1232 413 1232 q 555 1199 522 1232 q 590 1111 588 1165 l 567 1108 q 467 1203 556 1203 q 388 1178 421 1203 q 338 1107 356 1153 l 317 1114 z "},"Ɑ":{"ha":828,"x_min":103,"x_max":753,"o":"m 640 143 q 635 89 635 101 q 645 40 635 60 q 679 10 656 21 l 669 -14 q 606 94 606 11 q 608 131 606 106 q 363 -14 514 -14 q 174 78 244 -14 q 103 347 103 171 q 152 641 103 500 q 293 871 201 782 q 506 960 385 960 q 706 831 639 960 l 725 946 l 753 946 l 640 143 m 363 17 q 500 56 438 17 q 614 179 563 94 l 699 790 q 617 896 664 861 q 504 931 571 931 q 308 844 392 931 q 181 623 225 758 q 136 346 136 488 q 197 100 136 183 q 363 17 258 17 z "},"Ā":{"ha":707,"x_min":-12,"x_max":618,"o":"m 585 0 l 538 282 l 147 282 l 21 0 l -12 0 l 415 946 l 454 946 l 618 0 l 585 0 m 160 311 l 533 311 l 432 919 l 160 311 m 589 1126 l 328 1126 l 332 1156 l 593 1156 l 589 1126 z "},"Ą":{"ha":707,"x_min":-12,"x_max":618,"o":"m 436 -179 q 514 -251 436 -251 q 583 -242 543 -251 l 576 -272 q 511 -282 539 -282 q 433 -256 461 -282 q 404 -185 404 -231 q 448 -78 404 -122 q 583 7 492 -35 l 538 282 l 147 282 l 21 0 l -12 0 l 415 946 l 454 946 l 618 0 q 481 -81 525 -40 q 436 -179 436 -122 m 160 311 l 533 311 l 432 919 l 160 311 z "},"Å":{"ha":707,"x_min":-12,"x_max":618,"o":"m 585 0 l 538 282 l 147 282 l 21 0 l -12 0 l 415 946 l 454 946 l 618 0 l 585 0 m 160 311 l 533 311 l 432 919 l 160 311 m 482 1288 q 547 1263 524 1288 q 571 1196 571 1238 q 538 1104 571 1139 q 456 1069 506 1069 q 391 1095 415 1069 q 367 1161 367 1121 q 399 1253 367 1218 q 482 1288 432 1288 m 481 1263 q 419 1235 442 1263 q 394 1164 396 1207 q 410 1113 394 1132 q 457 1094 426 1094 q 519 1122 496 1094 q 543 1193 542 1150 q 527 1244 543 1225 q 481 1263 511 1263 z "},"Ǻ":{"ha":707,"x_min":-12,"x_max":618,"o":"m 585 0 l 538 282 l 147 282 l 21 0 l -12 0 l 415 946 l 454 946 l 618 0 l 585 0 m 160 311 l 533 311 l 432 919 l 160 311 m 465 1232 q 531 1207 507 1232 q 554 1140 554 1182 q 522 1049 554 1083 q 439 1014 489 1014 q 374 1040 399 1014 q 350 1106 350 1065 q 383 1197 350 1163 q 465 1232 415 1232 m 464 1207 q 402 1179 425 1207 q 378 1108 379 1151 q 394 1058 378 1076 q 440 1039 410 1039 q 502 1067 479 1039 q 526 1138 525 1094 q 510 1188 526 1169 q 464 1207 494 1207 m 586 1382 l 600 1349 l 361 1249 l 351 1269 l 586 1382 z "},"Ⱥ":{"ha":707,"x_min":-12,"x_max":618,"o":"m 585 0 l 538 282 l 315 282 l 175 -92 l 151 -86 l 290 282 l 147 282 l 21 0 l -12 0 l 415 946 l 454 946 l 482 788 l 571 1024 l 593 1017 l 489 742 l 618 0 l 585 0 m 160 311 l 301 311 l 463 736 l 432 919 l 160 311 m 326 311 l 533 311 l 469 690 l 326 311 z "},"Ã":{"ha":707,"x_min":-12,"x_max":635,"o":"m 585 0 l 538 282 l 147 282 l 21 0 l -12 0 l 415 946 l 454 946 l 618 0 l 585 0 m 160 311 l 533 311 l 432 919 l 160 311 m 535 1117 q 496 1125 514 1117 q 456 1149 478 1133 q 421 1170 433 1164 q 393 1176 408 1176 q 354 1165 371 1176 q 313 1126 338 1154 l 294 1140 q 393 1204 346 1204 q 427 1197 411 1204 q 465 1174 443 1189 q 502 1152 486 1160 q 535 1144 518 1144 q 574 1158 556 1144 q 615 1201 592 1171 l 635 1189 q 535 1117 588 1117 z "},"Æ":{"ha":950,"x_min":-32,"x_max":913,"o":"m 904 917 l 478 917 l 517 514 l 843 514 l 839 485 l 519 485 l 563 29 l 851 29 l 846 0 l 535 0 l 510 272 l 133 272 l 1 0 l -32 0 l 432 946 l 913 946 l 904 917 m 507 301 l 449 921 l 147 301 l 507 301 z "},"Ǽ":{"ha":950,"x_min":-32,"x_max":913,"o":"m 904 917 l 478 917 l 517 514 l 843 514 l 839 485 l 519 485 l 563 29 l 851 29 l 846 0 l 535 0 l 510 272 l 133 272 l 1 0 l -32 0 l 432 946 l 913 946 l 904 917 m 507 301 l 449 921 l 147 301 l 507 301 m 774 1194 l 788 1161 l 549 1061 l 539 1082 l 774 1194 z "},"Ǣ":{"ha":950,"x_min":-32,"x_max":913,"o":"m 904 917 l 478 917 l 517 514 l 843 514 l 839 485 l 519 485 l 563 29 l 851 29 l 846 0 l 535 0 l 510 272 l 133 272 l 1 0 l -32 0 l 432 946 l 913 946 l 904 917 m 507 301 l 449 921 l 147 301 l 507 301 m 800 1126 l 539 1126 l 543 1156 l 804 1156 l 800 1126 z "},"B":{"ha":746,"x_min":101,"x_max":681,"o":"m 474 501 q 604 444 556 493 q 653 304 653 394 q 621 159 653 228 q 515 45 589 90 q 324 0 442 0 l 101 0 l 235 946 l 432 946 q 617 895 553 946 q 681 749 681 844 q 624 583 681 650 q 474 501 567 515 m 206 514 l 414 514 q 538 545 485 514 q 619 630 590 576 q 649 747 649 683 q 433 917 649 917 l 263 917 l 206 514 m 328 29 q 552 110 483 29 q 621 304 621 192 q 567 440 621 394 q 417 486 514 486 l 201 486 l 138 29 l 328 29 z "},"Ḃ":{"ha":746,"x_min":101,"x_max":681,"o":"m 474 501 q 604 444 556 493 q 653 304 653 394 q 621 159 653 228 q 515 45 589 90 q 324 0 442 0 l 101 0 l 235 946 l 432 946 q 617 895 553 946 q 681 749 681 844 q 624 583 681 650 q 474 501 567 515 m 206 514 l 414 514 q 538 545 485 514 q 619 630 590 576 q 649 747 649 683 q 433 917 649 917 l 263 917 l 206 514 m 328 29 q 552 110 483 29 q 621 304 621 192 q 567 440 621 394 q 417 486 514 486 l 201 486 l 138 29 l 328 29 m 472 1126 q 456 1133 463 1126 q 449 1150 449 1140 q 456 1171 449 1163 q 478 1179 464 1179 q 496 1173 489 1179 q 503 1156 503 1167 q 494 1135 503 1144 q 472 1126 486 1126 z "},"Ḅ":{"ha":746,"x_min":101,"x_max":681,"o":"m 474 501 q 604 444 556 493 q 653 304 653 394 q 621 159 653 228 q 515 45 589 90 q 324 0 442 0 l 101 0 l 235 946 l 432 946 q 617 895 553 946 q 681 749 681 844 q 624 583 681 650 q 474 501 567 515 m 206 514 l 414 514 q 538 545 485 514 q 619 630 590 576 q 649 747 649 683 q 433 917 649 917 l 263 917 l 206 514 m 328 29 q 552 110 483 29 q 621 304 621 192 q 567 440 621 394 q 417 486 514 486 l 201 486 l 138 29 l 328 29 m 319 -137 q 336 -144 329 -137 q 343 -161 343 -151 q 335 -182 343 -174 q 314 -190 328 -190 q 296 -184 303 -190 q 289 -167 289 -178 q 297 -147 289 -156 q 319 -137 306 -137 z "},"Ꞵ":{"ha":740,"x_min":64,"x_max":668,"o":"m 471 501 q 600 446 551 493 q 649 308 649 399 q 613 157 649 228 q 506 43 576 86 q 339 0 436 0 q 233 10 281 0 q 139 42 186 19 l 96 -267 l 64 -267 l 235 946 l 419 946 q 603 895 539 946 q 668 746 668 844 q 613 583 668 649 q 471 501 557 517 m 339 29 q 489 68 426 29 q 584 171 551 107 q 617 308 617 235 q 563 442 617 397 q 413 486 510 486 l 310 486 l 318 514 l 410 514 q 529 544 478 514 q 608 628 581 575 q 636 744 636 681 q 421 917 636 917 l 263 917 l 143 69 q 339 29 229 29 z "},"Ɓ":{"ha":801,"x_min":89,"x_max":736,"o":"m 529 501 q 660 444 611 493 q 708 304 708 394 q 676 159 708 228 q 571 45 644 90 q 379 0 497 0 l 157 0 l 286 918 l 246 918 q 151 883 183 918 q 119 793 119 849 q 125 746 119 765 q 140 703 131 726 l 115 692 q 96 739 103 717 q 89 793 89 761 q 131 903 89 861 q 247 946 172 946 l 488 946 q 672 895 608 946 q 736 749 736 844 q 679 583 736 650 q 529 501 622 515 m 261 514 l 469 514 q 593 545 540 514 q 675 630 646 576 q 704 747 704 683 q 489 917 704 917 l 318 917 l 261 514 m 383 29 q 608 110 539 29 q 676 304 676 192 q 623 440 676 394 q 472 486 569 486 l 257 486 l 193 29 l 383 29 z "},"Ƀ":{"ha":751,"x_min":29,"x_max":686,"o":"m 479 501 q 610 444 561 493 q 658 304 658 394 q 626 159 658 228 q 521 45 594 90 q 329 0 447 0 l 107 0 l 143 254 l 29 254 l 33 283 l 147 283 l 240 946 l 438 946 q 622 895 558 946 q 686 749 686 844 q 629 583 686 650 q 479 501 572 515 m 211 514 l 419 514 q 543 545 490 514 q 625 630 596 576 q 654 747 654 683 q 439 917 654 917 l 268 917 l 211 514 m 333 29 q 558 110 489 29 q 626 304 626 192 q 573 440 626 394 q 422 486 519 486 l 207 486 l 179 283 l 417 283 l 413 254 l 175 254 l 143 29 l 333 29 z "},"Ƃ":{"ha":706,"x_min":101,"x_max":632,"o":"m 371 563 q 558 506 493 563 q 624 339 624 450 q 592 178 624 256 q 486 51 560 101 q 296 0 413 0 l 101 0 l 235 946 l 632 946 l 622 917 l 261 917 l 213 563 l 371 563 m 306 29 q 472 77 408 29 q 563 195 536 125 q 590 338 590 265 q 371 533 590 533 l 208 533 l 138 29 l 306 29 z "},"C":{"ha":678,"x_min":103,"x_max":714,"o":"m 522 960 q 632 940 588 960 q 714 879 676 919 l 694 858 q 617 913 656 896 q 522 931 579 931 q 301 838 389 931 q 174 609 214 746 q 133 338 133 472 q 197 99 133 182 q 371 17 261 17 q 483 38 436 17 q 579 97 531 58 l 597 74 q 494 10 549 33 q 371 -14 439 -14 q 175 77 247 -14 q 103 335 103 168 q 147 623 103 479 q 285 863 190 767 q 522 960 379 960 z "},"Ć":{"ha":678,"x_min":103,"x_max":714,"o":"m 522 960 q 632 940 588 960 q 714 879 676 919 l 694 858 q 617 913 656 896 q 522 931 579 931 q 301 838 389 931 q 174 609 214 746 q 133 338 133 472 q 197 99 133 182 q 371 17 261 17 q 483 38 436 17 q 579 97 531 58 l 597 74 q 494 10 549 33 q 371 -14 439 -14 q 175 77 247 -14 q 103 335 103 168 q 147 623 103 479 q 285 863 190 767 q 522 960 379 960 m 644 1194 l 658 1161 l 419 1061 l 410 1082 l 644 1194 z "},"Č":{"ha":678,"x_min":103,"x_max":714,"o":"m 522 960 q 632 940 588 960 q 714 879 676 919 l 694 858 q 617 913 656 896 q 522 931 579 931 q 301 838 389 931 q 174 609 214 746 q 133 338 133 472 q 197 99 133 182 q 371 17 261 17 q 483 38 436 17 q 579 97 531 58 l 597 74 q 494 10 549 33 q 371 -14 439 -14 q 175 77 247 -14 q 103 335 103 168 q 147 623 103 479 q 285 863 190 767 q 522 960 379 960 m 694 1197 l 708 1181 l 540 1056 l 524 1056 l 392 1181 l 408 1197 l 535 1089 l 694 1197 z "},"Ç":{"ha":678,"x_min":103,"x_max":714,"o":"m 522 931 q 301 838 389 931 q 174 609 214 746 q 133 338 133 472 q 197 99 133 182 q 371 17 261 17 q 483 38 436 17 q 579 97 531 58 l 597 74 q 495 10 549 33 q 376 -14 442 -12 l 360 -103 q 438 -128 413 -107 q 464 -190 464 -149 q 431 -266 464 -237 q 344 -294 397 -294 q 260 -269 294 -294 l 274 -247 q 344 -267 303 -267 q 408 -247 385 -267 q 432 -192 432 -228 q 409 -142 432 -157 q 329 -126 386 -128 l 353 -14 q 169 83 236 -7 q 103 335 103 174 q 147 623 103 479 q 285 863 190 767 q 522 960 379 960 q 632 940 588 960 q 714 879 676 919 l 694 858 q 617 913 656 896 q 522 931 579 931 z "},"Ĉ":{"ha":678,"x_min":103,"x_max":714,"o":"m 522 960 q 632 940 588 960 q 714 879 676 919 l 694 858 q 617 913 656 896 q 522 931 579 931 q 301 838 389 931 q 174 609 214 746 q 133 338 133 472 q 197 99 133 182 q 371 17 261 17 q 483 38 436 17 q 579 97 531 58 l 597 74 q 494 10 549 33 q 371 -14 439 -14 q 175 77 247 -14 q 103 335 103 168 q 147 623 103 479 q 285 863 190 767 q 522 960 379 960 m 383 1064 l 369 1082 l 538 1207 l 554 1207 l 686 1082 l 669 1064 l 544 1174 l 383 1064 z "},"Ċ":{"ha":678,"x_min":103,"x_max":714,"o":"m 522 960 q 632 940 588 960 q 714 879 676 919 l 694 858 q 617 913 656 896 q 522 931 579 931 q 301 838 389 931 q 174 609 214 746 q 133 338 133 472 q 197 99 133 182 q 371 17 261 17 q 483 38 436 17 q 579 97 531 58 l 597 74 q 494 10 549 33 q 371 -14 439 -14 q 175 77 247 -14 q 103 335 103 168 q 147 623 103 479 q 285 863 190 767 q 522 960 379 960 m 540 1126 q 524 1133 531 1126 q 517 1150 517 1140 q 524 1171 517 1163 q 546 1179 532 1179 q 564 1173 557 1179 q 571 1156 571 1167 q 563 1135 571 1144 q 540 1126 554 1126 z "},"Ꭓ":{"ha":599,"x_min":-50,"x_max":622,"o":"m 622 946 l 326 447 l 510 -137 l 475 -137 l 307 425 l -17 -137 l -50 -137 l 290 446 l 132 946 l 165 946 l 311 467 l 588 946 l 622 946 z "},"Ƈ":{"ha":668,"x_min":103,"x_max":949,"o":"m 839 1131 q 901 1119 875 1131 q 949 1088 926 1107 l 931 1068 q 890 1094 911 1085 q 840 1103 869 1103 q 767 1074 796 1103 q 729 983 738 1044 l 714 879 l 696 861 q 617 914 656 897 q 522 931 578 931 q 301 838 389 931 q 174 609 214 746 q 133 338 133 472 q 197 99 133 182 q 371 17 261 17 q 483 38 436 17 q 579 97 531 58 l 597 74 q 494 10 549 33 q 371 -14 439 -14 q 175 77 247 -14 q 103 335 103 168 q 147 623 103 479 q 285 863 190 767 q 522 960 379 960 q 686 903 619 960 l 697 988 q 745 1093 707 1056 q 839 1131 783 1131 z "},"Ȼ":{"ha":678,"x_min":103,"x_max":714,"o":"m 694 858 q 642 901 668 885 q 586 924 617 917 l 256 47 q 371 17 304 17 q 483 38 436 17 q 579 97 531 58 l 597 74 q 494 10 549 33 q 371 -14 439 -14 q 244 17 301 -14 l 203 -92 l 181 -86 l 224 29 q 134 149 165 71 q 103 335 103 226 q 147 623 103 479 q 285 863 190 767 q 522 960 379 960 q 574 956 549 960 l 599 1024 l 621 1017 l 596 951 q 714 879 660 935 l 694 858 m 563 928 q 522 931 538 931 q 301 838 389 931 q 174 609 214 746 q 133 338 133 472 q 160 169 133 239 q 236 60 188 99 l 563 928 z "},"D":{"ha":788,"x_min":101,"x_max":718,"o":"m 403 946 q 718 618 718 946 q 672 317 718 457 q 524 89 626 178 q 261 0 421 0 l 101 0 l 235 946 l 403 946 m 263 917 l 138 29 l 267 29 q 509 115 415 29 q 644 333 603 200 q 686 618 686 467 q 608 852 686 788 q 400 917 529 917 l 263 917 z "},"Ǳ":{"ha":1388,"x_min":101,"x_max":1407,"o":"m 403 946 q 718 618 718 946 q 672 317 718 457 q 524 89 626 178 q 261 0 421 0 l 101 0 l 235 946 l 403 946 m 263 917 l 138 29 l 267 29 q 509 115 415 29 q 644 333 603 200 q 686 618 686 467 q 608 852 686 788 q 400 917 529 917 l 263 917 m 751 0 l 756 29 l 1367 917 l 926 917 l 931 946 l 1407 946 l 1404 919 l 793 31 l 1264 31 l 1254 0 l 751 0 z "},"Ǆ":{"ha":1388,"x_min":101,"x_max":1407,"o":"m 403 946 q 718 618 718 946 q 672 317 718 457 q 524 89 626 178 q 261 0 421 0 l 101 0 l 235 946 l 403 946 m 263 917 l 138 29 l 267 29 q 509 115 415 29 q 644 333 603 200 q 686 618 686 467 q 608 852 686 788 q 400 917 529 917 l 263 917 m 751 0 l 756 29 l 1367 917 l 926 917 l 931 946 l 1407 946 l 1404 919 l 793 31 l 1264 31 l 1254 0 l 751 0 m 1331 1197 l 1344 1181 l 1176 1056 l 1160 1056 l 1028 1181 l 1044 1197 l 1171 1089 l 1331 1197 z "},"Ɖ":{"ha":790,"x_min":60,"x_max":721,"o":"m 406 946 q 721 618 721 946 q 675 317 721 457 q 526 89 629 178 q 264 0 424 0 l 104 0 l 171 476 l 60 476 l 64 504 l 175 504 l 238 946 l 406 946 m 269 29 q 512 115 418 29 q 647 333 606 200 q 689 618 689 467 q 610 852 689 788 q 403 917 532 917 l 265 917 l 207 504 l 449 504 l 443 476 l 203 476 l 140 29 l 269 29 z "},"Ð":{"ha":790,"x_min":60,"x_max":721,"o":"m 406 946 q 721 618 721 946 q 675 317 721 457 q 526 89 629 178 q 264 0 424 0 l 104 0 l 171 476 l 60 476 l 64 504 l 175 504 l 238 946 l 406 946 m 269 29 q 512 115 418 29 q 647 333 606 200 q 689 618 689 467 q 610 852 689 788 q 403 917 532 917 l 265 917 l 207 504 l 449 504 l 443 476 l 203 476 l 140 29 l 269 29 z "},"Ď":{"ha":788,"x_min":101,"x_max":718,"o":"m 403 946 q 718 618 718 946 q 672 317 718 457 q 524 89 626 178 q 261 0 421 0 l 101 0 l 235 946 l 403 946 m 263 917 l 138 29 l 267 29 q 509 115 415 29 q 644 333 603 200 q 686 618 686 467 q 608 852 686 788 q 400 917 529 917 l 263 917 m 647 1197 l 661 1181 l 493 1056 l 476 1056 l 344 1181 l 361 1197 l 488 1089 l 647 1197 z "},"Ḓ":{"ha":788,"x_min":101,"x_max":718,"o":"m 403 946 q 718 618 718 946 q 672 317 718 457 q 524 89 626 178 q 261 0 421 0 l 101 0 l 235 946 l 403 946 m 263 917 l 138 29 l 267 29 q 509 115 415 29 q 644 333 603 200 q 686 618 686 467 q 608 852 686 788 q 400 917 529 917 l 263 917 m 142 -256 l 126 -236 l 296 -104 l 313 -104 l 443 -236 l 428 -256 l 300 -137 l 142 -256 z "},"Đ":{"ha":790,"x_min":60,"x_max":721,"o":"m 406 946 q 721 618 721 946 q 675 317 721 457 q 526 89 629 178 q 264 0 424 0 l 104 0 l 171 476 l 60 476 l 64 504 l 175 504 l 238 946 l 406 946 m 269 29 q 512 115 418 29 q 647 333 606 200 q 689 618 689 467 q 610 852 689 788 q 403 917 532 917 l 265 917 l 207 504 l 449 504 l 443 476 l 203 476 l 140 29 l 269 29 z "},"Ḋ":{"ha":788,"x_min":101,"x_max":718,"o":"m 403 946 q 718 618 718 946 q 672 317 718 457 q 524 89 626 178 q 261 0 421 0 l 101 0 l 235 946 l 403 946 m 263 917 l 138 29 l 267 29 q 509 115 415 29 q 644 333 603 200 q 686 618 686 467 q 608 852 686 788 q 400 917 529 917 l 263 917 m 493 1126 q 476 1133 483 1126 q 469 1150 469 1140 q 477 1171 469 1163 q 499 1179 485 1179 q 517 1173 510 1179 q 524 1156 524 1167 q 515 1135 524 1144 q 493 1126 507 1126 z "},"Ḍ":{"ha":788,"x_min":101,"x_max":718,"o":"m 403 946 q 718 618 718 946 q 672 317 718 457 q 524 89 626 178 q 261 0 421 0 l 101 0 l 235 946 l 403 946 m 263 917 l 138 29 l 267 29 q 509 115 415 29 q 644 333 603 200 q 686 618 686 467 q 608 852 686 788 q 400 917 529 917 l 263 917 m 297 -137 q 314 -144 307 -137 q 321 -161 321 -151 q 313 -182 321 -174 q 292 -190 306 -190 q 274 -184 281 -190 q 267 -167 267 -178 q 275 -147 267 -156 q 297 -137 283 -137 z "},"Ɗ":{"ha":843,"x_min":89,"x_max":774,"o":"m 458 946 q 774 618 774 946 q 728 317 774 457 q 579 89 682 178 q 317 0 476 0 l 157 0 l 286 918 l 246 918 q 151 883 183 918 q 119 793 119 849 q 125 746 119 765 q 140 703 131 726 l 115 692 q 96 739 103 717 q 89 793 89 761 q 131 903 89 861 q 247 946 172 946 l 458 946 m 322 29 q 565 115 471 29 q 700 333 658 200 q 742 618 742 467 q 663 852 742 788 q 456 917 585 917 l 318 917 l 193 29 l 322 29 z "},"Ḏ":{"ha":788,"x_min":101,"x_max":718,"o":"m 403 946 q 718 618 718 946 q 672 317 718 457 q 524 89 626 178 q 261 0 421 0 l 101 0 l 235 946 l 403 946 m 263 917 l 138 29 l 267 29 q 509 115 415 29 q 644 333 603 200 q 686 618 686 467 q 608 852 686 788 q 400 917 529 917 l 263 917 m 167 -164 l 428 -164 l 424 -193 l 163 -193 l 167 -164 z "},"Ƌ":{"ha":708,"x_min":63,"x_max":638,"o":"m 636 944 l 504 0 l 321 0 q 130 60 197 0 q 63 244 63 121 q 104 414 63 342 q 221 524 146 486 q 394 563 296 563 l 551 563 l 601 917 l 239 917 l 243 946 l 638 946 l 636 944 m 547 533 l 392 533 q 174 456 254 533 q 94 244 94 378 q 324 29 94 29 l 476 29 l 547 533 z "},"ǲ":{"ha":1288,"x_min":101,"x_max":1293,"o":"m 403 946 q 718 618 718 946 q 672 317 718 457 q 524 89 626 178 q 261 0 421 0 l 101 0 l 235 946 l 403 946 m 263 917 l 138 29 l 267 29 q 509 115 415 29 q 644 333 603 200 q 686 618 686 467 q 608 852 686 788 q 400 917 529 917 l 263 917 m 1293 721 l 1289 696 l 804 29 l 1186 29 l 1179 0 l 761 0 l 765 25 l 1251 693 l 893 693 l 897 721 l 1293 721 z "},"ǅ":{"ha":1288,"x_min":101,"x_max":1296,"o":"m 403 946 q 718 618 718 946 q 672 317 718 457 q 524 89 626 178 q 261 0 421 0 l 101 0 l 235 946 l 403 946 m 263 917 l 138 29 l 267 29 q 509 115 415 29 q 644 333 603 200 q 686 618 686 467 q 608 852 686 788 q 400 917 529 917 l 263 917 m 1293 721 l 1289 696 l 804 29 l 1186 29 l 1179 0 l 761 0 l 765 25 l 1251 693 l 893 693 l 897 721 l 1293 721 m 1281 1040 l 1296 1022 l 1126 890 l 1110 890 l 978 1022 l 996 1040 l 1121 924 l 1281 1040 z "},"E":{"ha":618,"x_min":101,"x_max":638,"o":"m 638 946 l 629 917 l 263 917 l 206 514 l 524 514 l 518 485 l 201 485 l 138 29 l 519 29 l 514 0 l 101 0 l 235 946 l 638 946 z "},"É":{"ha":618,"x_min":101,"x_max":638,"o":"m 638 946 l 629 917 l 263 917 l 206 514 l 524 514 l 518 485 l 201 485 l 138 29 l 519 29 l 514 0 l 101 0 l 235 946 l 638 946 m 569 1194 l 583 1161 l 344 1061 l 335 1082 l 569 1194 z "},"Ĕ":{"ha":618,"x_min":101,"x_max":638,"o":"m 638 946 l 629 917 l 263 917 l 206 514 l 524 514 l 518 485 l 201 485 l 138 29 l 519 29 l 514 0 l 101 0 l 235 946 l 638 946 m 456 1071 q 367 1102 401 1071 q 331 1178 333 1133 l 353 1181 q 386 1122 360 1144 q 456 1100 413 1100 q 532 1122 500 1100 q 582 1182 564 1144 l 606 1175 q 549 1101 589 1131 q 456 1071 510 1071 z "},"Ě":{"ha":618,"x_min":101,"x_max":638,"o":"m 638 946 l 629 917 l 263 917 l 206 514 l 524 514 l 518 485 l 201 485 l 138 29 l 519 29 l 514 0 l 101 0 l 235 946 l 638 946 m 619 1197 l 633 1181 l 465 1056 l 449 1056 l 317 1181 l 333 1197 l 460 1089 l 619 1197 z "},"Ȩ":{"ha":618,"x_min":101,"x_max":638,"o":"m 263 917 l 206 514 l 524 514 l 518 485 l 201 485 l 138 29 l 519 29 l 514 0 l 315 0 l 296 -103 q 374 -128 349 -107 q 400 -190 400 -149 q 366 -265 400 -236 q 281 -294 332 -294 q 196 -269 231 -294 l 210 -247 q 281 -267 239 -267 q 344 -247 321 -267 q 368 -192 368 -226 q 345 -142 368 -157 q 265 -126 322 -128 l 292 0 l 101 0 l 235 946 l 638 946 l 629 917 l 263 917 z "},"Ê":{"ha":618,"x_min":101,"x_max":638,"o":"m 638 946 l 629 917 l 263 917 l 206 514 l 524 514 l 518 485 l 201 485 l 138 29 l 519 29 l 514 0 l 101 0 l 235 946 l 638 946 m 308 1064 l 294 1082 l 463 1207 l 479 1207 l 611 1082 l 594 1064 l 469 1174 l 308 1064 z "},"Ế":{"ha":618,"x_min":101,"x_max":722,"o":"m 699 1324 l 722 1300 l 569 1144 l 554 1160 l 699 1324 m 306 1024 l 292 1042 l 460 1167 l 476 1167 l 608 1042 l 592 1024 l 467 1133 l 306 1024 m 638 946 l 629 917 l 263 917 l 206 514 l 524 514 l 518 485 l 201 485 l 138 29 l 519 29 l 514 0 l 101 0 l 235 946 l 638 946 z "},"Ệ":{"ha":618,"x_min":101,"x_max":638,"o":"m 638 946 l 629 917 l 263 917 l 206 514 l 524 514 l 518 485 l 201 485 l 138 29 l 519 29 l 514 0 l 101 0 l 235 946 l 638 946 m 308 1064 l 294 1082 l 463 1207 l 479 1207 l 611 1082 l 594 1064 l 469 1174 l 308 1064 m 286 -137 q 303 -144 296 -137 q 310 -161 310 -151 q 302 -182 310 -174 q 281 -190 294 -190 q 263 -184 269 -190 q 256 -167 256 -178 q 264 -147 256 -156 q 286 -137 272 -137 z "},"Ề":{"ha":618,"x_min":101,"x_max":638,"o":"m 267 1324 l 365 1157 l 347 1144 l 238 1304 l 267 1324 m 303 1024 l 289 1042 l 457 1167 l 474 1167 l 606 1042 l 589 1024 l 464 1133 l 303 1024 m 638 946 l 629 917 l 263 917 l 206 514 l 524 514 l 518 485 l 201 485 l 138 29 l 519 29 l 514 0 l 101 0 l 235 946 l 638 946 z "},"Ể":{"ha":618,"x_min":101,"x_max":713,"o":"m 638 946 l 629 917 l 263 917 l 206 514 l 524 514 l 518 485 l 201 485 l 138 29 l 519 29 l 514 0 l 101 0 l 235 946 l 638 946 m 304 1024 l 290 1042 l 458 1167 l 475 1167 l 607 1042 l 590 1024 l 465 1133 l 304 1024 m 583 1196 q 681 1275 681 1201 q 666 1317 681 1303 q 624 1332 651 1332 q 587 1327 603 1332 q 550 1313 571 1322 l 540 1336 q 625 1360 583 1360 q 689 1337 665 1360 q 713 1275 713 1314 q 685 1207 713 1232 q 611 1175 658 1182 l 604 1117 l 575 1117 l 583 1196 z "},"Ễ":{"ha":618,"x_min":101,"x_max":646,"o":"m 546 1221 q 507 1229 525 1221 q 467 1253 489 1238 q 432 1274 444 1268 q 404 1281 419 1281 q 365 1269 382 1281 q 324 1231 349 1258 l 306 1244 q 404 1308 357 1308 q 438 1301 422 1308 q 476 1278 454 1293 q 513 1256 497 1264 q 546 1249 529 1249 q 585 1262 567 1249 q 626 1306 603 1275 l 646 1293 q 546 1221 599 1221 m 301 1024 l 288 1042 l 456 1167 l 472 1167 l 604 1042 l 588 1024 l 463 1133 l 301 1024 m 638 946 l 629 917 l 263 917 l 206 514 l 524 514 l 518 485 l 201 485 l 138 29 l 519 29 l 514 0 l 101 0 l 235 946 l 638 946 z "},"Ȅ":{"ha":618,"x_min":101,"x_max":638,"o":"m 638 946 l 629 917 l 263 917 l 206 514 l 524 514 l 518 485 l 201 485 l 138 29 l 519 29 l 514 0 l 101 0 l 235 946 l 638 946 m 339 1274 l 403 1092 l 378 1081 l 304 1260 l 339 1274 m 478 1272 l 535 1096 l 510 1086 l 443 1257 l 478 1272 z "},"Ë":{"ha":618,"x_min":101,"x_max":638,"o":"m 638 946 l 629 917 l 263 917 l 206 514 l 524 514 l 518 485 l 201 485 l 138 29 l 519 29 l 514 0 l 101 0 l 235 946 l 638 946 m 361 1110 q 344 1116 350 1110 q 338 1133 338 1122 q 345 1154 338 1146 q 367 1163 353 1163 q 383 1156 376 1163 q 390 1139 390 1150 q 382 1118 390 1126 q 361 1110 374 1110 m 571 1110 q 553 1116 560 1110 q 546 1133 546 1122 q 553 1154 546 1146 q 575 1163 561 1163 q 592 1156 586 1163 q 599 1139 599 1150 q 591 1118 599 1126 q 571 1110 583 1110 z "},"Ė":{"ha":618,"x_min":101,"x_max":638,"o":"m 638 946 l 629 917 l 263 917 l 206 514 l 524 514 l 518 485 l 201 485 l 138 29 l 519 29 l 514 0 l 101 0 l 235 946 l 638 946 m 465 1126 q 449 1133 456 1126 q 442 1150 442 1140 q 449 1171 442 1163 q 471 1179 457 1179 q 489 1173 482 1179 q 496 1156 496 1167 q 488 1135 496 1144 q 465 1126 479 1126 z "},"Ẹ":{"ha":618,"x_min":101,"x_max":638,"o":"m 638 946 l 629 917 l 263 917 l 206 514 l 524 514 l 518 485 l 201 485 l 138 29 l 519 29 l 514 0 l 101 0 l 235 946 l 638 946 m 286 -137 q 303 -144 296 -137 q 310 -161 310 -151 q 302 -182 310 -174 q 281 -190 294 -190 q 263 -184 269 -190 q 256 -167 256 -178 q 264 -147 256 -156 q 286 -137 272 -137 z "},"È":{"ha":618,"x_min":101,"x_max":638,"o":"m 638 946 l 629 917 l 263 917 l 206 514 l 524 514 l 518 485 l 201 485 l 138 29 l 519 29 l 514 0 l 101 0 l 235 946 l 638 946 m 378 1193 l 579 1081 l 567 1061 l 358 1161 l 378 1193 z "},"Ẻ":{"ha":618,"x_min":101,"x_max":638,"o":"m 638 946 l 629 917 l 263 917 l 206 514 l 524 514 l 518 485 l 201 485 l 138 29 l 519 29 l 514 0 l 101 0 l 235 946 l 638 946 m 456 1165 q 553 1244 553 1171 q 538 1287 553 1272 q 496 1301 524 1301 q 459 1297 475 1301 q 422 1282 443 1292 l 413 1306 q 497 1329 456 1329 q 561 1306 538 1329 q 585 1244 585 1283 q 558 1176 585 1201 q 483 1144 531 1151 l 476 1086 l 447 1086 l 456 1165 z "},"Ȇ":{"ha":618,"x_min":101,"x_max":638,"o":"m 638 946 l 629 917 l 263 917 l 206 514 l 524 514 l 518 485 l 201 485 l 138 29 l 519 29 l 514 0 l 101 0 l 235 946 l 638 946 m 324 1114 q 380 1199 340 1167 q 474 1232 419 1232 q 562 1199 529 1232 q 597 1111 594 1165 l 574 1108 q 474 1203 563 1203 q 395 1178 428 1203 q 344 1107 363 1153 l 324 1114 z "},"Ē":{"ha":618,"x_min":101,"x_max":638,"o":"m 638 946 l 629 917 l 263 917 l 206 514 l 524 514 l 518 485 l 201 485 l 138 29 l 519 29 l 514 0 l 101 0 l 235 946 l 638 946 m 596 1126 l 335 1126 l 339 1156 l 600 1156 l 596 1126 z "},"Ę":{"ha":618,"x_min":101,"x_max":638,"o":"m 263 917 l 206 514 l 524 514 l 518 485 l 201 485 l 138 29 l 519 29 l 514 0 l 481 0 q 343 -81 388 -40 q 299 -179 299 -122 q 376 -251 299 -251 q 446 -242 406 -251 l 439 -272 q 374 -282 401 -282 q 295 -256 324 -282 q 267 -185 267 -231 q 308 -82 267 -125 q 431 0 349 -39 l 101 0 l 235 946 l 638 946 l 629 917 l 263 917 z "},"Ɛ":{"ha":651,"x_min":65,"x_max":663,"o":"m 432 960 q 563 931 508 960 q 663 843 617 903 l 639 825 q 549 903 599 876 q 432 931 500 931 q 312 901 365 931 q 228 817 258 871 q 199 696 199 764 q 249 572 199 617 q 386 528 299 528 l 450 528 l 443 499 l 379 500 q 174 425 250 501 q 99 222 99 349 q 152 70 99 124 q 299 17 206 17 q 432 47 371 17 q 553 135 493 76 l 574 114 q 441 18 508 50 q 297 -14 374 -14 q 128 49 192 -14 q 65 222 65 113 q 135 428 65 350 q 313 515 204 506 q 206 572 246 528 q 167 692 167 617 q 201 831 167 769 q 295 926 235 892 q 432 960 356 960 z "},"Ǝ":{"ha":618,"x_min":3,"x_max":547,"o":"m 143 946 l 547 946 l 415 0 l 3 0 l 7 29 l 388 29 l 451 485 l 135 485 l 139 514 l 456 514 l 511 917 l 139 917 l 143 946 z "},"Ʃ":{"ha":614,"x_min":19,"x_max":626,"o":"m 626 946 l 624 917 l 192 917 l 417 474 l 414 461 l 71 29 l 499 29 l 494 0 l 19 0 l 21 17 l 383 471 l 150 929 l 151 946 l 626 946 z "},"Ɇ":{"ha":618,"x_min":101,"x_max":638,"o":"m 629 917 l 563 917 l 410 514 l 524 514 l 518 485 l 400 485 l 228 29 l 519 29 l 514 0 l 217 0 l 182 -92 l 158 -86 l 190 0 l 101 0 l 235 946 l 549 946 l 578 1024 l 600 1017 l 574 946 l 638 946 l 629 917 m 385 514 l 538 917 l 263 917 l 206 514 l 385 514 m 201 29 l 374 485 l 201 485 l 138 29 l 201 29 z "},"Ẽ":{"ha":618,"x_min":101,"x_max":642,"o":"m 638 946 l 629 917 l 263 917 l 206 514 l 524 514 l 518 485 l 201 485 l 138 29 l 519 29 l 514 0 l 101 0 l 235 946 l 638 946 m 542 1117 q 503 1125 521 1117 q 463 1149 485 1133 q 428 1170 440 1164 q 400 1176 415 1176 q 361 1165 378 1176 q 319 1126 344 1154 l 301 1140 q 400 1204 353 1204 q 434 1197 418 1204 q 472 1174 450 1189 q 509 1152 493 1160 q 542 1144 525 1144 q 581 1158 563 1144 q 622 1201 599 1171 l 642 1189 q 542 1117 594 1117 z "},"Ʒ":{"ha":589,"x_min":-12,"x_max":574,"o":"m 569 919 l 215 518 l 269 518 q 453 463 392 518 q 515 306 515 408 q 478 141 515 214 q 373 27 440 68 q 218 -14 306 -14 q 84 15 139 -14 q -12 101 29 44 l 10 118 q 99 41 51 65 q 218 17 146 17 q 358 53 297 17 q 451 156 418 90 q 483 306 483 222 q 269 489 483 489 l 175 489 l 179 518 l 528 918 l 121 918 l 124 946 l 574 946 l 569 919 z "},"Ǯ":{"ha":589,"x_min":-12,"x_max":574,"o":"m 569 919 l 215 518 l 269 518 q 453 463 392 518 q 515 306 515 408 q 478 141 515 214 q 373 27 440 68 q 218 -14 306 -14 q 84 15 139 -14 q -12 101 29 44 l 10 118 q 99 41 51 65 q 218 17 146 17 q 358 53 297 17 q 451 156 418 90 q 483 306 483 222 q 269 489 483 489 l 175 489 l 179 518 l 528 918 l 121 918 l 124 946 l 574 946 l 569 919 m 526 1197 l 540 1181 l 372 1056 l 356 1056 l 224 1181 l 240 1197 l 367 1089 l 526 1197 z "},"Ƹ":{"ha":590,"x_min":46,"x_max":629,"o":"m 625 918 l 214 918 l 454 519 l 451 489 l 354 489 q 151 415 225 489 q 76 214 76 340 q 128 69 76 122 q 269 17 179 17 q 399 41 344 17 q 510 118 453 65 l 529 99 q 411 14 472 42 q 268 -14 350 -14 q 106 49 167 -14 q 46 214 46 111 q 131 435 46 353 q 357 518 215 518 l 422 518 l 175 919 l 179 946 l 629 946 l 625 918 z "},"F":{"ha":589,"x_min":101,"x_max":632,"o":"m 632 946 l 624 917 l 263 917 l 203 494 l 515 494 l 511 465 l 199 465 l 133 0 l 101 0 l 235 946 l 632 946 z "},"Ḟ":{"ha":589,"x_min":101,"x_max":632,"o":"m 632 946 l 624 917 l 263 917 l 203 494 l 515 494 l 511 465 l 199 465 l 133 0 l 101 0 l 235 946 l 632 946 m 457 1126 q 440 1133 447 1126 q 433 1150 433 1140 q 441 1171 433 1163 q 463 1179 449 1179 q 481 1173 474 1179 q 488 1156 488 1167 q 479 1135 488 1144 q 457 1126 471 1126 z "},"Ƒ":{"ha":589,"x_min":-135,"x_max":632,"o":"m 263 917 l 203 494 l 515 494 l 511 465 l 199 465 l 133 0 l 115 -129 q 67 -237 106 -200 q -29 -274 28 -274 q -135 -231 -92 -274 l -118 -211 q -79 -236 -99 -228 q -29 -244 -60 -244 q 45 -215 14 -244 q 85 -125 76 -186 l 103 0 l 101 0 l 235 946 l 632 946 l 624 917 l 263 917 z "},"G":{"ha":758,"x_min":103,"x_max":731,"o":"m 525 960 q 636 940 588 960 q 731 878 685 919 l 708 857 q 625 913 668 896 q 524 931 582 931 q 311 845 399 931 q 179 624 224 760 q 135 336 135 488 q 200 97 135 178 q 386 17 265 17 q 594 74 493 17 l 650 463 l 469 463 l 469 492 l 685 492 l 624 56 q 507 5 569 24 q 386 -14 444 -14 q 177 76 251 -14 q 103 338 103 167 q 151 639 103 496 q 296 871 200 782 q 525 960 392 960 z "},"Ǵ":{"ha":758,"x_min":103,"x_max":731,"o":"m 525 960 q 636 940 588 960 q 731 878 685 919 l 708 857 q 625 913 668 896 q 524 931 582 931 q 311 845 399 931 q 179 624 224 760 q 135 336 135 488 q 200 97 135 178 q 386 17 265 17 q 594 74 493 17 l 650 463 l 469 463 l 469 492 l 685 492 l 624 56 q 507 5 569 24 q 386 -14 444 -14 q 177 76 251 -14 q 103 338 103 167 q 151 639 103 496 q 296 871 200 782 q 525 960 392 960 m 650 1194 l 664 1161 l 425 1061 l 415 1082 l 650 1194 z "},"Ɣ":{"ha":678,"x_min":121,"x_max":721,"o":"m 317 75 q 349 -57 340 -14 q 358 -142 358 -100 q 330 -237 358 -200 q 253 -274 301 -274 q 194 -250 215 -274 q 174 -187 174 -226 q 199 -81 174 -139 q 281 79 224 -24 l 121 946 l 153 946 l 303 104 l 688 946 l 721 946 l 317 75 m 328 -142 q 320 -64 328 -103 q 294 51 313 -25 q 226 -89 249 -35 q 204 -187 204 -143 q 253 -246 204 -246 q 308 -217 289 -246 q 328 -142 328 -189 z "},"Ğ":{"ha":758,"x_min":103,"x_max":731,"o":"m 525 960 q 636 940 588 960 q 731 878 685 919 l 708 857 q 625 913 668 896 q 524 931 582 931 q 311 845 399 931 q 179 624 224 760 q 135 336 135 488 q 200 97 135 178 q 386 17 265 17 q 594 74 493 17 l 650 463 l 469 463 l 469 492 l 685 492 l 624 56 q 507 5 569 24 q 386 -14 444 -14 q 177 76 251 -14 q 103 338 103 167 q 151 639 103 496 q 296 871 200 782 q 525 960 392 960 m 536 1071 q 448 1102 482 1071 q 411 1178 414 1133 l 433 1181 q 467 1122 440 1144 q 536 1100 493 1100 q 613 1122 581 1100 q 663 1182 644 1144 l 686 1175 q 630 1101 669 1131 q 536 1071 590 1071 z "},"Ǧ":{"ha":758,"x_min":103,"x_max":731,"o":"m 525 960 q 636 940 588 960 q 731 878 685 919 l 708 857 q 625 913 668 896 q 524 931 582 931 q 311 845 399 931 q 179 624 224 760 q 135 336 135 488 q 200 97 135 178 q 386 17 265 17 q 594 74 493 17 l 650 463 l 469 463 l 469 492 l 685 492 l 624 56 q 507 5 569 24 q 386 -14 444 -14 q 177 76 251 -14 q 103 338 103 167 q 151 639 103 496 q 296 871 200 782 q 525 960 392 960 m 700 1197 l 714 1181 l 546 1056 l 529 1056 l 397 1181 l 414 1197 l 540 1089 l 700 1197 z "},"Ĝ":{"ha":758,"x_min":103,"x_max":731,"o":"m 525 960 q 636 940 588 960 q 731 878 685 919 l 708 857 q 625 913 668 896 q 524 931 582 931 q 311 845 399 931 q 179 624 224 760 q 135 336 135 488 q 200 97 135 178 q 386 17 265 17 q 594 74 493 17 l 650 463 l 469 463 l 469 492 l 685 492 l 624 56 q 507 5 569 24 q 386 -14 444 -14 q 177 76 251 -14 q 103 338 103 167 q 151 639 103 496 q 296 871 200 782 q 525 960 392 960 m 389 1064 l 375 1082 l 543 1207 l 560 1207 l 692 1082 l 675 1064 l 550 1174 l 389 1064 z "},"Ģ":{"ha":758,"x_min":103,"x_max":731,"o":"m 525 960 q 636 940 588 960 q 731 878 685 919 l 708 857 q 625 913 668 896 q 524 931 582 931 q 311 845 399 931 q 179 624 224 760 q 135 336 135 488 q 200 97 135 178 q 386 17 265 17 q 594 74 493 17 l 650 463 l 469 463 l 469 492 l 685 492 l 624 56 q 507 5 569 24 q 386 -14 444 -14 q 177 76 251 -14 q 103 338 103 167 q 151 639 103 496 q 296 871 200 782 q 525 960 392 960 m 363 -133 q 385 -142 376 -133 q 393 -162 393 -150 q 388 -187 393 -174 q 372 -218 382 -200 l 304 -358 l 283 -358 l 346 -197 q 328 -168 328 -187 q 338 -143 328 -153 q 363 -133 347 -133 z "},"Ġ":{"ha":758,"x_min":103,"x_max":731,"o":"m 525 960 q 636 940 588 960 q 731 878 685 919 l 708 857 q 625 913 668 896 q 524 931 582 931 q 311 845 399 931 q 179 624 224 760 q 135 336 135 488 q 200 97 135 178 q 386 17 265 17 q 594 74 493 17 l 650 463 l 469 463 l 469 492 l 685 492 l 624 56 q 507 5 569 24 q 386 -14 444 -14 q 177 76 251 -14 q 103 338 103 167 q 151 639 103 496 q 296 871 200 782 q 525 960 392 960 m 546 1126 q 529 1133 536 1126 q 522 1150 522 1140 q 530 1171 522 1163 q 551 1179 538 1179 q 569 1173 563 1179 q 576 1156 576 1167 q 568 1135 576 1144 q 546 1126 560 1126 z "},"Ɠ":{"ha":685,"x_min":103,"x_max":965,"o":"m 857 1131 q 918 1119 893 1131 q 965 1088 943 1107 l 949 1068 q 907 1094 928 1085 q 857 1103 886 1103 q 784 1072 814 1103 q 744 976 754 1042 l 731 878 l 711 860 q 624 914 668 897 q 524 931 581 931 q 311 845 399 931 q 179 624 224 760 q 135 336 135 488 q 200 97 135 178 q 386 17 265 17 q 594 74 493 17 l 650 463 l 469 463 l 469 492 l 685 492 l 624 56 q 507 5 569 24 q 386 -14 444 -14 q 177 76 251 -14 q 103 338 103 167 q 151 639 103 496 q 296 871 200 782 q 525 960 392 960 q 703 900 631 960 l 714 979 q 762 1092 724 1053 q 857 1131 800 1131 z "},"Ɂ":{"ha":568,"x_min":96,"x_max":568,"o":"m 213 401 l 296 424 q 475 528 415 456 q 535 726 535 601 q 488 876 535 822 q 350 931 440 931 q 229 903 285 931 q 114 824 174 876 l 96 846 q 219 931 158 903 q 351 960 281 960 q 511 897 454 960 q 568 728 568 833 q 501 511 568 590 q 304 397 435 432 l 242 379 l 188 0 l 156 0 l 213 401 z "},"Ǥ":{"ha":768,"x_min":103,"x_max":757,"o":"m 754 294 l 657 294 l 624 56 q 507 5 569 24 q 386 -14 444 -14 q 177 76 251 -14 q 103 338 103 167 q 151 639 103 496 q 296 871 200 782 q 525 960 392 960 q 636 940 588 960 q 731 878 685 919 l 708 857 q 625 913 668 896 q 524 931 582 931 q 311 845 399 931 q 179 624 224 760 q 135 336 135 488 q 200 97 135 178 q 386 17 265 17 q 594 74 493 17 l 626 294 l 450 294 l 453 324 l 631 324 l 650 463 l 469 463 l 469 492 l 685 492 l 661 324 l 757 324 l 754 294 z "},"Ȝ":{"ha":615,"x_min":3,"x_max":569,"o":"m 372 960 q 517 907 464 960 q 569 763 569 854 q 510 586 569 653 q 354 501 451 519 q 525 322 525 482 q 387 47 525 146 q 3 -111 249 -51 l 3 -82 q 362 67 232 -25 q 492 319 492 160 q 286 486 492 489 l 214 485 l 222 514 l 283 514 q 467 583 397 514 q 536 763 536 651 q 493 886 536 842 q 372 931 450 931 q 247 903 304 931 q 128 824 189 876 l 110 846 q 238 931 175 903 q 372 960 300 960 z "},"H":{"ha":826,"x_min":101,"x_max":756,"o":"m 133 0 l 101 0 l 235 946 l 267 946 l 206 517 l 664 517 l 724 946 l 756 946 l 622 0 l 590 0 l 660 488 l 203 488 l 133 0 z "},"Ħ":{"ha":825,"x_min":103,"x_max":801,"o":"m 801 747 l 799 722 l 725 722 l 624 0 l 592 0 l 661 488 l 204 488 l 135 0 l 103 0 l 204 722 l 129 722 l 133 747 l 208 747 l 236 946 l 268 946 l 240 747 l 697 747 l 725 946 l 757 946 l 729 747 l 801 747 m 665 517 l 694 722 l 236 722 l 207 517 l 665 517 z "},"Ȟ":{"ha":826,"x_min":101,"x_max":756,"o":"m 133 0 l 101 0 l 235 946 l 267 946 l 206 517 l 664 517 l 724 946 l 756 946 l 622 0 l 590 0 l 660 488 l 203 488 l 133 0 m 671 1197 l 685 1181 l 517 1056 l 500 1056 l 368 1181 l 385 1197 l 511 1089 l 671 1197 z "},"Ĥ":{"ha":826,"x_min":101,"x_max":756,"o":"m 133 0 l 101 0 l 235 946 l 267 946 l 206 517 l 664 517 l 724 946 l 756 946 l 622 0 l 590 0 l 660 488 l 203 488 l 133 0 m 360 1064 l 346 1082 l 514 1207 l 531 1207 l 663 1082 l 646 1064 l 521 1174 l 360 1064 z "},"Ḥ":{"ha":826,"x_min":101,"x_max":756,"o":"m 133 0 l 101 0 l 235 946 l 267 946 l 206 517 l 664 517 l 724 946 l 756 946 l 622 0 l 590 0 l 660 488 l 203 488 l 133 0 m 344 -137 q 361 -144 354 -137 q 368 -161 368 -151 q 360 -182 368 -174 q 339 -190 353 -190 q 321 -184 328 -190 q 314 -167 314 -178 q 322 -147 314 -156 q 344 -137 331 -137 z "},"Ɦ":{"ha":881,"x_min":89,"x_max":811,"o":"m 811 946 l 678 0 l 646 0 l 715 488 l 258 488 l 189 0 l 157 0 l 286 918 l 246 918 q 151 883 183 918 q 119 793 119 849 q 125 746 119 765 q 140 703 131 726 l 115 692 q 96 739 103 717 q 89 793 89 761 q 131 903 89 861 q 247 946 172 946 l 322 946 l 261 517 l 719 517 l 779 946 l 811 946 z "},"Ɥ":{"ha":725,"x_min":96,"x_max":654,"o":"m 654 946 l 521 0 l 490 0 l 551 438 q 299 321 439 321 q 151 374 206 321 q 96 519 96 428 q 99 563 96 547 l 151 946 l 183 946 l 131 563 q 128 522 128 535 q 174 396 128 442 q 301 350 221 350 q 441 385 375 350 q 557 481 507 421 l 622 946 l 654 946 z "},"Ƕ":{"ha":1199,"x_min":101,"x_max":1100,"o":"m 786 -14 q 660 34 704 -14 q 617 158 617 82 q 619 201 617 186 l 660 488 l 203 488 l 133 0 l 101 0 l 235 946 l 267 946 l 206 517 l 664 517 l 724 946 l 756 946 l 650 201 q 647 161 647 174 q 683 54 647 93 q 789 15 719 15 q 1008 190 947 15 q 1069 608 1069 364 q 1067 721 1069 649 l 1096 721 q 1100 608 1100 667 q 1032 166 1100 346 q 786 -14 964 -14 z "},"I":{"ha":338,"x_min":101,"x_max":267,"o":"m 267 946 l 133 0 l 101 0 l 235 946 l 267 946 z "},"Ĳ":{"ha":692,"x_min":101,"x_max":628,"o":"m 267 946 l 133 0 l 101 0 l 235 946 l 267 946 m 513 121 q 482 3 501 47 q 423 -74 463 -42 q 310 -139 383 -106 l 301 -115 q 401 -56 367 -85 q 453 15 436 -26 q 481 125 471 57 l 596 946 l 628 946 l 513 121 z "},"Í":{"ha":338,"x_min":101,"x_max":393,"o":"m 267 946 l 133 0 l 101 0 l 235 946 l 267 946 m 379 1194 l 393 1161 l 154 1061 l 144 1082 l 379 1194 z "},"Ĭ":{"ha":338,"x_min":101,"x_max":415,"o":"m 267 946 l 133 0 l 101 0 l 235 946 l 267 946 m 265 1071 q 177 1102 211 1071 q 140 1178 143 1133 l 163 1181 q 196 1122 169 1144 q 265 1100 222 1100 q 342 1122 310 1100 q 392 1182 374 1144 l 415 1175 q 359 1101 399 1131 q 265 1071 319 1071 z "},"Ǐ":{"ha":338,"x_min":101,"x_max":443,"o":"m 267 946 l 133 0 l 101 0 l 235 946 l 267 946 m 429 1197 l 443 1181 l 275 1056 l 258 1056 l 126 1181 l 143 1197 l 269 1089 l 429 1197 z "},"Î":{"ha":338,"x_min":101,"x_max":421,"o":"m 267 946 l 133 0 l 101 0 l 235 946 l 267 946 m 118 1064 l 104 1082 l 272 1207 l 289 1207 l 421 1082 l 404 1064 l 279 1174 l 118 1064 z "},"Ȉ":{"ha":338,"x_min":101,"x_max":344,"o":"m 267 946 l 133 0 l 101 0 l 235 946 l 267 946 m 149 1274 l 213 1092 l 188 1081 l 114 1260 l 149 1274 m 288 1272 l 344 1096 l 319 1086 l 253 1257 l 288 1272 z "},"Ï":{"ha":338,"x_min":101,"x_max":408,"o":"m 267 946 l 133 0 l 101 0 l 235 946 l 267 946 m 171 1110 q 153 1116 160 1110 q 147 1133 147 1122 q 155 1154 147 1146 q 176 1163 163 1163 q 193 1156 186 1163 q 200 1139 200 1150 q 192 1118 200 1126 q 171 1110 183 1110 m 381 1110 q 363 1116 369 1110 q 356 1133 356 1122 q 363 1154 356 1146 q 385 1163 371 1163 q 402 1156 396 1163 q 408 1139 408 1150 q 401 1118 408 1126 q 381 1110 393 1110 z "},"Ḯ":{"ha":338,"x_min":101,"x_max":418,"o":"m 267 946 l 133 0 l 101 0 l 235 946 l 267 946 m 394 1279 l 418 1256 l 265 1100 l 250 1115 l 394 1279 m 156 1032 q 138 1038 144 1032 q 131 1056 131 1044 q 139 1076 131 1068 q 160 1085 147 1085 q 178 1078 171 1085 q 185 1061 185 1072 q 176 1040 185 1049 q 156 1032 168 1032 m 364 1032 q 347 1039 354 1032 q 340 1056 340 1046 q 349 1076 340 1068 q 369 1085 357 1085 q 387 1078 381 1085 q 393 1061 393 1072 q 385 1040 393 1049 q 364 1032 376 1032 z "},"İ":{"ha":338,"x_min":101,"x_max":306,"o":"m 267 946 l 133 0 l 101 0 l 235 946 l 267 946 m 275 1126 q 258 1133 265 1126 q 251 1150 251 1140 q 259 1171 251 1163 q 281 1179 267 1179 q 299 1173 292 1179 q 306 1156 306 1167 q 297 1135 306 1144 q 275 1126 289 1126 z "},"Ị":{"ha":338,"x_min":69,"x_max":267,"o":"m 267 946 l 133 0 l 101 0 l 235 946 l 267 946 m 100 -137 q 117 -144 110 -137 q 124 -161 124 -151 q 116 -182 124 -174 q 94 -190 108 -190 q 76 -184 83 -190 q 69 -167 69 -178 q 78 -147 69 -156 q 100 -137 86 -137 z "},"Ì":{"ha":338,"x_min":101,"x_max":389,"o":"m 267 946 l 133 0 l 101 0 l 235 946 l 267 946 m 188 1193 l 389 1081 l 376 1061 l 168 1161 l 188 1193 z "},"Ỉ":{"ha":338,"x_min":101,"x_max":394,"o":"m 267 946 l 133 0 l 101 0 l 235 946 l 267 946 m 265 1165 q 363 1244 363 1171 q 348 1287 363 1272 q 306 1301 333 1301 q 269 1297 285 1301 q 232 1282 253 1292 l 222 1306 q 307 1329 265 1329 q 371 1306 347 1329 q 394 1244 394 1283 q 367 1176 394 1201 q 293 1144 340 1151 l 286 1086 l 257 1086 l 265 1165 z "},"Ȋ":{"ha":338,"x_min":101,"x_max":407,"o":"m 267 946 l 133 0 l 101 0 l 235 946 l 267 946 m 133 1114 q 190 1199 150 1167 q 283 1232 229 1232 q 372 1199 339 1232 q 407 1111 404 1165 l 383 1108 q 283 1203 372 1203 q 205 1178 238 1203 q 154 1107 172 1153 l 133 1114 z "},"Ī":{"ha":338,"x_min":101,"x_max":410,"o":"m 267 946 l 133 0 l 101 0 l 235 946 l 267 946 m 406 1126 l 144 1126 l 149 1156 l 410 1156 l 406 1126 z "},"Į":{"ha":338,"x_min":-81,"x_max":267,"o":"m 133 0 q -4 -81 40 -40 q -49 -179 -49 -122 q 29 -251 -49 -251 q 99 -242 58 -251 l 92 -272 q 26 -282 54 -282 q -52 -256 -24 -282 q -81 -185 -81 -231 q -35 -77 -81 -121 q 103 8 10 -33 l 235 946 l 267 946 l 133 0 z "},"Ɩ":{"ha":393,"x_min":104,"x_max":328,"o":"m 328 26 q 213 -14 276 -14 q 133 16 161 -14 q 104 101 104 46 q 107 132 104 110 l 125 260 l 221 946 l 253 946 l 156 260 l 139 132 q 136 101 136 110 q 157 36 136 57 q 213 15 178 15 q 313 49 267 15 l 328 26 z "},"Ɨ":{"ha":399,"x_min":64,"x_max":375,"o":"m 375 515 l 371 486 l 236 486 l 168 0 l 136 0 l 204 486 l 64 486 l 68 515 l 208 515 l 269 946 l 301 946 l 240 515 l 375 515 z "},"Ĩ":{"ha":338,"x_min":101,"x_max":451,"o":"m 267 946 l 133 0 l 101 0 l 235 946 l 267 946 m 351 1117 q 313 1125 331 1117 q 272 1149 294 1133 q 238 1170 250 1164 q 210 1176 225 1176 q 171 1165 188 1176 q 129 1126 154 1154 l 111 1140 q 210 1204 163 1204 q 244 1197 228 1204 q 282 1174 260 1189 q 319 1152 303 1160 q 351 1144 335 1144 q 390 1158 372 1144 q 432 1201 408 1171 l 451 1189 q 351 1117 404 1117 z "},"J":{"ha":354,"x_min":-36,"x_max":290,"o":"m 175 121 q 144 3 164 47 q 85 -74 125 -42 q -28 -139 46 -106 l -36 -115 q 64 -56 29 -85 q 116 15 99 -26 q 143 125 133 57 l 258 946 l 290 946 l 175 121 z "},"Ĵ":{"ha":354,"x_min":-36,"x_max":443,"o":"m 175 121 q 144 3 164 47 q 85 -74 125 -42 q -28 -139 46 -106 l -36 -115 q 64 -56 29 -85 q 116 15 99 -26 q 143 125 133 57 l 258 946 l 290 946 l 175 121 m 140 1064 l 126 1082 l 294 1207 l 311 1207 l 443 1082 l 426 1064 l 301 1174 l 140 1064 z "},"Ʝ":{"ha":367,"x_min":-156,"x_max":301,"o":"m 161 -40 q 272 -87 208 -56 l 258 -111 q 157 -68 208 -82 q 95 -219 142 -165 q -33 -274 49 -274 q -124 -243 -92 -274 q -156 -162 -156 -212 q -108 -60 -156 -99 q 15 -22 -61 -22 q 131 -35 81 -22 l 269 946 l 301 946 l 161 -40 m -32 -246 q 75 -201 38 -246 q 126 -62 113 -156 q 14 -50 69 -50 q -90 -80 -53 -50 q -126 -162 -126 -110 q -102 -224 -126 -201 q -32 -246 -78 -246 z "},"Ɉ":{"ha":381,"x_min":-33,"x_max":367,"o":"m 363 461 l 225 461 l 178 121 q 147 3 167 47 q 88 -74 128 -42 q -25 -139 49 -106 l -33 -115 q 67 -56 32 -85 q 119 15 101 -26 q 146 125 136 57 l 193 461 l 56 461 l 60 490 l 197 490 l 261 946 l 293 946 l 229 490 l 367 490 l 363 461 z "},"K":{"ha":647,"x_min":101,"x_max":699,"o":"m 101 0 l 235 946 l 267 946 l 133 0 l 101 0 m 549 0 l 208 510 l 661 946 l 699 946 l 246 507 l 585 0 l 549 0 z "},"Ǩ":{"ha":647,"x_min":101,"x_max":699,"o":"m 101 0 l 235 946 l 267 946 l 133 0 l 101 0 m 549 0 l 208 510 l 661 946 l 699 946 l 246 507 l 585 0 l 549 0 m 622 1197 l 636 1181 l 468 1056 l 451 1056 l 319 1181 l 336 1197 l 463 1089 l 622 1197 z "},"Ķ":{"ha":647,"x_min":101,"x_max":699,"o":"m 101 0 l 235 946 l 267 946 l 133 0 l 101 0 m 549 0 l 208 510 l 661 946 l 699 946 l 246 507 l 585 0 l 549 0 m 307 -133 q 329 -142 321 -133 q 338 -162 338 -150 q 332 -187 338 -174 q 317 -218 326 -200 l 249 -358 l 228 -358 l 290 -197 q 272 -168 272 -187 q 282 -143 272 -153 q 307 -133 292 -133 z "},"Ƙ":{"ha":690,"x_min":101,"x_max":757,"o":"m 208 510 l 513 867 q 590 940 558 921 q 660 960 621 960 q 757 911 717 960 l 738 893 q 702 922 719 913 q 658 932 685 932 q 603 915 628 932 q 532 844 578 899 l 246 510 l 585 0 l 549 0 l 208 510 m 101 0 l 235 946 l 267 946 l 133 0 l 101 0 z "},"L":{"ha":563,"x_min":101,"x_max":499,"o":"m 267 946 l 138 31 l 499 31 l 488 0 l 101 0 l 235 946 l 267 946 z "},"Ǉ":{"ha":896,"x_min":101,"x_max":832,"o":"m 267 946 l 138 31 l 499 31 l 488 0 l 101 0 l 235 946 l 267 946 m 717 121 q 686 3 706 47 q 627 -74 667 -42 q 514 -139 588 -106 l 506 -115 q 606 -56 571 -85 q 658 15 640 -26 q 685 125 675 57 l 800 946 l 832 946 l 717 121 z "},"Ĺ":{"ha":563,"x_min":101,"x_max":499,"o":"m 267 946 l 138 31 l 499 31 l 488 0 l 101 0 l 235 946 l 267 946 m 379 1194 l 393 1161 l 154 1061 l 144 1082 l 379 1194 z "},"Ƚ":{"ha":592,"x_min":64,"x_max":528,"o":"m 167 31 l 528 31 l 517 0 l 131 0 l 200 489 l 64 489 l 68 518 l 204 518 l 264 946 l 296 946 l 236 518 l 375 518 l 371 489 l 232 489 l 167 31 z "},"Ɬ":{"ha":596,"x_min":56,"x_max":531,"o":"m 531 31 l 519 0 l 133 0 l 188 388 q 91 415 126 388 q 56 494 56 443 q 92 583 56 550 q 185 615 129 615 q 219 613 203 615 l 267 946 l 299 946 l 224 415 q 364 432 293 417 l 367 406 q 221 388 292 389 l 219 388 l 169 31 l 531 31 m 86 496 q 192 415 86 415 l 217 586 q 182 589 197 589 q 113 564 139 589 q 86 496 86 539 z "},"Ľ":{"ha":563,"x_min":101,"x_max":499,"o":"m 267 946 l 138 31 l 499 31 l 488 0 l 101 0 l 235 946 l 267 946 m 397 953 l 429 950 l 367 749 l 346 753 l 397 953 z "},"Ḽ":{"ha":563,"x_min":101,"x_max":499,"o":"m 267 946 l 138 31 l 499 31 l 488 0 l 101 0 l 235 946 l 267 946 m 121 -256 l 106 -236 l 275 -104 l 292 -104 l 422 -236 l 407 -256 l 279 -137 l 121 -256 z "},"Ļ":{"ha":563,"x_min":101,"x_max":499,"o":"m 267 946 l 138 31 l 499 31 l 488 0 l 101 0 l 235 946 l 267 946 m 282 -133 q 304 -142 296 -133 q 313 -162 313 -150 q 307 -187 313 -174 q 292 -218 301 -200 l 224 -358 l 203 -358 l 265 -197 q 247 -168 247 -187 q 257 -143 247 -153 q 282 -133 267 -133 z "},"Ŀ":{"ha":563,"x_min":101,"x_max":499,"o":"m 267 946 l 138 31 l 499 31 l 488 0 l 101 0 l 235 946 l 267 946 m 456 465 q 439 472 446 465 q 432 489 432 479 q 440 510 432 501 q 461 518 447 518 q 479 512 472 518 q 486 494 486 506 q 478 474 486 483 q 456 465 469 465 z "},"Ḷ":{"ha":563,"x_min":101,"x_max":499,"o":"m 267 946 l 138 31 l 499 31 l 488 0 l 101 0 l 235 946 l 267 946 m 276 -137 q 293 -144 286 -137 q 300 -161 300 -151 q 292 -182 300 -174 q 271 -190 285 -190 q 253 -184 260 -190 q 246 -167 246 -178 q 254 -147 246 -156 q 276 -137 263 -137 z "},"ǈ":{"ha":867,"x_min":101,"x_max":819,"o":"m 267 946 l 138 31 l 499 31 l 488 0 l 101 0 l 235 946 l 267 946 m 479 -247 q 560 -192 531 -219 q 609 -120 590 -165 q 639 3 628 -75 l 740 721 l 771 721 l 669 1 q 636 -131 658 -82 q 581 -210 614 -181 q 489 -271 547 -240 l 479 -247 m 789 951 q 772 958 779 951 q 765 975 765 965 q 773 996 765 988 q 794 1004 781 1004 q 813 998 806 1004 q 819 981 819 992 q 811 960 819 969 q 789 951 803 951 z "},"Ł":{"ha":582,"x_min":68,"x_max":518,"o":"m 157 31 l 518 31 l 507 0 l 121 0 l 181 428 l 82 364 l 68 388 l 186 463 l 254 946 l 286 946 l 221 483 l 489 653 l 503 629 l 217 449 l 157 31 z "},"M":{"ha":954,"x_min":47,"x_max":846,"o":"m 806 0 l 776 0 l 796 481 q 817 921 807 779 l 458 117 l 426 117 l 292 919 l 206 547 q 192 490 201 533 l 78 0 l 47 0 l 271 946 l 315 946 l 447 153 l 797 946 l 846 946 l 806 0 z "},"Ḿ":{"ha":954,"x_min":47,"x_max":846,"o":"m 806 0 l 776 0 l 796 481 q 817 921 807 779 l 458 117 l 426 117 l 292 919 l 206 547 q 192 490 201 533 l 78 0 l 47 0 l 271 946 l 315 946 l 447 153 l 797 946 l 846 946 l 806 0 m 685 1194 l 699 1161 l 460 1061 l 450 1082 l 685 1194 z "},"Ṁ":{"ha":954,"x_min":47,"x_max":846,"o":"m 806 0 l 776 0 l 796 481 q 817 921 807 779 l 458 117 l 426 117 l 292 919 l 206 547 q 192 490 201 533 l 78 0 l 47 0 l 271 946 l 315 946 l 447 153 l 797 946 l 846 946 l 806 0 m 581 1126 q 564 1133 571 1126 q 557 1150 557 1140 q 565 1171 557 1163 q 586 1179 572 1179 q 604 1173 597 1179 q 611 1156 611 1167 q 603 1135 611 1144 q 581 1126 594 1126 z "},"Ɯ":{"ha":1153,"x_min":117,"x_max":1082,"o":"m 1082 946 l 949 0 l 922 0 l 940 151 q 828 31 890 75 q 694 -14 765 -14 q 577 30 619 -14 q 532 157 535 74 q 279 -14 421 -14 q 159 33 201 -14 q 117 169 117 81 q 121 231 117 197 l 221 946 l 253 946 l 151 224 q 147 168 147 194 q 181 54 147 93 q 279 15 215 15 q 415 64 353 15 q 533 200 476 113 q 536 231 533 211 l 635 946 l 667 946 l 567 224 q 563 168 563 194 q 597 54 563 93 q 694 15 631 15 q 946 200 831 15 l 1050 946 l 1082 946 z "},"N":{"ha":828,"x_min":101,"x_max":757,"o":"m 624 0 l 585 0 l 256 914 q 225 661 250 833 l 132 0 l 101 0 l 235 946 l 275 946 l 603 35 q 635 285 622 193 l 726 946 l 757 946 l 624 0 z "},"Ǌ":{"ha":1182,"x_min":101,"x_max":1118,"o":"m 624 0 l 585 0 l 256 914 q 225 661 250 833 l 132 0 l 101 0 l 235 946 l 275 946 l 603 35 q 635 285 622 193 l 726 946 l 757 946 l 624 0 m 1003 121 q 972 3 992 47 q 913 -74 953 -42 q 800 -139 874 -106 l 792 -115 q 892 -56 857 -85 q 944 15 926 -26 q 971 125 961 57 l 1086 946 l 1118 946 l 1003 121 z "},"Ń":{"ha":828,"x_min":101,"x_max":757,"o":"m 624 0 l 585 0 l 256 914 q 225 661 250 833 l 132 0 l 101 0 l 235 946 l 275 946 l 603 35 q 635 285 622 193 l 726 946 l 757 946 l 624 0 m 631 1194 l 644 1161 l 406 1061 l 396 1082 l 631 1194 z "},"Ň":{"ha":828,"x_min":101,"x_max":757,"o":"m 624 0 l 585 0 l 256 914 q 225 661 250 833 l 132 0 l 101 0 l 235 946 l 275 946 l 603 35 q 635 285 622 193 l 726 946 l 757 946 l 624 0 m 681 1197 l 694 1181 l 526 1056 l 510 1056 l 378 1181 l 394 1197 l 521 1089 l 681 1197 z "},"Ṋ":{"ha":828,"x_min":101,"x_max":757,"o":"m 624 0 l 585 0 l 256 914 q 225 661 250 833 l 132 0 l 101 0 l 235 946 l 275 946 l 603 35 q 635 285 622 193 l 726 946 l 757 946 l 624 0 m 188 -256 l 172 -236 l 342 -104 l 358 -104 l 489 -236 l 474 -256 l 346 -137 l 188 -256 z "},"Ņ":{"ha":828,"x_min":101,"x_max":757,"o":"m 624 0 l 585 0 l 256 914 q 225 661 250 833 l 132 0 l 101 0 l 235 946 l 275 946 l 603 35 q 635 285 622 193 l 726 946 l 757 946 l 624 0 m 349 -133 q 371 -142 363 -133 q 379 -162 379 -150 q 374 -187 379 -174 q 358 -218 368 -200 l 290 -358 l 269 -358 l 332 -197 q 314 -168 314 -187 q 324 -143 314 -153 q 349 -133 333 -133 z "},"Ṅ":{"ha":828,"x_min":101,"x_max":757,"o":"m 624 0 l 585 0 l 256 914 q 225 661 250 833 l 132 0 l 101 0 l 235 946 l 275 946 l 603 35 q 635 285 622 193 l 726 946 l 757 946 l 624 0 m 526 1126 q 510 1133 517 1126 q 503 1150 503 1140 q 510 1171 503 1163 q 532 1179 518 1179 q 550 1173 543 1179 q 557 1156 557 1167 q 549 1135 557 1144 q 526 1126 540 1126 z "},"Ṇ":{"ha":828,"x_min":101,"x_max":757,"o":"m 624 0 l 585 0 l 256 914 q 225 661 250 833 l 132 0 l 101 0 l 235 946 l 275 946 l 603 35 q 635 285 622 193 l 726 946 l 757 946 l 624 0 m 343 -137 q 360 -144 353 -137 q 367 -161 367 -151 q 359 -182 367 -174 q 338 -190 351 -190 q 319 -184 326 -190 q 313 -167 313 -178 q 321 -147 313 -156 q 343 -137 329 -137 z "},"Ǹ":{"ha":828,"x_min":101,"x_max":757,"o":"m 624 0 l 585 0 l 256 914 q 225 661 250 833 l 132 0 l 101 0 l 235 946 l 275 946 l 603 35 q 635 285 622 193 l 726 946 l 757 946 l 624 0 m 439 1193 l 640 1081 l 628 1061 l 419 1161 l 439 1193 z "},"Ŋ":{"ha":828,"x_min":101,"x_max":757,"o":"m 757 946 l 624 0 l 622 0 l 604 -129 q 556 -237 594 -200 q 460 -274 517 -274 q 354 -231 397 -274 l 371 -211 q 410 -236 390 -228 q 460 -244 429 -244 q 534 -215 503 -244 q 574 -125 565 -186 l 592 0 l 585 0 l 256 914 q 225 661 250 833 l 132 0 l 101 0 l 235 946 l 275 946 l 603 35 q 635 285 622 193 l 726 946 l 757 946 z "},"Ɲ":{"ha":828,"x_min":-136,"x_max":757,"o":"m 757 946 l 624 0 l 585 0 l 256 914 q 225 661 250 833 l 132 0 l 114 -129 q 65 -237 104 -200 q -29 -274 26 -274 q -136 -231 -90 -274 l -118 -211 q -79 -236 -99 -228 q -29 -244 -60 -244 q 44 -215 14 -244 q 83 -125 75 -186 l 101 0 l 235 946 l 275 946 l 603 35 q 635 285 622 193 l 726 946 l 757 946 z "},"ǋ":{"ha":1153,"x_min":101,"x_max":1106,"o":"m 624 0 l 585 0 l 256 914 q 225 661 250 833 l 132 0 l 101 0 l 235 946 l 275 946 l 603 35 q 635 285 622 193 l 726 946 l 757 946 l 624 0 m 765 -247 q 847 -192 817 -219 q 895 -120 876 -165 q 925 3 914 -75 l 1026 721 l 1057 721 l 956 1 q 922 -131 944 -82 q 867 -210 900 -181 q 775 -271 833 -240 l 765 -247 m 1075 951 q 1058 958 1065 951 q 1051 975 1051 965 q 1059 996 1051 988 q 1081 1004 1067 1004 q 1099 998 1092 1004 q 1106 981 1106 992 q 1097 960 1106 969 q 1075 951 1089 951 z "},"Ƞ":{"ha":814,"x_min":101,"x_max":721,"o":"m 539 960 q 674 910 626 960 q 721 767 721 860 q 717 706 721 739 l 581 -267 l 549 -267 l 686 703 q 690 761 690 735 q 651 888 690 846 q 538 931 611 931 q 378 883 451 931 q 239 751 306 835 l 133 0 l 101 0 l 235 946 l 263 946 l 244 796 q 539 960 379 960 z "},"Ñ":{"ha":828,"x_min":101,"x_max":757,"o":"m 624 0 l 585 0 l 256 914 q 225 661 250 833 l 132 0 l 101 0 l 235 946 l 275 946 l 603 35 q 635 285 622 193 l 726 946 l 757 946 l 624 0 m 603 1117 q 564 1125 582 1117 q 524 1149 546 1133 q 489 1170 501 1164 q 461 1176 476 1176 q 422 1165 439 1176 q 381 1126 406 1154 l 363 1140 q 461 1204 414 1204 q 495 1197 479 1204 q 533 1174 511 1189 q 570 1152 554 1160 q 603 1144 586 1144 q 642 1158 624 1144 q 683 1201 660 1171 l 703 1189 q 603 1117 656 1117 z "},"O":{"ha":865,"x_min":101,"x_max":796,"o":"m 522 960 q 724 871 651 960 q 796 615 796 782 q 753 329 796 474 q 617 85 711 185 q 375 -14 522 -14 q 174 77 246 -14 q 101 335 101 168 q 145 617 101 472 q 284 860 189 761 q 522 960 379 960 m 522 932 q 301 836 388 932 q 174 602 214 740 q 135 333 135 464 q 198 98 135 179 q 375 17 261 17 q 602 113 515 17 q 726 347 689 210 q 764 615 764 485 q 701 851 764 769 q 522 932 638 932 z "},"Ȣ":{"ha":788,"x_min":81,"x_max":715,"o":"m 689 757 q 633 608 676 667 q 508 529 590 550 q 637 451 593 508 q 681 310 681 394 q 638 139 681 213 q 518 26 594 65 q 343 -14 442 -14 q 148 50 215 -14 q 81 218 81 114 q 148 422 81 339 q 328 531 215 506 q 210 701 210 565 q 214 758 210 728 l 240 946 l 271 946 l 244 757 q 240 703 240 728 q 284 582 240 621 q 418 543 328 543 q 588 600 533 543 q 657 758 643 657 l 685 946 l 715 946 l 689 757 m 649 310 q 590 460 649 406 q 417 514 532 514 q 258 477 326 514 q 151 373 189 440 q 113 218 113 306 q 171 71 113 125 q 343 17 229 17 q 565 95 482 17 q 649 310 649 174 z "},"Ó":{"ha":865,"x_min":101,"x_max":796,"o":"m 522 960 q 724 871 651 960 q 796 615 796 782 q 753 329 796 474 q 617 85 711 185 q 375 -14 522 -14 q 174 77 246 -14 q 101 335 101 168 q 145 617 101 472 q 284 860 189 761 q 522 960 379 960 m 522 932 q 301 836 388 932 q 174 602 214 740 q 135 333 135 464 q 198 98 135 179 q 375 17 261 17 q 602 113 515 17 q 726 347 689 210 q 764 615 764 485 q 701 851 764 769 q 522 932 638 932 m 650 1194 l 664 1161 l 425 1061 l 415 1082 l 650 1194 z "},"Ŏ":{"ha":865,"x_min":101,"x_max":796,"o":"m 522 960 q 724 871 651 960 q 796 615 796 782 q 753 329 796 474 q 617 85 711 185 q 375 -14 522 -14 q 174 77 246 -14 q 101 335 101 168 q 145 617 101 472 q 284 860 189 761 q 522 960 379 960 m 522 932 q 301 836 388 932 q 174 602 214 740 q 135 333 135 464 q 198 98 135 179 q 375 17 261 17 q 602 113 515 17 q 726 347 689 210 q 764 615 764 485 q 701 851 764 769 q 522 932 638 932 m 536 1071 q 448 1102 482 1071 q 411 1178 414 1133 l 433 1181 q 467 1122 440 1144 q 536 1100 493 1100 q 613 1122 581 1100 q 663 1182 644 1144 l 686 1175 q 630 1101 669 1131 q 536 1071 590 1071 z "},"Ǒ":{"ha":865,"x_min":101,"x_max":796,"o":"m 522 960 q 724 871 651 960 q 796 615 796 782 q 753 329 796 474 q 617 85 711 185 q 375 -14 522 -14 q 174 77 246 -14 q 101 335 101 168 q 145 617 101 472 q 284 860 189 761 q 522 960 379 960 m 522 932 q 301 836 388 932 q 174 602 214 740 q 135 333 135 464 q 198 98 135 179 q 375 17 261 17 q 602 113 515 17 q 726 347 689 210 q 764 615 764 485 q 701 851 764 769 q 522 932 638 932 m 700 1197 l 714 1181 l 546 1056 l 529 1056 l 397 1181 l 414 1197 l 540 1089 l 700 1197 z "},"Ɵ":{"ha":865,"x_min":101,"x_max":796,"o":"m 522 960 q 724 871 651 960 q 796 615 796 782 q 753 329 796 474 q 617 85 711 185 q 375 -14 522 -14 q 174 77 246 -14 q 101 335 101 168 q 145 617 101 472 q 284 860 189 761 q 522 960 379 960 m 522 932 q 274 805 367 932 q 150 496 182 678 l 757 496 q 764 615 764 565 q 701 851 764 769 q 522 932 638 932 m 375 17 q 633 149 540 17 q 753 468 725 281 l 144 468 q 135 333 135 401 q 198 98 135 179 q 375 17 261 17 z "},"Ô":{"ha":865,"x_min":101,"x_max":796,"o":"m 522 960 q 724 871 651 960 q 796 615 796 782 q 753 329 796 474 q 617 85 711 185 q 375 -14 522 -14 q 174 77 246 -14 q 101 335 101 168 q 145 617 101 472 q 284 860 189 761 q 522 960 379 960 m 522 932 q 301 836 388 932 q 174 602 214 740 q 135 333 135 464 q 198 98 135 179 q 375 17 261 17 q 602 113 515 17 q 726 347 689 210 q 764 615 764 485 q 701 851 764 769 q 522 932 638 932 m 389 1064 l 375 1082 l 543 1207 l 560 1207 l 692 1082 l 675 1064 l 550 1174 l 389 1064 z "},"Ố":{"ha":865,"x_min":101,"x_max":803,"o":"m 779 1324 l 803 1300 l 650 1144 l 635 1160 l 779 1324 m 386 1024 l 372 1042 l 540 1167 l 557 1167 l 689 1042 l 672 1024 l 547 1133 l 386 1024 m 522 960 q 724 871 651 960 q 796 615 796 782 q 753 329 796 474 q 617 85 711 185 q 375 -14 522 -14 q 174 77 246 -14 q 101 335 101 168 q 145 617 101 472 q 284 860 189 761 q 522 960 379 960 m 522 932 q 301 836 388 932 q 174 602 214 740 q 135 333 135 464 q 198 98 135 179 q 375 17 261 17 q 602 113 515 17 q 726 347 689 210 q 764 615 764 485 q 701 851 764 769 q 522 932 638 932 z "},"Ộ":{"ha":865,"x_min":101,"x_max":796,"o":"m 522 960 q 724 871 651 960 q 796 615 796 782 q 753 329 796 474 q 617 85 711 185 q 375 -14 522 -14 q 174 77 246 -14 q 101 335 101 168 q 145 617 101 472 q 284 860 189 761 q 522 960 379 960 m 522 932 q 301 836 388 932 q 174 602 214 740 q 135 333 135 464 q 198 98 135 179 q 375 17 261 17 q 602 113 515 17 q 726 347 689 210 q 764 615 764 485 q 701 851 764 769 q 522 932 638 932 m 389 1064 l 375 1082 l 543 1207 l 560 1207 l 692 1082 l 675 1064 l 550 1174 l 389 1064 m 357 -137 q 374 -144 367 -137 q 381 -161 381 -151 q 373 -182 381 -174 q 351 -190 365 -190 q 333 -184 340 -190 q 326 -167 326 -178 q 335 -147 326 -156 q 357 -137 343 -137 z "},"Ồ":{"ha":865,"x_min":101,"x_max":796,"o":"m 347 1324 l 446 1157 l 428 1144 l 318 1304 l 347 1324 m 383 1024 l 369 1042 l 538 1167 l 554 1167 l 686 1042 l 669 1024 l 544 1133 l 383 1024 m 522 960 q 724 871 651 960 q 796 615 796 782 q 753 329 796 474 q 617 85 711 185 q 375 -14 522 -14 q 174 77 246 -14 q 101 335 101 168 q 145 617 101 472 q 284 860 189 761 q 522 960 379 960 m 522 932 q 301 836 388 932 q 174 602 214 740 q 135 333 135 464 q 198 98 135 179 q 375 17 261 17 q 602 113 515 17 q 726 347 689 210 q 764 615 764 485 q 701 851 764 769 q 522 932 638 932 z "},"Ổ":{"ha":865,"x_min":101,"x_max":796,"o":"m 522 960 q 724 871 651 960 q 796 615 796 782 q 753 329 796 474 q 617 85 711 185 q 375 -14 522 -14 q 174 77 246 -14 q 101 335 101 168 q 145 617 101 472 q 284 860 189 761 q 522 960 379 960 m 522 932 q 301 836 388 932 q 174 602 214 740 q 135 333 135 464 q 198 98 135 179 q 375 17 261 17 q 602 113 515 17 q 726 347 689 210 q 764 615 764 485 q 701 851 764 769 q 522 932 638 932 m 385 1024 l 371 1042 l 539 1167 l 556 1167 l 688 1042 l 671 1024 l 546 1133 l 385 1024 m 664 1196 q 761 1275 761 1201 q 747 1317 761 1303 q 704 1332 732 1332 q 667 1327 683 1332 q 631 1313 651 1322 l 621 1336 q 706 1360 664 1360 q 769 1337 746 1360 q 793 1275 793 1314 q 766 1207 793 1232 q 692 1175 739 1182 l 685 1117 l 656 1117 l 664 1196 z "},"Ỗ":{"ha":865,"x_min":101,"x_max":796,"o":"m 626 1221 q 588 1229 606 1221 q 547 1253 569 1238 q 513 1274 525 1268 q 485 1281 500 1281 q 446 1269 463 1281 q 404 1231 429 1258 l 386 1244 q 485 1308 438 1308 q 519 1301 503 1308 q 557 1278 535 1293 q 594 1256 578 1264 q 626 1249 610 1249 q 665 1262 647 1249 q 707 1306 683 1275 l 726 1293 q 626 1221 679 1221 m 382 1024 l 368 1042 l 536 1167 l 553 1167 l 685 1042 l 668 1024 l 543 1133 l 382 1024 m 522 960 q 724 871 651 960 q 796 615 796 782 q 753 329 796 474 q 617 85 711 185 q 375 -14 522 -14 q 174 77 246 -14 q 101 335 101 168 q 145 617 101 472 q 284 860 189 761 q 522 960 379 960 m 522 932 q 301 836 388 932 q 174 602 214 740 q 135 333 135 464 q 198 98 135 179 q 375 17 261 17 q 602 113 515 17 q 726 347 689 210 q 764 615 764 485 q 701 851 764 769 q 522 932 638 932 z "},"Ȍ":{"ha":865,"x_min":101,"x_max":796,"o":"m 522 960 q 724 871 651 960 q 796 615 796 782 q 753 329 796 474 q 617 85 711 185 q 375 -14 522 -14 q 174 77 246 -14 q 101 335 101 168 q 145 617 101 472 q 284 860 189 761 q 522 960 379 960 m 522 932 q 301 836 388 932 q 174 602 214 740 q 135 333 135 464 q 198 98 135 179 q 375 17 261 17 q 602 113 515 17 q 726 347 689 210 q 764 615 764 485 q 701 851 764 769 q 522 932 638 932 m 419 1274 l 483 1092 l 458 1081 l 385 1260 l 419 1274 m 558 1272 l 615 1096 l 590 1086 l 524 1257 l 558 1272 z "},"Ö":{"ha":865,"x_min":101,"x_max":796,"o":"m 522 960 q 724 871 651 960 q 796 615 796 782 q 753 329 796 474 q 617 85 711 185 q 375 -14 522 -14 q 174 77 246 -14 q 101 335 101 168 q 145 617 101 472 q 284 860 189 761 q 522 960 379 960 m 522 932 q 301 836 388 932 q 174 602 214 740 q 135 333 135 464 q 198 98 135 179 q 375 17 261 17 q 602 113 515 17 q 726 347 689 210 q 764 615 764 485 q 701 851 764 769 q 522 932 638 932 m 442 1110 q 424 1116 431 1110 q 418 1133 418 1122 q 426 1154 418 1146 q 447 1163 433 1163 q 464 1156 457 1163 q 471 1139 471 1150 q 463 1118 471 1126 q 442 1110 454 1110 m 651 1110 q 633 1116 640 1110 q 626 1133 626 1122 q 634 1154 626 1146 q 656 1163 642 1163 q 673 1156 667 1163 q 679 1139 679 1150 q 672 1118 679 1126 q 651 1110 664 1110 z "},"Ȫ":{"ha":865,"x_min":101,"x_max":796,"o":"m 522 960 q 724 871 651 960 q 796 615 796 782 q 753 329 796 474 q 617 85 711 185 q 375 -14 522 -14 q 174 77 246 -14 q 101 335 101 168 q 145 617 101 472 q 284 860 189 761 q 522 960 379 960 m 522 932 q 301 836 388 932 q 174 602 214 740 q 135 333 135 464 q 198 98 135 179 q 375 17 261 17 q 602 113 515 17 q 726 347 689 210 q 764 615 764 485 q 701 851 764 769 q 522 932 638 932 m 426 1031 q 409 1037 415 1031 q 403 1054 403 1043 q 410 1075 403 1067 q 432 1083 418 1083 q 449 1077 442 1083 q 456 1060 456 1071 q 447 1039 456 1047 q 426 1031 439 1031 m 636 1031 q 618 1037 625 1031 q 611 1054 611 1043 q 619 1075 611 1067 q 640 1083 626 1083 q 658 1077 651 1083 q 664 1060 664 1071 q 656 1039 664 1047 q 636 1031 649 1031 m 676 1181 l 415 1181 l 419 1210 l 681 1210 l 676 1181 z "},"Ȯ":{"ha":865,"x_min":101,"x_max":796,"o":"m 522 960 q 724 871 651 960 q 796 615 796 782 q 753 329 796 474 q 617 85 711 185 q 375 -14 522 -14 q 174 77 246 -14 q 101 335 101 168 q 145 617 101 472 q 284 860 189 761 q 522 960 379 960 m 522 932 q 301 836 388 932 q 174 602 214 740 q 135 333 135 464 q 198 98 135 179 q 375 17 261 17 q 602 113 515 17 q 726 347 689 210 q 764 615 764 485 q 701 851 764 769 q 522 932 638 932 m 546 1126 q 529 1133 536 1126 q 522 1150 522 1140 q 530 1171 522 1163 q 551 1179 538 1179 q 569 1173 563 1179 q 576 1156 576 1167 q 568 1135 576 1144 q 546 1126 560 1126 z "},"Ȱ":{"ha":865,"x_min":101,"x_max":796,"o":"m 522 960 q 724 871 651 960 q 796 615 796 782 q 753 329 796 474 q 617 85 711 185 q 375 -14 522 -14 q 174 77 246 -14 q 101 335 101 168 q 145 617 101 472 q 284 860 189 761 q 522 960 379 960 m 522 932 q 301 836 388 932 q 174 602 214 740 q 135 333 135 464 q 198 98 135 179 q 375 17 261 17 q 602 113 515 17 q 726 347 689 210 q 764 615 764 485 q 701 851 764 769 q 522 932 638 932 m 531 1038 q 514 1044 521 1038 q 507 1061 507 1051 q 515 1082 507 1074 q 536 1090 522 1090 q 554 1084 547 1090 q 561 1067 561 1078 q 553 1047 561 1056 q 531 1038 544 1038 m 678 1179 l 417 1179 l 421 1208 l 682 1208 l 678 1179 z "},"Ọ":{"ha":865,"x_min":101,"x_max":796,"o":"m 522 960 q 724 871 651 960 q 796 615 796 782 q 753 329 796 474 q 617 85 711 185 q 375 -14 522 -14 q 174 77 246 -14 q 101 335 101 168 q 145 617 101 472 q 284 860 189 761 q 522 960 379 960 m 522 932 q 301 836 388 932 q 174 602 214 740 q 135 333 135 464 q 198 98 135 179 q 375 17 261 17 q 602 113 515 17 q 726 347 689 210 q 764 615 764 485 q 701 851 764 769 q 522 932 638 932 m 357 -137 q 374 -144 367 -137 q 381 -161 381 -151 q 373 -182 381 -174 q 351 -190 365 -190 q 333 -184 340 -190 q 326 -167 326 -178 q 335 -147 326 -156 q 357 -137 343 -137 z "},"Ò":{"ha":865,"x_min":101,"x_max":796,"o":"m 522 960 q 724 871 651 960 q 796 615 796 782 q 753 329 796 474 q 617 85 711 185 q 375 -14 522 -14 q 174 77 246 -14 q 101 335 101 168 q 145 617 101 472 q 284 860 189 761 q 522 960 379 960 m 522 932 q 301 836 388 932 q 174 602 214 740 q 135 333 135 464 q 198 98 135 179 q 375 17 261 17 q 602 113 515 17 q 726 347 689 210 q 764 615 764 485 q 701 851 764 769 q 522 932 638 932 m 458 1193 l 660 1081 l 647 1061 l 439 1161 l 458 1193 z "},"Ỏ":{"ha":865,"x_min":101,"x_max":796,"o":"m 522 960 q 724 871 651 960 q 796 615 796 782 q 753 329 796 474 q 617 85 711 185 q 375 -14 522 -14 q 174 77 246 -14 q 101 335 101 168 q 145 617 101 472 q 284 860 189 761 q 522 960 379 960 m 522 932 q 301 836 388 932 q 174 602 214 740 q 135 333 135 464 q 198 98 135 179 q 375 17 261 17 q 602 113 515 17 q 726 347 689 210 q 764 615 764 485 q 701 851 764 769 q 522 932 638 932 m 536 1165 q 633 1244 633 1171 q 619 1287 633 1272 q 576 1301 604 1301 q 540 1297 556 1301 q 503 1282 524 1292 l 493 1306 q 578 1329 536 1329 q 642 1306 618 1329 q 665 1244 665 1283 q 638 1176 665 1201 q 564 1144 611 1151 l 557 1086 l 528 1086 l 536 1165 z "},"Ơ":{"ha":865,"x_min":101,"x_max":847,"o":"m 847 983 q 822 892 847 925 q 740 847 796 858 q 796 615 796 761 q 753 329 796 474 q 617 85 711 185 q 375 -14 522 -14 q 174 77 246 -14 q 101 335 101 168 q 145 617 101 472 q 284 860 189 761 q 522 960 379 960 q 726 868 656 960 q 799 906 778 878 q 819 985 819 933 q 810 1054 819 1029 l 835 1061 q 847 983 847 1021 m 375 17 q 602 113 515 17 q 726 347 689 210 q 764 615 764 485 q 701 851 764 769 q 522 932 638 932 q 301 836 388 932 q 174 602 214 740 q 135 333 135 464 q 198 98 135 179 q 375 17 261 17 z "},"Ớ":{"ha":865,"x_min":101,"x_max":847,"o":"m 664 1161 l 425 1061 l 415 1082 l 650 1194 l 664 1161 m 847 983 q 822 892 847 925 q 740 847 796 858 q 796 615 796 761 q 753 329 796 474 q 617 85 711 185 q 375 -14 522 -14 q 174 77 246 -14 q 101 335 101 168 q 145 617 101 472 q 284 860 189 761 q 522 960 379 960 q 726 868 656 960 q 799 906 778 878 q 819 985 819 933 q 810 1054 819 1029 l 835 1061 q 847 983 847 1021 m 375 17 q 602 113 515 17 q 726 347 689 210 q 764 615 764 485 q 701 851 764 769 q 522 932 638 932 q 301 836 388 932 q 174 602 214 740 q 135 333 135 464 q 198 98 135 179 q 375 17 261 17 z "},"Ợ":{"ha":865,"x_min":101,"x_max":847,"o":"m 847 983 q 822 892 847 925 q 740 847 796 858 q 796 615 796 761 q 753 329 796 474 q 617 85 711 185 q 375 -14 522 -14 q 174 77 246 -14 q 101 335 101 168 q 145 617 101 472 q 284 860 189 761 q 522 960 379 960 q 726 868 656 960 q 799 906 778 878 q 819 985 819 933 q 810 1054 819 1029 l 835 1061 q 847 983 847 1021 m 375 17 q 602 113 515 17 q 726 347 689 210 q 764 615 764 485 q 701 851 764 769 q 522 932 638 932 q 301 836 388 932 q 174 602 214 740 q 135 333 135 464 q 198 98 135 179 q 375 17 261 17 m 357 -137 q 374 -144 368 -137 q 381 -161 381 -151 q 373 -182 381 -174 q 351 -190 365 -190 q 333 -184 340 -190 q 326 -167 326 -178 q 335 -147 326 -156 q 357 -137 344 -137 z "},"Ờ":{"ha":865,"x_min":101,"x_max":847,"o":"m 660 1081 l 647 1061 l 439 1161 l 458 1193 l 660 1081 m 847 983 q 822 892 847 925 q 740 847 796 858 q 796 615 796 761 q 753 329 796 474 q 617 85 711 185 q 375 -14 522 -14 q 174 77 246 -14 q 101 335 101 168 q 145 617 101 472 q 284 860 189 761 q 522 960 379 960 q 726 868 656 960 q 799 906 778 878 q 819 985 819 933 q 810 1054 819 1029 l 835 1061 q 847 983 847 1021 m 375 17 q 602 113 515 17 q 726 347 689 210 q 764 615 764 485 q 701 851 764 769 q 522 932 638 932 q 301 836 388 932 q 174 602 214 740 q 135 333 135 464 q 198 98 135 179 q 375 17 261 17 z "},"Ở":{"ha":865,"x_min":101,"x_max":847,"o":"m 576 1301 q 540 1297 556 1301 q 503 1282 524 1292 l 493 1306 q 578 1329 536 1329 q 642 1306 618 1329 q 665 1244 665 1283 q 638 1176 665 1201 q 564 1144 611 1151 l 557 1086 l 528 1086 l 536 1165 q 633 1244 633 1171 q 619 1287 633 1272 q 576 1301 604 1301 m 847 983 q 822 892 847 925 q 740 847 796 858 q 796 615 796 761 q 753 329 796 474 q 617 85 711 185 q 375 -14 522 -14 q 174 77 246 -14 q 101 335 101 168 q 145 617 101 472 q 284 860 189 761 q 522 960 379 960 q 726 868 656 960 q 799 906 778 878 q 819 985 819 933 q 810 1054 819 1029 l 835 1061 q 847 983 847 1021 m 375 17 q 602 113 515 17 q 726 347 689 210 q 764 615 764 485 q 701 851 764 769 q 522 932 638 932 q 301 836 388 932 q 174 602 214 740 q 135 333 135 464 q 198 98 135 179 q 375 17 261 17 z "},"Ỡ":{"ha":865,"x_min":101,"x_max":847,"o":"m 481 1176 q 442 1165 458 1176 q 400 1126 425 1154 l 382 1140 q 481 1204 433 1204 q 515 1197 499 1204 q 553 1174 531 1189 q 590 1152 574 1160 q 622 1144 606 1144 q 661 1158 643 1144 q 703 1201 679 1171 l 722 1189 q 622 1117 675 1117 q 583 1125 601 1117 q 543 1149 565 1133 q 508 1170 521 1164 q 481 1176 496 1176 m 847 983 q 822 892 847 925 q 740 847 796 858 q 796 615 796 761 q 753 329 796 474 q 617 85 711 185 q 375 -14 522 -14 q 174 77 246 -14 q 101 335 101 168 q 145 617 101 472 q 284 860 189 761 q 522 960 379 960 q 726 868 656 960 q 799 906 778 878 q 819 985 819 933 q 810 1054 819 1029 l 835 1061 q 847 983 847 1021 m 375 17 q 602 113 515 17 q 726 347 689 210 q 764 615 764 485 q 701 851 764 769 q 522 932 638 932 q 301 836 388 932 q 174 602 214 740 q 135 333 135 464 q 198 98 135 179 q 375 17 261 17 z "},"Ő":{"ha":865,"x_min":101,"x_max":796,"o":"m 522 960 q 724 871 651 960 q 796 615 796 782 q 753 329 796 474 q 617 85 711 185 q 375 -14 522 -14 q 174 77 246 -14 q 101 335 101 168 q 145 617 101 472 q 284 860 189 761 q 522 960 379 960 m 522 932 q 301 836 388 932 q 174 602 214 740 q 135 333 135 464 q 198 98 135 179 q 375 17 261 17 q 602 113 515 17 q 726 347 689 210 q 764 615 764 485 q 701 851 764 769 q 522 932 638 932 m 703 1274 l 732 1258 l 610 1081 l 588 1093 l 703 1274 m 564 1272 l 593 1256 l 478 1086 l 458 1097 l 564 1272 z "},"Ƣ":{"ha":1107,"x_min":101,"x_max":1018,"o":"m 885 960 q 985 925 951 960 q 1018 831 1018 890 q 1015 799 1018 821 l 865 -267 l 835 -267 l 983 799 q 986 833 986 824 q 885 933 986 933 q 801 919 840 933 q 717 879 763 906 q 796 615 796 789 q 753 329 796 474 q 617 85 711 185 q 375 -14 522 -14 q 174 77 246 -14 q 101 335 101 168 q 145 617 101 472 q 284 860 189 761 q 522 960 379 960 q 697 899 629 960 q 791 944 746 928 q 885 960 836 960 m 375 17 q 602 113 515 17 q 726 347 689 210 q 764 615 764 485 q 701 851 764 769 q 522 932 638 932 q 301 836 388 932 q 174 602 214 740 q 135 333 135 464 q 198 98 135 179 q 375 17 261 17 z "},"Ȏ":{"ha":865,"x_min":101,"x_max":796,"o":"m 522 960 q 724 871 651 960 q 796 615 796 782 q 753 329 796 474 q 617 85 711 185 q 375 -14 522 -14 q 174 77 246 -14 q 101 335 101 168 q 145 617 101 472 q 284 860 189 761 q 522 960 379 960 m 522 932 q 301 836 388 932 q 174 602 214 740 q 135 333 135 464 q 198 98 135 179 q 375 17 261 17 q 602 113 515 17 q 726 347 689 210 q 764 615 764 485 q 701 851 764 769 q 522 932 638 932 m 404 1114 q 460 1199 421 1167 q 554 1232 500 1232 q 642 1199 610 1232 q 678 1111 675 1165 l 654 1108 q 554 1203 643 1203 q 476 1178 508 1203 q 425 1107 443 1153 l 404 1114 z "},"Ō":{"ha":865,"x_min":101,"x_max":796,"o":"m 522 960 q 724 871 651 960 q 796 615 796 782 q 753 329 796 474 q 617 85 711 185 q 375 -14 522 -14 q 174 77 246 -14 q 101 335 101 168 q 145 617 101 472 q 284 860 189 761 q 522 960 379 960 m 522 932 q 301 836 388 932 q 174 602 214 740 q 135 333 135 464 q 198 98 135 179 q 375 17 261 17 q 602 113 515 17 q 726 347 689 210 q 764 615 764 485 q 701 851 764 769 q 522 932 638 932 m 676 1126 l 415 1126 l 419 1156 l 681 1156 l 676 1126 z "},"Ṓ":{"ha":865,"x_min":101,"x_max":796,"o":"m 522 960 q 724 871 651 960 q 796 615 796 782 q 753 329 796 474 q 617 85 711 185 q 375 -14 522 -14 q 174 77 246 -14 q 101 335 101 168 q 145 617 101 472 q 284 860 189 761 q 522 960 379 960 m 522 932 q 301 836 388 932 q 174 602 214 740 q 135 333 135 464 q 198 98 135 179 q 375 17 261 17 q 602 113 515 17 q 726 347 689 210 q 764 615 764 485 q 701 851 764 769 q 522 932 638 932 m 669 1065 l 408 1065 l 413 1094 l 674 1094 l 669 1065 m 669 1306 l 683 1272 l 444 1172 l 435 1193 l 669 1306 z "},"Ṑ":{"ha":865,"x_min":101,"x_max":796,"o":"m 522 960 q 724 871 651 960 q 796 615 796 782 q 753 329 796 474 q 617 85 711 185 q 375 -14 522 -14 q 174 77 246 -14 q 101 335 101 168 q 145 617 101 472 q 284 860 189 761 q 522 960 379 960 m 522 932 q 301 836 388 932 q 174 602 214 740 q 135 333 135 464 q 198 98 135 179 q 375 17 261 17 q 602 113 515 17 q 726 347 689 210 q 764 615 764 485 q 701 851 764 769 q 522 932 638 932 m 669 1065 l 408 1065 l 413 1094 l 674 1094 l 669 1065 m 469 1304 l 671 1192 l 658 1172 l 450 1272 l 469 1304 z "},"Ꞷ":{"ha":1061,"x_min":103,"x_max":972,"o":"m 293 -14 q 103 246 103 -14 q 151 586 103 415 q 286 946 199 757 l 318 946 q 183 585 231 758 q 135 246 135 413 q 175 69 135 122 q 293 17 215 17 q 426 74 372 17 q 500 268 481 132 l 539 550 l 572 550 l 531 264 q 525 183 525 226 q 557 60 525 104 q 663 17 589 17 q 878 195 817 17 q 940 631 940 374 q 908 946 940 775 l 940 946 q 972 632 972 772 q 903 172 972 357 q 664 -14 833 -14 q 542 33 581 -14 q 503 172 503 81 q 293 -14 447 -14 z "},"Ǫ":{"ha":865,"x_min":101,"x_max":796,"o":"m 468 -1 q 334 -82 378 -42 q 290 -179 290 -122 q 368 -251 290 -251 q 438 -242 397 -251 l 431 -272 q 365 -282 393 -282 q 287 -256 315 -282 q 258 -185 258 -231 q 292 -89 258 -129 q 394 -14 326 -49 l 375 -14 q 174 77 246 -14 q 101 335 101 168 q 145 617 101 472 q 284 860 189 761 q 522 960 379 960 q 724 871 651 960 q 796 615 796 782 q 763 361 796 492 q 656 130 729 231 q 468 -1 582 29 m 135 333 q 198 98 135 179 q 375 17 261 17 q 602 113 515 17 q 726 347 689 210 q 764 615 764 485 q 701 851 764 769 q 522 932 638 932 q 301 836 388 932 q 174 602 214 740 q 135 333 135 464 z "},"Ǭ":{"ha":865,"x_min":101,"x_max":796,"o":"m 681 1156 l 676 1126 l 415 1126 l 419 1156 l 681 1156 m 468 -1 q 334 -82 378 -42 q 290 -179 290 -122 q 368 -251 290 -251 q 438 -242 397 -251 l 431 -272 q 365 -282 393 -282 q 287 -256 315 -282 q 258 -185 258 -231 q 292 -89 258 -129 q 394 -14 326 -49 l 375 -14 q 174 77 246 -14 q 101 335 101 168 q 145 617 101 472 q 284 860 189 761 q 522 960 379 960 q 724 871 651 960 q 796 615 796 782 q 763 361 796 492 q 656 130 729 231 q 468 -1 582 29 m 135 333 q 198 98 135 179 q 375 17 261 17 q 602 113 515 17 q 726 347 689 210 q 764 615 764 485 q 701 851 764 769 q 522 932 638 932 q 301 836 388 932 q 174 602 214 740 q 135 333 135 464 z "},"Ɔ":{"ha":682,"x_min":-10,"x_max":613,"o":"m 361 960 q 545 874 478 960 q 613 621 613 788 q 563 311 613 457 q 421 76 514 165 q 201 -14 328 -14 q 83 10 132 -14 q -10 75 33 33 l 11 97 q 95 37 54 57 q 201 17 136 17 q 404 103 318 17 q 535 328 490 189 q 581 621 581 467 q 522 853 581 776 q 360 931 463 931 q 247 913 296 931 q 144 857 199 894 l 128 881 q 236 940 182 919 q 361 960 290 960 z "},"Ø":{"ha":865,"x_min":101,"x_max":796,"o":"m 650 932 q 758 815 721 894 q 796 615 796 735 q 753 329 796 474 q 617 85 711 185 q 375 -14 522 -14 q 275 3 319 -14 l 211 -154 l 183 -144 l 250 14 q 140 133 179 50 q 101 335 101 215 q 145 617 101 472 q 284 860 189 761 q 522 960 379 960 q 626 942 581 960 l 692 1108 l 719 1100 l 650 932 m 135 333 q 168 148 135 222 q 264 42 201 74 l 615 915 q 522 932 575 932 q 301 835 388 932 q 174 601 214 739 q 135 333 135 463 m 375 17 q 602 113 515 17 q 726 347 689 210 q 764 615 764 485 q 636 906 764 839 l 286 32 q 375 17 328 17 z "},"Ǿ":{"ha":865,"x_min":101,"x_max":796,"o":"m 650 932 q 758 815 721 894 q 796 615 796 735 q 753 329 796 474 q 617 85 711 185 q 375 -14 522 -14 q 275 3 319 -14 l 211 -154 l 183 -144 l 250 14 q 140 133 179 50 q 101 335 101 215 q 145 617 101 472 q 284 860 189 761 q 522 960 379 960 q 626 942 581 960 l 692 1108 l 719 1100 l 650 932 m 135 333 q 168 148 135 222 q 264 42 201 74 l 615 915 q 522 932 575 932 q 301 835 388 932 q 174 601 214 739 q 135 333 135 463 m 375 17 q 602 113 515 17 q 726 347 689 210 q 764 615 764 485 q 636 906 764 839 l 286 32 q 375 17 328 17 m 650 1194 l 664 1161 l 425 1061 l 415 1082 l 650 1194 z "},"Õ":{"ha":865,"x_min":101,"x_max":796,"o":"m 522 960 q 724 871 651 960 q 796 615 796 782 q 753 329 796 474 q 617 85 711 185 q 375 -14 522 -14 q 174 77 246 -14 q 101 335 101 168 q 145 617 101 472 q 284 860 189 761 q 522 960 379 960 m 522 932 q 301 836 388 932 q 174 602 214 740 q 135 333 135 464 q 198 98 135 179 q 375 17 261 17 q 602 113 515 17 q 726 347 689 210 q 764 615 764 485 q 701 851 764 769 q 522 932 638 932 m 622 1117 q 583 1125 601 1117 q 543 1149 565 1133 q 508 1170 521 1164 q 481 1176 496 1176 q 442 1165 458 1176 q 400 1126 425 1154 l 382 1140 q 481 1204 433 1204 q 515 1197 499 1204 q 553 1174 531 1189 q 590 1152 574 1160 q 622 1144 606 1144 q 661 1158 643 1144 q 703 1201 679 1171 l 722 1189 q 622 1117 675 1117 z "},"Ṍ":{"ha":865,"x_min":101,"x_max":796,"o":"m 522 960 q 724 871 651 960 q 796 615 796 782 q 753 329 796 474 q 617 85 711 185 q 375 -14 522 -14 q 174 77 246 -14 q 101 335 101 168 q 145 617 101 472 q 284 860 189 761 q 522 960 379 960 m 522 932 q 301 836 388 932 q 174 602 214 740 q 135 333 135 464 q 198 98 135 179 q 375 17 261 17 q 602 113 515 17 q 726 347 689 210 q 764 615 764 485 q 701 851 764 769 q 522 932 638 932 m 615 1051 q 576 1060 594 1051 q 536 1083 558 1068 q 501 1105 514 1099 q 474 1111 489 1111 q 435 1100 451 1111 q 393 1061 418 1089 l 375 1075 q 474 1139 426 1139 q 508 1131 492 1139 q 546 1108 524 1124 q 583 1087 567 1094 q 615 1079 599 1079 q 654 1092 636 1079 q 696 1136 672 1106 l 715 1124 q 615 1051 668 1051 m 668 1324 l 682 1290 l 443 1190 l 433 1211 l 668 1324 z "},"Ȭ":{"ha":865,"x_min":101,"x_max":796,"o":"m 686 1219 l 425 1219 l 429 1249 l 690 1249 l 686 1219 m 614 1051 q 575 1060 593 1051 q 535 1083 557 1068 q 500 1105 513 1099 q 472 1111 488 1111 q 433 1100 450 1111 q 392 1061 417 1089 l 374 1075 q 472 1139 425 1139 q 506 1131 490 1139 q 544 1108 522 1124 q 581 1087 565 1094 q 614 1079 597 1079 q 653 1092 635 1079 q 694 1136 671 1106 l 714 1124 q 614 1051 667 1051 m 522 960 q 724 871 651 960 q 796 615 796 782 q 753 329 796 474 q 617 85 711 185 q 375 -14 522 -14 q 174 77 246 -14 q 101 335 101 168 q 145 617 101 472 q 284 860 189 761 q 522 960 379 960 m 522 932 q 301 836 388 932 q 174 602 214 740 q 135 333 135 464 q 198 98 135 179 q 375 17 261 17 q 602 113 515 17 q 726 347 689 210 q 764 615 764 485 q 701 851 764 769 q 522 932 638 932 z "},"Œ":{"ha":1057,"x_min":101,"x_max":1076,"o":"m 1068 917 l 643 917 q 733 803 701 879 q 764 618 764 726 q 758 514 764 563 l 961 514 l 957 485 l 754 485 q 674 208 735 333 q 510 29 613 83 l 957 29 l 951 0 l 447 0 q 360 -14 407 -14 q 171 77 240 -14 q 101 333 101 168 q 144 615 101 469 q 278 860 188 760 q 504 960 369 960 q 589 946 553 960 l 1076 946 l 1068 917 m 732 619 q 672 851 732 771 q 504 932 611 932 q 294 835 378 932 q 172 600 211 739 q 133 332 133 461 q 194 99 133 181 q 360 17 254 17 q 575 115 492 17 q 695 352 658 213 q 732 619 732 492 z "},"P":{"ha":701,"x_min":101,"x_max":683,"o":"m 413 946 q 683 726 683 946 q 600 489 683 586 q 326 392 517 392 l 189 392 l 133 0 l 101 0 l 235 946 l 413 946 m 332 421 q 578 509 506 421 q 650 726 650 597 q 591 872 650 826 q 411 917 532 917 l 263 917 l 193 421 l 332 421 z "},"Ṕ":{"ha":701,"x_min":101,"x_max":683,"o":"m 413 946 q 683 726 683 946 q 600 489 683 586 q 326 392 517 392 l 189 392 l 133 0 l 101 0 l 235 946 l 413 946 m 332 421 q 578 509 506 421 q 650 726 650 597 q 591 872 650 826 q 411 917 532 917 l 263 917 l 193 421 l 332 421 m 571 1194 l 585 1161 l 346 1061 l 336 1082 l 571 1194 z "},"Ṗ":{"ha":701,"x_min":101,"x_max":683,"o":"m 413 946 q 683 726 683 946 q 600 489 683 586 q 326 392 517 392 l 189 392 l 133 0 l 101 0 l 235 946 l 413 946 m 332 421 q 578 509 506 421 q 650 726 650 597 q 591 872 650 826 q 411 917 532 917 l 263 917 l 193 421 l 332 421 m 467 1126 q 450 1133 457 1126 q 443 1150 443 1140 q 451 1171 443 1163 q 472 1179 458 1179 q 490 1173 483 1179 q 497 1156 497 1167 q 489 1135 497 1144 q 467 1126 481 1126 z "},"Ƥ":{"ha":756,"x_min":89,"x_max":739,"o":"m 468 946 q 739 726 739 946 q 656 489 739 586 q 382 392 572 392 l 244 392 l 189 0 l 157 0 l 286 918 l 246 918 q 151 883 183 918 q 119 793 119 849 q 125 746 119 765 q 140 703 131 726 l 115 692 q 96 739 103 717 q 89 793 89 761 q 131 903 89 861 q 247 946 172 946 l 468 946 m 388 421 q 633 509 561 421 q 706 726 706 597 q 647 872 706 826 q 467 917 588 917 l 318 917 l 249 421 l 388 421 z "},"Þ":{"ha":694,"x_min":101,"x_max":651,"o":"m 382 769 q 583 715 515 769 q 651 542 651 660 q 569 303 651 401 q 294 204 486 204 l 163 204 l 133 0 l 101 0 l 235 946 l 267 946 l 242 769 l 382 769 m 300 233 q 546 323 472 233 q 619 542 619 413 q 560 694 619 649 q 379 740 501 740 l 238 740 l 167 233 l 300 233 z "},"Q":{"ha":858,"x_min":101,"x_max":796,"o":"m 472 6 q 719 -90 638 1 l 694 -114 q 571 -34 642 -56 q 379 -14 500 -12 l 375 -14 l 374 -14 l 374 -14 q 174 77 246 -14 q 101 335 101 168 q 145 617 101 472 q 284 860 189 761 q 522 960 379 960 q 724 871 651 960 q 796 615 796 782 q 763 363 796 492 q 658 135 731 235 q 472 6 585 36 m 135 333 q 198 98 135 179 q 375 17 261 17 q 602 113 515 17 q 726 347 689 210 q 764 615 764 485 q 701 851 764 769 q 522 932 638 932 q 301 835 388 932 q 174 601 214 739 q 135 333 135 463 z "},"Ɋ":{"ha":824,"x_min":103,"x_max":786,"o":"m 786 -233 q 671 -274 735 -274 q 591 -244 619 -274 q 563 -158 563 -214 q 565 -128 563 -150 l 583 0 l 600 117 q 360 -14 504 -14 q 173 78 243 -14 q 103 342 103 169 q 151 640 103 497 q 290 871 200 782 q 500 960 381 960 q 701 836 632 960 l 719 946 l 747 946 l 614 0 l 597 -128 q 594 -158 594 -150 q 615 -224 594 -203 q 671 -244 636 -244 q 771 -211 725 -244 l 786 -233 m 360 17 q 607 165 508 17 l 696 800 q 613 898 661 865 q 500 931 565 931 q 306 844 389 931 q 178 622 222 758 q 135 342 135 486 q 196 99 135 182 q 360 17 257 17 z "},"R":{"ha":717,"x_min":101,"x_max":679,"o":"m 679 743 q 618 556 679 638 q 436 454 557 474 l 611 0 l 576 0 l 404 450 l 197 450 l 133 0 l 101 0 l 235 946 l 428 946 q 619 894 558 946 q 679 743 679 843 m 381 479 q 533 517 474 479 q 619 615 593 556 q 646 742 646 675 q 595 874 646 831 q 426 917 544 917 l 263 917 l 201 479 l 381 479 z "},"Ŕ":{"ha":717,"x_min":101,"x_max":679,"o":"m 679 743 q 618 556 679 638 q 436 454 557 474 l 611 0 l 576 0 l 404 450 l 197 450 l 133 0 l 101 0 l 235 946 l 428 946 q 619 894 558 946 q 679 743 679 843 m 381 479 q 533 517 474 479 q 619 615 593 556 q 646 742 646 675 q 595 874 646 831 q 426 917 544 917 l 263 917 l 201 479 l 381 479 m 572 1194 l 586 1161 l 347 1061 l 338 1082 l 572 1194 z "},"Ř":{"ha":717,"x_min":101,"x_max":679,"o":"m 679 743 q 618 556 679 638 q 436 454 557 474 l 611 0 l 576 0 l 404 450 l 197 450 l 133 0 l 101 0 l 235 946 l 428 946 q 619 894 558 946 q 679 743 679 843 m 381 479 q 533 517 474 479 q 619 615 593 556 q 646 742 646 675 q 595 874 646 831 q 426 917 544 917 l 263 917 l 201 479 l 381 479 m 622 1197 l 636 1181 l 468 1056 l 451 1056 l 319 1181 l 336 1197 l 463 1089 l 622 1197 z "},"Ŗ":{"ha":717,"x_min":101,"x_max":679,"o":"m 679 743 q 618 556 679 638 q 436 454 557 474 l 611 0 l 576 0 l 404 450 l 197 450 l 133 0 l 101 0 l 235 946 l 428 946 q 619 894 558 946 q 679 743 679 843 m 381 479 q 533 517 474 479 q 619 615 593 556 q 646 742 646 675 q 595 874 646 831 q 426 917 544 917 l 263 917 l 201 479 l 381 479 m 329 -133 q 351 -142 343 -133 q 360 -162 360 -150 q 354 -187 360 -174 q 339 -218 349 -200 l 271 -358 l 250 -358 l 313 -197 q 294 -168 294 -187 q 304 -143 294 -153 q 329 -133 314 -133 z "},"Ȑ":{"ha":717,"x_min":101,"x_max":679,"o":"m 679 743 q 618 556 679 638 q 436 454 557 474 l 611 0 l 576 0 l 404 450 l 197 450 l 133 0 l 101 0 l 235 946 l 428 946 q 619 894 558 946 q 679 743 679 843 m 381 479 q 533 517 474 479 q 619 615 593 556 q 646 742 646 675 q 595 874 646 831 q 426 917 544 917 l 263 917 l 201 479 l 381 479 m 342 1274 l 406 1092 l 381 1081 l 307 1260 l 342 1274 m 481 1272 l 538 1096 l 513 1086 l 446 1257 l 481 1272 z "},"Ṛ":{"ha":717,"x_min":101,"x_max":679,"o":"m 679 743 q 618 556 679 638 q 436 454 557 474 l 611 0 l 576 0 l 404 450 l 197 450 l 133 0 l 101 0 l 235 946 l 428 946 q 619 894 558 946 q 679 743 679 843 m 381 479 q 533 517 474 479 q 619 615 593 556 q 646 742 646 675 q 595 874 646 831 q 426 917 544 917 l 263 917 l 201 479 l 381 479 m 324 -137 q 340 -144 333 -137 q 347 -161 347 -151 q 340 -182 347 -174 q 318 -190 332 -190 q 300 -184 307 -190 q 293 -167 293 -178 q 301 -147 293 -156 q 324 -137 310 -137 z "},"Ȓ":{"ha":717,"x_min":101,"x_max":679,"o":"m 679 743 q 618 556 679 638 q 436 454 557 474 l 611 0 l 576 0 l 404 450 l 197 450 l 133 0 l 101 0 l 235 946 l 428 946 q 619 894 558 946 q 679 743 679 843 m 381 479 q 533 517 474 479 q 619 615 593 556 q 646 742 646 675 q 595 874 646 831 q 426 917 544 917 l 263 917 l 201 479 l 381 479 m 326 1114 q 383 1199 343 1167 q 476 1232 422 1232 q 565 1199 532 1232 q 600 1111 597 1165 l 576 1108 q 476 1203 565 1203 q 398 1178 431 1203 q 347 1107 365 1153 l 326 1114 z "},"Ɍ":{"ha":724,"x_min":57,"x_max":686,"o":"m 686 743 q 625 556 686 638 q 443 454 564 474 l 618 0 l 583 0 l 411 450 l 204 450 l 140 0 l 108 0 l 172 450 l 57 450 l 61 479 l 176 479 l 242 946 l 435 946 q 626 894 565 946 q 686 743 686 843 m 388 479 q 540 517 481 479 q 626 615 600 556 q 653 742 653 675 q 602 874 653 831 q 433 917 551 917 l 269 917 l 208 479 l 388 479 z "},"Ɽ":{"ha":717,"x_min":82,"x_max":679,"o":"m 679 743 q 618 556 679 638 q 436 454 557 474 l 611 0 l 576 0 l 404 450 l 197 450 l 133 0 l 117 -128 q 114 -158 114 -150 q 135 -224 114 -203 q 190 -244 156 -244 q 290 -211 244 -244 l 306 -233 q 190 -274 254 -274 q 110 -244 139 -274 q 82 -158 82 -214 q 85 -128 82 -150 l 103 0 l 101 0 l 235 946 l 428 946 q 619 894 558 946 q 679 743 679 843 m 381 479 q 533 517 474 479 q 619 615 593 556 q 646 742 646 675 q 595 874 646 831 q 426 917 544 917 l 263 917 l 201 479 l 381 479 z "},"S":{"ha":671,"x_min":25,"x_max":636,"o":"m 421 960 q 542 935 490 960 q 636 863 593 910 l 615 843 q 528 910 574 889 q 421 932 483 932 q 297 902 350 932 q 216 823 244 872 q 188 715 188 774 q 227 605 188 644 q 368 526 267 565 q 524 431 476 485 q 571 288 571 378 q 537 144 571 214 q 433 31 503 75 q 265 -14 364 -14 q 128 15 185 -14 q 25 101 71 44 l 46 119 q 140 43 89 69 q 265 17 192 17 q 418 57 357 17 q 509 159 479 97 q 539 286 539 221 q 497 413 539 367 q 356 499 456 460 q 201 588 244 542 q 157 714 157 635 q 188 833 157 776 q 279 924 219 889 q 421 960 339 960 z "},"Ś":{"ha":671,"x_min":25,"x_max":636,"o":"m 421 960 q 542 935 490 960 q 636 863 593 910 l 615 843 q 528 910 574 889 q 421 932 483 932 q 297 902 350 932 q 216 823 244 872 q 188 715 188 774 q 227 605 188 644 q 368 526 267 565 q 524 431 476 485 q 571 288 571 378 q 537 144 571 214 q 433 31 503 75 q 265 -14 364 -14 q 128 15 185 -14 q 25 101 71 44 l 46 119 q 140 43 89 69 q 265 17 192 17 q 418 57 357 17 q 509 159 479 97 q 539 286 539 221 q 497 413 539 367 q 356 499 456 460 q 201 588 244 542 q 157 714 157 635 q 188 833 157 776 q 279 924 219 889 q 421 960 339 960 m 551 1194 l 565 1161 l 326 1061 l 317 1082 l 551 1194 z "},"Ꞌ":{"ha":249,"x_min":132,"x_max":224,"o":"m 132 501 l 189 946 l 224 946 l 157 501 l 132 501 z "},"Š":{"ha":671,"x_min":25,"x_max":636,"o":"m 421 960 q 542 935 490 960 q 636 863 593 910 l 615 843 q 528 910 574 889 q 421 932 483 932 q 297 902 350 932 q 216 823 244 872 q 188 715 188 774 q 227 605 188 644 q 368 526 267 565 q 524 431 476 485 q 571 288 571 378 q 537 144 571 214 q 433 31 503 75 q 265 -14 364 -14 q 128 15 185 -14 q 25 101 71 44 l 46 119 q 140 43 89 69 q 265 17 192 17 q 418 57 357 17 q 509 159 479 97 q 539 286 539 221 q 497 413 539 367 q 356 499 456 460 q 201 588 244 542 q 157 714 157 635 q 188 833 157 776 q 279 924 219 889 q 421 960 339 960 m 601 1197 l 615 1181 l 447 1056 l 431 1056 l 299 1181 l 315 1197 l 442 1089 l 601 1197 z "},"Ş":{"ha":671,"x_min":25,"x_max":636,"o":"m 421 960 q 542 935 490 960 q 636 863 593 910 l 615 843 q 528 910 574 889 q 421 932 483 932 q 297 902 350 932 q 216 823 244 872 q 188 715 188 774 q 227 605 188 644 q 368 526 267 565 q 524 431 476 485 q 571 288 571 378 q 539 149 571 217 q 442 37 507 82 q 286 -14 378 -8 l 269 -103 q 348 -128 322 -107 q 374 -190 374 -149 q 340 -266 374 -237 q 254 -294 307 -294 q 169 -269 204 -294 l 183 -247 q 254 -267 213 -267 q 318 -247 294 -267 q 342 -192 342 -228 q 319 -142 342 -157 q 239 -126 296 -128 l 263 -14 q 126 17 182 -12 q 25 101 71 46 l 46 119 q 140 43 89 69 q 265 17 192 17 q 418 57 357 17 q 509 159 479 97 q 539 286 539 221 q 497 413 539 367 q 356 499 456 460 q 201 588 244 542 q 157 714 157 635 q 188 833 157 776 q 279 924 219 889 q 421 960 339 960 z "},"Ŝ":{"ha":671,"x_min":25,"x_max":636,"o":"m 421 960 q 542 935 490 960 q 636 863 593 910 l 615 843 q 528 910 574 889 q 421 932 483 932 q 297 902 350 932 q 216 823 244 872 q 188 715 188 774 q 227 605 188 644 q 368 526 267 565 q 524 431 476 485 q 571 288 571 378 q 537 144 571 214 q 433 31 503 75 q 265 -14 364 -14 q 128 15 185 -14 q 25 101 71 44 l 46 119 q 140 43 89 69 q 265 17 192 17 q 418 57 357 17 q 509 159 479 97 q 539 286 539 221 q 497 413 539 367 q 356 499 456 460 q 201 588 244 542 q 157 714 157 635 q 188 833 157 776 q 279 924 219 889 q 421 960 339 960 m 290 1064 l 276 1082 l 444 1207 l 461 1207 l 593 1082 l 576 1064 l 451 1174 l 290 1064 z "},"Ș":{"ha":671,"x_min":25,"x_max":636,"o":"m 421 960 q 542 935 490 960 q 636 863 593 910 l 615 843 q 528 910 574 889 q 421 932 483 932 q 297 902 350 932 q 216 823 244 872 q 188 715 188 774 q 227 605 188 644 q 368 526 267 565 q 524 431 476 485 q 571 288 571 378 q 537 144 571 214 q 433 31 503 75 q 265 -14 364 -14 q 128 15 185 -14 q 25 101 71 44 l 46 119 q 140 43 89 69 q 265 17 192 17 q 418 57 357 17 q 509 159 479 97 q 539 286 539 221 q 497 413 539 367 q 356 499 456 460 q 201 588 244 542 q 157 714 157 635 q 188 833 157 776 q 279 924 219 889 q 421 960 339 960 m 265 -133 q 288 -142 279 -133 q 296 -162 296 -150 q 290 -187 296 -174 q 275 -218 285 -200 l 207 -358 l 186 -358 l 249 -197 q 231 -168 231 -187 q 240 -143 231 -153 q 265 -133 250 -133 z "},"Ṡ":{"ha":671,"x_min":25,"x_max":636,"o":"m 421 960 q 542 935 490 960 q 636 863 593 910 l 615 843 q 528 910 574 889 q 421 932 483 932 q 297 902 350 932 q 216 823 244 872 q 188 715 188 774 q 227 605 188 644 q 368 526 267 565 q 524 431 476 485 q 571 288 571 378 q 537 144 571 214 q 433 31 503 75 q 265 -14 364 -14 q 128 15 185 -14 q 25 101 71 44 l 46 119 q 140 43 89 69 q 265 17 192 17 q 418 57 357 17 q 509 159 479 97 q 539 286 539 221 q 497 413 539 367 q 356 499 456 460 q 201 588 244 542 q 157 714 157 635 q 188 833 157 776 q 279 924 219 889 q 421 960 339 960 m 447 1126 q 431 1133 438 1126 q 424 1150 424 1140 q 431 1171 424 1163 q 453 1179 439 1179 q 471 1173 464 1179 q 478 1156 478 1167 q 469 1135 478 1144 q 447 1126 461 1126 z "},"Ṣ":{"ha":671,"x_min":25,"x_max":636,"o":"m 421 960 q 542 935 490 960 q 636 863 593 910 l 615 843 q 528 910 574 889 q 421 932 483 932 q 297 902 350 932 q 216 823 244 872 q 188 715 188 774 q 227 605 188 644 q 368 526 267 565 q 524 431 476 485 q 571 288 571 378 q 537 144 571 214 q 433 31 503 75 q 265 -14 364 -14 q 128 15 185 -14 q 25 101 71 44 l 46 119 q 140 43 89 69 q 265 17 192 17 q 418 57 357 17 q 509 159 479 97 q 539 286 539 221 q 497 413 539 367 q 356 499 456 460 q 201 588 244 542 q 157 714 157 635 q 188 833 157 776 q 279 924 219 889 q 421 960 339 960 m 260 -137 q 276 -144 269 -137 q 283 -161 283 -151 q 276 -182 283 -174 q 254 -190 268 -190 q 236 -184 243 -190 q 229 -167 229 -178 q 238 -147 229 -156 q 260 -137 246 -137 z "},"ẞ":{"ha":804,"x_min":101,"x_max":744,"o":"m 485 960 q 619 938 556 960 q 744 874 682 915 l 742 850 l 440 529 q 642 454 575 511 q 708 292 708 397 q 674 136 708 206 q 577 26 639 67 q 435 -14 515 -14 q 297 17 351 -14 l 311 42 q 435 15 364 15 q 562 51 507 15 q 647 151 617 88 q 676 292 676 214 q 612 439 676 389 q 404 506 547 489 l 407 535 l 710 861 q 602 912 656 893 q 485 931 549 931 q 314 874 379 931 q 232 699 249 817 l 133 0 l 101 0 l 201 704 q 293 894 219 829 q 485 960 367 960 z "},"Ə":{"ha":810,"x_min":83,"x_max":742,"o":"m 489 960 q 676 881 610 960 q 742 638 742 801 q 697 321 742 469 q 561 79 653 172 q 338 -14 469 -14 q 149 70 215 -14 q 83 314 83 154 q 104 500 83 396 l 700 500 q 708 636 708 597 q 488 931 708 931 q 358 906 418 931 q 231 828 297 882 l 215 850 q 347 933 282 907 q 489 960 413 960 m 339 17 q 564 128 468 17 q 696 469 660 240 l 132 469 q 117 315 117 392 q 174 92 117 167 q 339 17 231 17 z "},"T":{"ha":596,"x_min":99,"x_max":663,"o":"m 663 946 l 653 915 l 392 915 l 263 0 l 232 0 l 360 915 l 99 915 l 101 946 l 663 946 z "},"Ŧ":{"ha":596,"x_min":99,"x_max":663,"o":"m 653 915 l 392 915 l 338 528 l 490 528 l 486 500 l 333 500 l 263 0 l 232 0 l 301 500 l 149 500 l 153 528 l 306 528 l 360 915 l 99 915 l 101 946 l 663 946 l 653 915 z "},"Ť":{"ha":596,"x_min":99,"x_max":663,"o":"m 663 946 l 653 915 l 392 915 l 263 0 l 232 0 l 360 915 l 99 915 l 101 946 l 663 946 m 558 1197 l 572 1181 l 404 1056 l 388 1056 l 256 1181 l 272 1197 l 399 1089 l 558 1197 z "},"Ţ":{"ha":596,"x_min":99,"x_max":663,"o":"m 663 946 l 653 915 l 392 915 l 263 1 l 264 0 l 247 -103 q 349 -185 349 -110 q 314 -263 349 -232 q 229 -294 279 -294 q 144 -269 179 -294 l 158 -246 q 229 -267 186 -267 q 292 -244 267 -267 q 317 -187 317 -222 q 294 -141 317 -156 q 217 -125 271 -126 l 240 0 l 232 0 l 360 915 l 99 915 l 101 946 l 663 946 z "},"Ṱ":{"ha":596,"x_min":58,"x_max":663,"o":"m 663 946 l 653 915 l 392 915 l 263 0 l 232 0 l 360 915 l 99 915 l 101 946 l 663 946 m 74 -256 l 58 -236 l 228 -104 l 244 -104 l 375 -236 l 360 -256 l 232 -137 l 74 -256 z "},"Ț":{"ha":596,"x_min":99,"x_max":663,"o":"m 663 946 l 653 915 l 392 915 l 263 0 l 232 0 l 360 915 l 99 915 l 101 946 l 663 946 m 235 -133 q 257 -142 249 -133 q 265 -162 265 -150 q 260 -187 265 -174 q 244 -218 254 -200 l 176 -358 l 156 -358 l 218 -197 q 200 -168 200 -187 q 210 -143 200 -153 q 235 -133 219 -133 z "},"Ⱦ":{"ha":596,"x_min":90,"x_max":663,"o":"m 653 915 l 497 915 l 329 474 l 263 0 l 232 0 l 281 344 l 114 -92 l 90 -86 l 294 453 l 360 915 l 99 915 l 101 946 l 483 946 l 513 1024 l 536 1017 l 510 946 l 663 946 l 653 915 m 344 583 l 471 915 l 392 915 l 344 583 z "},"Ṫ":{"ha":596,"x_min":99,"x_max":663,"o":"m 663 946 l 653 915 l 392 915 l 263 0 l 232 0 l 360 915 l 99 915 l 101 946 l 663 946 m 404 1126 q 388 1133 394 1126 q 381 1150 381 1140 q 388 1171 381 1163 q 410 1179 396 1179 q 428 1173 421 1179 q 435 1156 435 1167 q 426 1135 435 1144 q 404 1126 418 1126 z "},"Ṭ":{"ha":596,"x_min":99,"x_max":663,"o":"m 663 946 l 653 915 l 392 915 l 263 0 l 232 0 l 360 915 l 99 915 l 101 946 l 663 946 m 229 -137 q 246 -144 239 -137 q 253 -161 253 -151 q 245 -182 253 -174 q 224 -190 238 -190 q 206 -184 213 -190 q 199 -167 199 -178 q 207 -147 199 -156 q 229 -137 215 -137 z "},"Ƭ":{"ha":622,"x_min":89,"x_max":689,"o":"m 679 915 l 418 915 l 290 0 l 258 0 l 388 915 l 246 915 q 151 882 183 915 q 119 793 119 849 q 125 746 119 765 q 140 703 131 726 l 115 692 q 96 739 103 717 q 89 793 89 761 q 131 903 89 861 q 246 946 172 946 l 689 946 l 679 915 z "},"Ṯ":{"ha":596,"x_min":94,"x_max":663,"o":"m 663 946 l 653 915 l 392 915 l 263 0 l 232 0 l 360 915 l 99 915 l 101 946 l 663 946 m 99 -164 l 360 -164 l 356 -193 l 94 -193 l 99 -164 z "},"Ƽ":{"ha":604,"x_min":13,"x_max":582,"o":"m 224 -14 q 13 96 85 -14 l 36 114 q 115 40 69 64 q 225 15 160 15 q 381 70 319 15 q 469 206 442 125 q 497 368 497 286 q 453 513 497 463 q 329 563 410 563 q 236 548 279 563 q 149 506 193 533 l 124 506 l 186 946 l 582 946 l 572 918 l 211 918 l 158 536 q 331 590 240 590 q 478 531 426 590 q 529 367 529 472 q 498 193 529 281 q 398 46 467 106 q 224 -14 329 -14 z "},"Ƅ":{"ha":696,"x_min":107,"x_max":628,"o":"m 375 567 q 563 510 497 567 q 628 339 628 453 q 595 177 628 254 q 490 50 563 100 q 300 0 417 0 l 107 0 l 221 815 l 185 846 q 246 946 225 886 l 271 946 l 218 567 l 375 567 m 310 29 q 478 78 414 29 q 569 197 542 126 q 596 338 596 267 q 376 538 596 538 l 214 538 l 143 29 l 310 29 z "},"Ƨ":{"ha":658,"x_min":68,"x_max":642,"o":"m 447 960 q 590 910 539 960 q 642 779 642 861 q 610 651 642 703 q 519 565 578 599 q 365 497 460 531 q 163 382 225 447 q 100 200 100 317 q 150 65 100 114 q 288 17 200 17 q 424 43 364 17 q 540 121 483 69 l 558 99 q 432 15 497 44 q 288 -14 367 -14 q 128 44 189 -14 q 68 200 68 101 q 139 401 68 326 q 357 526 210 475 q 499 588 446 557 q 581 664 551 618 q 610 779 610 710 q 567 890 610 849 q 446 931 525 931 q 327 910 381 931 q 215 843 274 889 l 197 864 q 316 936 258 913 q 447 960 374 960 z "},"Ʈ":{"ha":596,"x_min":99,"x_max":663,"o":"m 246 -128 q 243 -158 243 -150 q 264 -224 243 -203 q 319 -244 285 -244 q 419 -211 374 -244 l 435 -233 q 319 -274 383 -274 q 240 -244 268 -274 q 211 -158 211 -214 q 214 -128 211 -150 l 232 0 l 360 915 l 99 915 l 101 946 l 663 946 l 653 915 l 392 915 l 263 0 l 246 -128 z "},"U":{"ha":800,"x_min":121,"x_max":742,"o":"m 646 258 q 556 62 631 138 q 350 -14 481 -14 q 177 45 233 -14 q 121 204 121 104 q 125 260 121 231 l 221 946 l 253 946 l 157 261 q 153 207 153 232 q 201 67 153 118 q 350 17 249 17 q 534 85 468 17 q 615 263 600 154 l 711 946 l 742 946 l 646 258 z "},"Ú":{"ha":800,"x_min":121,"x_max":742,"o":"m 646 258 q 556 62 631 138 q 350 -14 481 -14 q 177 45 233 -14 q 121 204 121 104 q 125 260 121 231 l 221 946 l 253 946 l 157 261 q 153 207 153 232 q 201 67 153 118 q 350 17 249 17 q 534 85 468 17 q 615 263 600 154 l 711 946 l 742 946 l 646 258 m 610 1194 l 624 1161 l 385 1061 l 375 1082 l 610 1194 z "},"Ʉ":{"ha":826,"x_min":129,"x_max":804,"o":"m 800 722 l 726 722 l 661 258 q 571 62 646 138 q 365 -14 496 -14 q 192 45 249 -14 q 136 204 136 104 q 140 260 136 231 l 206 722 l 129 722 l 133 747 l 208 747 l 236 946 l 268 946 l 240 747 l 699 747 l 726 946 l 757 946 l 729 747 l 804 747 l 800 722 m 694 722 l 236 722 l 172 261 q 168 207 168 232 q 216 67 168 118 q 365 17 264 17 q 549 85 483 17 q 631 263 615 154 l 694 722 z "},"Ŭ":{"ha":800,"x_min":121,"x_max":742,"o":"m 646 258 q 556 62 631 138 q 350 -14 481 -14 q 177 45 233 -14 q 121 204 121 104 q 125 260 121 231 l 221 946 l 253 946 l 157 261 q 153 207 153 232 q 201 67 153 118 q 350 17 249 17 q 534 85 468 17 q 615 263 600 154 l 711 946 l 742 946 l 646 258 m 496 1071 q 408 1102 442 1071 q 371 1178 374 1133 l 393 1181 q 426 1122 400 1144 q 496 1100 453 1100 q 572 1122 540 1100 q 622 1182 604 1144 l 646 1175 q 590 1101 629 1131 q 496 1071 550 1071 z "},"Ǔ":{"ha":800,"x_min":121,"x_max":742,"o":"m 646 258 q 556 62 631 138 q 350 -14 481 -14 q 177 45 233 -14 q 121 204 121 104 q 125 260 121 231 l 221 946 l 253 946 l 157 261 q 153 207 153 232 q 201 67 153 118 q 350 17 249 17 q 534 85 468 17 q 615 263 600 154 l 711 946 l 742 946 l 646 258 m 660 1197 l 674 1181 l 506 1056 l 489 1056 l 357 1181 l 374 1197 l 500 1089 l 660 1197 z "},"Û":{"ha":800,"x_min":121,"x_max":742,"o":"m 646 258 q 556 62 631 138 q 350 -14 481 -14 q 177 45 233 -14 q 121 204 121 104 q 125 260 121 231 l 221 946 l 253 946 l 157 261 q 153 207 153 232 q 201 67 153 118 q 350 17 249 17 q 534 85 468 17 q 615 263 600 154 l 711 946 l 742 946 l 646 258 m 349 1064 l 335 1082 l 503 1207 l 519 1207 l 651 1082 l 635 1064 l 510 1174 l 349 1064 z "},"Ȕ":{"ha":800,"x_min":121,"x_max":742,"o":"m 646 258 q 556 62 631 138 q 350 -14 481 -14 q 177 45 233 -14 q 121 204 121 104 q 125 260 121 231 l 221 946 l 253 946 l 157 261 q 153 207 153 232 q 201 67 153 118 q 350 17 249 17 q 534 85 468 17 q 615 263 600 154 l 711 946 l 742 946 l 646 258 m 379 1274 l 443 1092 l 418 1081 l 344 1260 l 379 1274 m 518 1272 l 575 1096 l 550 1086 l 483 1257 l 518 1272 z "},"Ü":{"ha":800,"x_min":121,"x_max":742,"o":"m 646 258 q 556 62 631 138 q 350 -14 481 -14 q 177 45 233 -14 q 121 204 121 104 q 125 260 121 231 l 221 946 l 253 946 l 157 261 q 153 207 153 232 q 201 67 153 118 q 350 17 249 17 q 534 85 468 17 q 615 263 600 154 l 711 946 l 742 946 l 646 258 m 401 1110 q 384 1116 390 1110 q 378 1133 378 1122 q 385 1154 378 1146 q 407 1163 393 1163 q 424 1156 417 1163 q 431 1139 431 1150 q 422 1118 431 1126 q 401 1110 414 1110 m 611 1110 q 593 1116 600 1110 q 586 1133 586 1122 q 594 1154 586 1146 q 615 1163 601 1163 q 633 1156 626 1163 q 639 1139 639 1150 q 631 1118 639 1126 q 611 1110 624 1110 z "},"Ǘ":{"ha":800,"x_min":121,"x_max":742,"o":"m 646 258 q 556 62 631 138 q 350 -14 481 -14 q 177 45 233 -14 q 121 204 121 104 q 125 260 121 231 l 221 946 l 253 946 l 157 261 q 153 207 153 232 q 201 67 153 118 q 350 17 249 17 q 534 85 468 17 q 615 263 600 154 l 711 946 l 742 946 l 646 258 m 625 1279 l 649 1256 l 496 1100 l 481 1115 l 625 1279 m 386 1032 q 368 1038 375 1032 q 361 1056 361 1044 q 369 1076 361 1068 q 390 1085 378 1085 q 408 1078 401 1085 q 415 1061 415 1072 q 407 1040 415 1049 q 386 1032 399 1032 m 594 1032 q 578 1039 585 1032 q 571 1056 571 1046 q 579 1076 571 1068 q 600 1085 588 1085 q 617 1078 611 1085 q 624 1061 624 1072 q 615 1040 624 1049 q 594 1032 607 1032 z "},"Ǚ":{"ha":800,"x_min":121,"x_max":742,"o":"m 646 258 q 556 62 631 138 q 350 -14 481 -14 q 177 45 233 -14 q 121 204 121 104 q 125 260 121 231 l 221 946 l 253 946 l 157 261 q 153 207 153 232 q 201 67 153 118 q 350 17 249 17 q 534 85 468 17 q 615 263 600 154 l 711 946 l 742 946 l 646 258 m 660 1240 l 674 1224 l 506 1099 l 489 1099 l 357 1224 l 374 1240 l 500 1132 l 660 1240 m 386 1032 q 368 1038 375 1032 q 361 1056 361 1044 q 369 1076 361 1068 q 390 1085 378 1085 q 408 1078 401 1085 q 415 1061 415 1072 q 407 1040 415 1049 q 386 1032 399 1032 m 594 1032 q 578 1039 585 1032 q 571 1056 571 1046 q 579 1076 571 1068 q 600 1085 588 1085 q 617 1078 611 1085 q 624 1061 624 1072 q 615 1040 624 1049 q 594 1032 607 1032 z "},"Ǜ":{"ha":800,"x_min":121,"x_max":742,"o":"m 646 258 q 556 62 631 138 q 350 -14 481 -14 q 177 45 233 -14 q 121 204 121 104 q 125 260 121 231 l 221 946 l 253 946 l 157 261 q 153 207 153 232 q 201 67 153 118 q 350 17 249 17 q 534 85 468 17 q 615 263 600 154 l 711 946 l 742 946 l 646 258 m 413 1279 l 511 1113 l 493 1100 l 383 1260 l 413 1279 m 386 1032 q 369 1038 375 1032 q 363 1056 363 1044 q 371 1076 363 1068 q 392 1085 379 1085 q 409 1078 403 1085 q 415 1061 415 1072 q 407 1040 415 1049 q 386 1032 399 1032 m 596 1032 q 578 1038 585 1032 q 571 1056 571 1044 q 579 1076 571 1068 q 600 1085 588 1085 q 618 1078 611 1085 q 625 1061 625 1072 q 617 1041 625 1050 q 596 1032 608 1032 z "},"Ǖ":{"ha":800,"x_min":121,"x_max":742,"o":"m 646 258 q 556 62 631 138 q 350 -14 481 -14 q 177 45 233 -14 q 121 204 121 104 q 125 260 121 231 l 221 946 l 253 946 l 157 261 q 153 207 153 232 q 201 67 153 118 q 350 17 249 17 q 534 85 468 17 q 615 263 600 154 l 711 946 l 742 946 l 646 258 m 386 1031 q 369 1037 375 1031 q 363 1054 363 1043 q 370 1075 363 1067 q 392 1083 378 1083 q 408 1077 401 1083 q 415 1060 415 1071 q 407 1039 415 1047 q 386 1031 399 1031 m 596 1031 q 578 1037 585 1031 q 571 1054 571 1043 q 578 1075 571 1067 q 600 1083 586 1083 q 617 1077 611 1083 q 624 1060 624 1071 q 616 1039 624 1047 q 596 1031 608 1031 m 636 1181 l 375 1181 l 379 1210 l 640 1210 l 636 1181 z "},"Ụ":{"ha":800,"x_min":121,"x_max":742,"o":"m 646 258 q 556 62 631 138 q 350 -14 481 -14 q 177 45 233 -14 q 121 204 121 104 q 125 260 121 231 l 221 946 l 253 946 l 157 261 q 153 207 153 232 q 201 67 153 118 q 350 17 249 17 q 534 85 468 17 q 615 263 600 154 l 711 946 l 742 946 l 646 258 m 332 -137 q 349 -144 342 -137 q 356 -161 356 -151 q 348 -182 356 -174 q 326 -190 340 -190 q 308 -184 315 -190 q 301 -167 301 -178 q 310 -147 301 -156 q 332 -137 318 -137 z "},"Ù":{"ha":800,"x_min":121,"x_max":742,"o":"m 646 258 q 556 62 631 138 q 350 -14 481 -14 q 177 45 233 -14 q 121 204 121 104 q 125 260 121 231 l 221 946 l 253 946 l 157 261 q 153 207 153 232 q 201 67 153 118 q 350 17 249 17 q 534 85 468 17 q 615 263 600 154 l 711 946 l 742 946 l 646 258 m 418 1193 l 619 1081 l 607 1061 l 399 1161 l 418 1193 z "},"Ủ":{"ha":800,"x_min":121,"x_max":742,"o":"m 646 258 q 556 62 631 138 q 350 -14 481 -14 q 177 45 233 -14 q 121 204 121 104 q 125 260 121 231 l 221 946 l 253 946 l 157 261 q 153 207 153 232 q 201 67 153 118 q 350 17 249 17 q 534 85 468 17 q 615 263 600 154 l 711 946 l 742 946 l 646 258 m 496 1165 q 593 1244 593 1171 q 578 1287 593 1272 q 536 1301 564 1301 q 499 1297 515 1301 q 463 1282 483 1292 l 453 1306 q 538 1329 496 1329 q 601 1306 578 1329 q 625 1244 625 1283 q 598 1176 625 1201 q 524 1144 571 1151 l 517 1086 l 488 1086 l 496 1165 z "},"Ư":{"ha":800,"x_min":121,"x_max":844,"o":"m 844 983 q 817 888 844 921 q 728 846 789 856 l 646 258 q 556 62 631 138 q 350 -14 481 -14 q 177 45 233 -14 q 121 204 121 104 q 125 260 121 231 l 221 946 l 253 946 l 157 261 q 153 207 153 232 q 201 67 153 118 q 350 17 249 17 q 534 85 468 17 q 615 263 600 154 l 711 946 l 742 946 l 731 869 q 798 907 779 879 q 817 985 817 935 q 807 1054 817 1029 l 832 1061 q 844 983 844 1021 z "},"Ứ":{"ha":800,"x_min":121,"x_max":844,"o":"m 624 1161 l 385 1061 l 375 1082 l 610 1194 l 624 1161 m 844 983 q 817 888 844 921 q 728 846 789 856 l 646 258 q 556 62 631 138 q 350 -14 481 -14 q 177 45 233 -14 q 121 204 121 104 q 125 260 121 231 l 221 946 l 253 946 l 157 261 q 153 207 153 232 q 201 67 153 118 q 350 17 249 17 q 534 85 468 17 q 615 263 600 154 l 711 946 l 742 946 l 731 869 q 798 907 779 879 q 817 985 817 935 q 807 1054 817 1029 l 832 1061 q 844 983 844 1021 z "},"Ự":{"ha":800,"x_min":121,"x_max":844,"o":"m 844 983 q 817 888 844 921 q 728 846 789 856 l 646 258 q 556 62 631 138 q 350 -14 481 -14 q 177 45 233 -14 q 121 204 121 104 q 125 260 121 231 l 221 946 l 253 946 l 157 261 q 153 207 153 232 q 201 67 153 118 q 350 17 249 17 q 534 85 468 17 q 615 263 600 154 l 711 946 l 742 946 l 731 869 q 798 907 779 879 q 817 985 817 935 q 807 1054 817 1029 l 832 1061 q 844 983 844 1021 m 332 -137 q 349 -144 343 -137 q 356 -161 356 -151 q 348 -182 356 -174 q 326 -190 340 -190 q 308 -184 315 -190 q 301 -167 301 -178 q 310 -147 301 -156 q 332 -137 319 -137 z "},"Ừ":{"ha":800,"x_min":121,"x_max":844,"o":"m 619 1081 l 607 1061 l 399 1161 l 418 1193 l 619 1081 m 844 983 q 817 888 844 921 q 728 846 789 856 l 646 258 q 556 62 631 138 q 350 -14 481 -14 q 177 45 233 -14 q 121 204 121 104 q 125 260 121 231 l 221 946 l 253 946 l 157 261 q 153 207 153 232 q 201 67 153 118 q 350 17 249 17 q 534 85 468 17 q 615 263 600 154 l 711 946 l 742 946 l 731 869 q 798 907 779 879 q 817 985 817 935 q 807 1054 817 1029 l 832 1061 q 844 983 844 1021 z "},"Ử":{"ha":800,"x_min":121,"x_max":844,"o":"m 536 1301 q 499 1297 515 1301 q 463 1282 483 1292 l 453 1306 q 538 1329 496 1329 q 601 1306 578 1329 q 625 1244 625 1283 q 598 1176 625 1201 q 524 1144 571 1151 l 517 1086 l 488 1086 l 496 1165 q 593 1244 593 1171 q 578 1287 593 1272 q 536 1301 564 1301 m 844 983 q 817 888 844 921 q 728 846 789 856 l 646 258 q 556 62 631 138 q 350 -14 481 -14 q 177 45 233 -14 q 121 204 121 104 q 125 260 121 231 l 221 946 l 253 946 l 157 261 q 153 207 153 232 q 201 67 153 118 q 350 17 249 17 q 534 85 468 17 q 615 263 600 154 l 711 946 l 742 946 l 731 869 q 798 907 779 879 q 817 985 817 935 q 807 1054 817 1029 l 832 1061 q 844 983 844 1021 z "},"Ữ":{"ha":800,"x_min":121,"x_max":844,"o":"m 440 1176 q 401 1165 418 1176 q 360 1126 385 1154 l 342 1140 q 440 1204 393 1204 q 474 1197 458 1204 q 513 1174 490 1189 q 549 1152 533 1160 q 582 1144 565 1144 q 621 1158 603 1144 q 663 1201 639 1171 l 682 1189 q 582 1117 635 1117 q 543 1125 561 1117 q 503 1149 525 1133 q 468 1170 481 1164 q 440 1176 456 1176 m 844 983 q 817 888 844 921 q 728 846 789 856 l 646 258 q 556 62 631 138 q 350 -14 481 -14 q 177 45 233 -14 q 121 204 121 104 q 125 260 121 231 l 221 946 l 253 946 l 157 261 q 153 207 153 232 q 201 67 153 118 q 350 17 249 17 q 534 85 468 17 q 615 263 600 154 l 711 946 l 742 946 l 731 869 q 798 907 779 879 q 817 985 817 935 q 807 1054 817 1029 l 832 1061 q 844 983 844 1021 z "},"Ű":{"ha":800,"x_min":121,"x_max":742,"o":"m 646 258 q 556 62 631 138 q 350 -14 481 -14 q 177 45 233 -14 q 121 204 121 104 q 125 260 121 231 l 221 946 l 253 946 l 157 261 q 153 207 153 232 q 201 67 153 118 q 350 17 249 17 q 534 85 468 17 q 615 263 600 154 l 711 946 l 742 946 l 646 258 m 663 1274 l 692 1258 l 569 1081 l 547 1093 l 663 1274 m 524 1272 l 553 1256 l 438 1086 l 418 1097 l 524 1272 z "},"Ȗ":{"ha":800,"x_min":121,"x_max":742,"o":"m 646 258 q 556 62 631 138 q 350 -14 481 -14 q 177 45 233 -14 q 121 204 121 104 q 125 260 121 231 l 221 946 l 253 946 l 157 261 q 153 207 153 232 q 201 67 153 118 q 350 17 249 17 q 534 85 468 17 q 615 263 600 154 l 711 946 l 742 946 l 646 258 m 364 1114 q 420 1199 381 1167 q 514 1232 460 1232 q 602 1199 569 1232 q 638 1111 635 1165 l 614 1108 q 514 1203 603 1203 q 435 1178 468 1203 q 385 1107 403 1153 l 364 1114 z "},"Ū":{"ha":800,"x_min":121,"x_max":742,"o":"m 646 258 q 556 62 631 138 q 350 -14 481 -14 q 177 45 233 -14 q 121 204 121 104 q 125 260 121 231 l 221 946 l 253 946 l 157 261 q 153 207 153 232 q 201 67 153 118 q 350 17 249 17 q 534 85 468 17 q 615 263 600 154 l 711 946 l 742 946 l 646 258 m 636 1126 l 375 1126 l 379 1156 l 640 1156 l 636 1126 z "},"Ų":{"ha":800,"x_min":121,"x_max":742,"o":"m 742 946 l 646 258 q 581 90 633 160 q 438 -3 528 21 q 324 -77 363 -40 q 286 -169 286 -114 q 309 -230 286 -208 q 374 -251 332 -251 q 440 -242 403 -251 l 438 -272 q 369 -282 400 -282 q 283 -251 313 -282 q 253 -171 253 -221 q 284 -83 253 -121 q 376 -12 315 -44 q 350 -14 368 -14 q 177 45 233 -14 q 121 204 121 104 q 125 260 121 231 l 221 946 l 253 946 l 157 261 q 153 207 153 232 q 201 67 153 118 q 350 17 249 17 q 534 85 468 17 q 615 263 600 154 l 711 946 l 742 946 z "},"Ʊ":{"ha":881,"x_min":110,"x_max":832,"o":"m 383 -14 q 182 76 254 -14 q 110 332 110 167 q 178 679 110 518 q 385 917 246 840 l 218 917 l 222 946 l 433 946 l 431 917 q 211 678 281 840 q 142 331 142 515 q 205 97 142 178 q 383 15 268 15 q 597 104 510 15 q 727 328 685 193 q 769 603 769 464 q 617 917 769 821 l 621 946 l 832 946 l 826 917 l 661 917 q 803 604 803 818 q 756 313 803 456 q 613 78 708 171 q 383 -14 518 -14 z "},"Ů":{"ha":800,"x_min":121,"x_max":742,"o":"m 646 258 q 556 62 631 138 q 350 -14 481 -14 q 177 45 233 -14 q 121 204 121 104 q 125 260 121 231 l 221 946 l 253 946 l 157 261 q 153 207 153 232 q 201 67 153 118 q 350 17 249 17 q 534 85 468 17 q 615 263 600 154 l 711 946 l 742 946 l 646 258 m 529 1288 q 594 1263 571 1288 q 618 1196 618 1238 q 585 1104 618 1139 q 503 1069 553 1069 q 438 1095 463 1069 q 414 1161 414 1121 q 447 1253 414 1218 q 529 1288 479 1288 m 528 1263 q 466 1235 489 1263 q 442 1164 443 1207 q 458 1113 442 1132 q 504 1094 474 1094 q 566 1122 543 1094 q 590 1193 589 1150 q 574 1244 590 1225 q 528 1263 558 1263 z "},"Ũ":{"ha":800,"x_min":121,"x_max":742,"o":"m 646 258 q 556 62 631 138 q 350 -14 481 -14 q 177 45 233 -14 q 121 204 121 104 q 125 260 121 231 l 221 946 l 253 946 l 157 261 q 153 207 153 232 q 201 67 153 118 q 350 17 249 17 q 534 85 468 17 q 615 263 600 154 l 711 946 l 742 946 l 646 258 m 582 1117 q 543 1125 561 1117 q 503 1149 525 1133 q 468 1170 481 1164 q 440 1176 456 1176 q 401 1165 418 1176 q 360 1126 385 1154 l 342 1140 q 440 1204 393 1204 q 474 1197 458 1204 q 513 1174 490 1189 q 549 1152 533 1160 q 582 1144 565 1144 q 621 1158 603 1144 q 663 1201 639 1171 l 682 1189 q 582 1117 635 1117 z "},"Ṹ":{"ha":800,"x_min":121,"x_max":742,"o":"m 646 258 q 556 62 631 138 q 350 -14 481 -14 q 177 45 233 -14 q 121 204 121 104 q 125 260 121 231 l 221 946 l 253 946 l 157 261 q 153 207 153 232 q 201 67 153 118 q 350 17 249 17 q 534 85 468 17 q 615 263 600 154 l 711 946 l 742 946 l 646 258 m 575 1051 q 536 1060 554 1051 q 496 1083 518 1068 q 461 1105 474 1099 q 433 1111 449 1111 q 394 1100 411 1111 q 353 1061 378 1089 l 335 1075 q 433 1139 386 1139 q 467 1131 451 1139 q 506 1108 483 1124 q 542 1087 526 1094 q 575 1079 558 1079 q 614 1092 596 1079 q 656 1136 632 1106 l 675 1124 q 575 1051 628 1051 m 628 1324 l 642 1290 l 403 1190 l 393 1211 l 628 1324 z "},"V":{"ha":678,"x_min":121,"x_max":721,"o":"m 721 946 l 307 0 l 268 0 l 121 946 l 153 946 l 292 31 l 688 946 l 721 946 z "},"Ʋ":{"ha":789,"x_min":118,"x_max":731,"o":"m 647 960 q 708 937 686 960 q 731 871 731 914 q 728 843 731 863 l 663 381 q 542 86 635 186 q 318 -14 450 -14 q 171 40 224 -14 q 118 188 118 94 q 121 235 118 218 l 221 946 l 253 946 l 153 235 q 149 188 149 210 q 194 62 149 107 q 319 17 239 17 q 523 110 439 17 q 632 386 607 203 l 696 843 q 699 871 699 863 q 643 933 699 933 q 585 918 618 933 l 574 940 q 647 960 610 960 z "},"Ʌ":{"ha":707,"x_min":-12,"x_max":618,"o":"m 454 946 l 618 0 l 585 0 l 432 921 l 21 0 l -12 0 l 415 946 l 454 946 z "},"W":{"ha":994,"x_min":132,"x_max":1026,"o":"m 1026 946 l 696 0 l 658 0 l 575 915 l 235 0 l 197 0 l 132 946 l 163 946 l 221 36 l 560 946 l 599 946 l 682 33 l 994 946 l 1026 946 z "},"Ẃ":{"ha":994,"x_min":132,"x_max":1026,"o":"m 1026 946 l 696 0 l 658 0 l 575 915 l 235 0 l 197 0 l 132 946 l 163 946 l 221 36 l 560 946 l 599 946 l 682 33 l 994 946 l 1026 946 m 707 1194 l 721 1161 l 482 1061 l 472 1082 l 707 1194 z "},"Ŵ":{"ha":994,"x_min":132,"x_max":1026,"o":"m 1026 946 l 696 0 l 658 0 l 575 915 l 235 0 l 197 0 l 132 946 l 163 946 l 221 36 l 560 946 l 599 946 l 682 33 l 994 946 l 1026 946 m 446 1064 l 432 1082 l 600 1207 l 617 1207 l 749 1082 l 732 1064 l 607 1174 l 446 1064 z "},"Ẅ":{"ha":994,"x_min":132,"x_max":1026,"o":"m 1026 946 l 696 0 l 658 0 l 575 915 l 235 0 l 197 0 l 132 946 l 163 946 l 221 36 l 560 946 l 599 946 l 682 33 l 994 946 l 1026 946 m 499 1110 q 481 1116 488 1110 q 475 1133 475 1122 q 483 1154 475 1146 q 504 1163 490 1163 q 521 1156 514 1163 q 528 1139 528 1150 q 519 1118 528 1126 q 499 1110 511 1110 m 708 1110 q 690 1116 697 1110 q 683 1133 683 1122 q 691 1154 683 1146 q 713 1163 699 1163 q 730 1156 724 1163 q 736 1139 736 1150 q 728 1118 736 1126 q 708 1110 721 1110 z "},"Ẁ":{"ha":994,"x_min":132,"x_max":1026,"o":"m 1026 946 l 696 0 l 658 0 l 575 915 l 235 0 l 197 0 l 132 946 l 163 946 l 221 36 l 560 946 l 599 946 l 682 33 l 994 946 l 1026 946 m 515 1193 l 717 1081 l 704 1061 l 496 1161 l 515 1193 z "},"Ⱳ":{"ha":1026,"x_min":132,"x_max":1188,"o":"m 235 0 l 575 915 l 658 0 l 696 0 l 989 851 q 1026 914 1004 894 q 1082 933 1049 933 q 1127 922 1107 933 q 1169 889 1147 910 l 1188 907 q 1081 960 1140 960 q 1010 937 1039 960 q 963 861 981 914 l 682 33 l 599 946 l 560 946 l 221 36 l 163 946 l 132 946 l 197 0 l 235 0 z "},"Ƿ":{"ha":694,"x_min":101,"x_max":681,"o":"m 489 960 q 629 906 578 960 q 681 758 681 853 q 588 515 681 604 q 324 364 494 426 l 178 311 l 133 0 l 101 0 l 235 946 l 267 946 l 254 861 q 363 933 306 907 q 489 960 419 960 m 324 393 q 565 533 481 450 q 649 758 649 617 q 606 886 649 842 q 488 931 563 931 q 360 903 417 931 q 250 828 303 875 l 182 340 l 324 393 z "},"X":{"ha":608,"x_min":-32,"x_max":632,"o":"m 632 946 l 340 513 l 538 0 l 504 0 l 319 489 l 3 0 l -32 0 l 303 514 l 132 946 l 167 946 l 324 536 l 597 946 l 632 946 z "},"Y":{"ha":619,"x_min":108,"x_max":675,"o":"m 675 946 l 329 375 l 275 0 l 244 0 l 297 375 l 108 946 l 140 946 l 315 407 l 640 946 l 675 946 z "},"Ý":{"ha":619,"x_min":108,"x_max":675,"o":"m 675 946 l 329 375 l 275 0 l 244 0 l 297 375 l 108 946 l 140 946 l 315 407 l 640 946 l 675 946 m 517 1194 l 531 1161 l 292 1061 l 282 1082 l 517 1194 z "},"Ŷ":{"ha":619,"x_min":108,"x_max":675,"o":"m 675 946 l 329 375 l 275 0 l 244 0 l 297 375 l 108 946 l 140 946 l 315 407 l 640 946 l 675 946 m 256 1064 l 242 1082 l 410 1207 l 426 1207 l 558 1082 l 542 1064 l 417 1174 l 256 1064 z "},"Ÿ":{"ha":619,"x_min":108,"x_max":675,"o":"m 675 946 l 329 375 l 275 0 l 244 0 l 297 375 l 108 946 l 140 946 l 315 407 l 640 946 l 675 946 m 308 1110 q 291 1116 297 1110 q 285 1133 285 1122 q 292 1154 285 1146 q 314 1163 300 1163 q 331 1156 324 1163 q 338 1139 338 1150 q 329 1118 338 1126 q 308 1110 321 1110 m 518 1110 q 500 1116 507 1110 q 493 1133 493 1122 q 501 1154 493 1146 q 522 1163 508 1163 q 540 1156 533 1163 q 546 1139 546 1150 q 538 1118 546 1126 q 518 1110 531 1110 z "},"Ỵ":{"ha":619,"x_min":108,"x_max":675,"o":"m 675 946 l 329 375 l 275 0 l 244 0 l 297 375 l 108 946 l 140 946 l 315 407 l 640 946 l 675 946 m 242 -137 q 258 -144 251 -137 q 265 -161 265 -151 q 258 -182 265 -174 q 236 -190 250 -190 q 218 -184 225 -190 q 211 -167 211 -178 q 219 -147 211 -156 q 242 -137 228 -137 z "},"Ỳ":{"ha":619,"x_min":108,"x_max":675,"o":"m 675 946 l 329 375 l 275 0 l 244 0 l 297 375 l 108 946 l 140 946 l 315 407 l 640 946 l 675 946 m 325 1193 l 526 1081 l 514 1061 l 306 1161 l 325 1193 z "},"Ƴ":{"ha":643,"x_min":108,"x_max":807,"o":"m 297 375 l 108 946 l 142 946 l 317 407 l 571 863 q 631 938 601 915 q 701 960 660 960 q 807 907 760 960 l 789 889 q 701 933 747 933 q 646 915 668 933 q 597 851 624 897 l 329 375 l 275 0 l 244 0 l 297 375 z "},"Ỷ":{"ha":619,"x_min":108,"x_max":675,"o":"m 675 946 l 329 375 l 275 0 l 244 0 l 297 375 l 108 946 l 140 946 l 315 407 l 640 946 l 675 946 m 403 1165 q 500 1244 500 1171 q 485 1287 500 1272 q 443 1301 471 1301 q 406 1297 422 1301 q 369 1282 390 1292 l 360 1306 q 444 1329 403 1329 q 508 1306 485 1329 q 532 1244 532 1283 q 505 1176 532 1201 q 431 1144 478 1151 l 424 1086 l 394 1086 l 403 1165 z "},"Ȳ":{"ha":619,"x_min":108,"x_max":675,"o":"m 675 946 l 329 375 l 275 0 l 244 0 l 297 375 l 108 946 l 140 946 l 315 407 l 640 946 l 675 946 m 543 1126 l 282 1126 l 286 1156 l 547 1156 l 543 1126 z "},"Ʀ":{"ha":711,"x_min":101,"x_max":647,"o":"m 647 560 q 588 372 647 454 q 404 269 528 290 l 579 -185 l 546 -185 l 372 265 l 171 265 l 133 0 l 101 0 l 235 946 l 267 946 l 240 763 l 393 763 q 586 711 525 763 q 647 560 647 660 m 349 294 q 502 333 443 294 q 588 433 561 372 q 614 560 614 493 q 563 690 614 647 q 394 732 513 732 l 236 732 l 175 294 l 349 294 z "},"Ɏ":{"ha":625,"x_min":86,"x_max":678,"o":"m 596 811 l 663 811 l 657 788 l 582 788 l 332 376 l 279 0 l 247 0 l 300 375 l 164 788 l 86 788 l 90 811 l 156 811 l 111 946 l 146 946 l 189 811 l 563 811 l 643 946 l 678 946 l 596 811 m 319 407 l 549 788 l 197 788 l 319 407 z "},"Ỹ":{"ha":619,"x_min":108,"x_max":675,"o":"m 675 946 l 329 375 l 275 0 l 244 0 l 297 375 l 108 946 l 140 946 l 315 407 l 640 946 l 675 946 m 489 1117 q 450 1125 468 1117 q 410 1149 432 1133 q 375 1170 388 1164 q 347 1176 363 1176 q 308 1165 325 1176 q 267 1126 292 1154 l 249 1140 q 347 1204 300 1204 q 381 1197 365 1204 q 419 1174 397 1189 q 456 1152 440 1160 q 489 1144 472 1144 q 528 1158 510 1144 q 569 1201 546 1171 l 589 1189 q 489 1117 542 1117 z "},"Z":{"ha":635,"x_min":-1,"x_max":654,"o":"m -1 0 l 3 29 l 614 917 l 174 917 l 178 946 l 654 946 l 651 919 l 40 31 l 511 31 l 501 0 l -1 0 z "},"Ź":{"ha":635,"x_min":-1,"x_max":654,"o":"m -1 0 l 3 29 l 614 917 l 174 917 l 178 946 l 654 946 l 651 919 l 40 31 l 511 31 l 501 0 l -1 0 m 528 1194 l 542 1161 l 303 1061 l 293 1082 l 528 1194 z "},"Ž":{"ha":635,"x_min":-1,"x_max":654,"o":"m -1 0 l 3 29 l 614 917 l 174 917 l 178 946 l 654 946 l 651 919 l 40 31 l 511 31 l 501 0 l -1 0 m 578 1197 l 592 1181 l 424 1056 l 407 1056 l 275 1181 l 292 1197 l 418 1089 l 578 1197 z "},"Ż":{"ha":635,"x_min":-1,"x_max":654,"o":"m -1 0 l 3 29 l 614 917 l 174 917 l 178 946 l 654 946 l 651 919 l 40 31 l 511 31 l 501 0 l -1 0 m 424 1126 q 407 1133 414 1126 q 400 1150 400 1140 q 408 1171 400 1163 q 429 1179 415 1179 q 447 1173 440 1179 q 454 1156 454 1167 q 446 1135 454 1144 q 424 1126 438 1126 z "},"Ẓ":{"ha":635,"x_min":-1,"x_max":654,"o":"m -1 0 l 3 29 l 614 917 l 174 917 l 178 946 l 654 946 l 651 919 l 40 31 l 511 31 l 501 0 l -1 0 m 233 -137 q 250 -144 243 -137 q 257 -161 257 -151 q 249 -182 257 -174 q 228 -190 242 -190 q 210 -184 217 -190 q 203 -167 203 -178 q 211 -147 203 -156 q 233 -137 219 -137 z "},"Ȥ":{"ha":635,"x_min":-1,"x_max":654,"o":"m 651 919 l 40 31 l 508 31 l 504 0 l 486 -129 q 437 -237 476 -200 q 342 -274 397 -274 q 235 -231 281 -274 l 253 -211 q 292 -236 272 -228 q 342 -244 311 -244 q 415 -215 385 -244 q 454 -125 446 -186 l 472 0 l -1 0 l 3 29 l 614 917 l 174 917 l 178 946 l 654 946 l 651 919 z "},"Ƶ":{"ha":635,"x_min":-1,"x_max":654,"o":"m 654 946 l 651 919 l 357 490 l 497 490 l 492 461 l 336 461 l 40 31 l 511 31 l 501 0 l -1 0 l 3 29 l 300 461 l 156 461 l 160 490 l 321 490 l 614 917 l 174 917 l 178 946 l 654 946 z "},"ʙ":{"ha":635,"x_min":96,"x_max":572,"o":"m 414 390 q 563 247 563 379 q 482 64 563 128 q 272 0 401 0 l 96 0 l 196 714 q 379 735 297 735 q 524 692 476 735 q 572 575 572 649 q 529 451 572 500 q 414 390 486 401 m 183 403 l 363 403 q 493 451 446 403 q 540 579 540 500 q 502 673 540 639 q 379 707 464 707 q 225 690 304 707 l 183 403 m 274 29 q 460 85 390 29 q 531 247 531 142 q 491 343 531 311 q 368 375 451 375 l 181 375 l 131 29 l 274 29 z "},"ɢ":{"ha":685,"x_min":83,"x_max":593,"o":"m 415 738 q 512 720 469 738 q 593 668 554 703 l 572 647 q 417 710 506 710 q 255 648 324 710 q 150 483 186 586 q 114 263 114 381 q 168 78 114 138 q 321 18 222 18 q 494 63 415 18 l 535 350 l 381 350 l 381 378 l 571 378 l 524 46 q 319 -11 428 -11 q 146 58 208 -11 q 83 263 83 126 q 124 499 83 390 q 241 672 165 607 q 415 738 317 738 z "},"ʛ":{"ha":681,"x_min":83,"x_max":842,"o":"m 735 1024 q 842 981 796 1024 l 825 961 q 783 987 803 978 q 733 996 763 996 q 660 966 690 996 q 621 874 629 936 l 593 668 l 575 650 q 501 695 539 681 q 417 710 463 710 q 255 648 324 710 q 150 483 186 586 q 114 263 114 381 q 168 78 114 138 q 321 18 222 18 q 494 63 415 18 l 535 350 l 381 350 l 381 378 l 571 378 l 524 46 q 319 -11 428 -11 q 146 58 208 -11 q 83 263 83 126 q 124 499 83 390 q 241 672 165 607 q 415 738 317 738 q 567 690 503 738 l 592 876 q 640 985 601 947 q 735 1024 678 1024 z "},"ʜ":{"ha":728,"x_min":96,"x_max":633,"o":"m 500 0 l 551 364 l 178 364 l 126 0 l 96 0 l 197 721 l 228 721 l 182 392 l 556 392 l 603 721 l 633 721 l 531 0 l 500 0 z "},"ɪ":{"ha":376,"x_min":-15,"x_max":392,"o":"m 388 696 l 250 696 l 157 25 l 294 25 l 290 0 l -15 0 l -11 25 l 126 25 l 219 696 l 82 696 l 86 721 l 392 721 l 388 696 z "},"ʟ":{"ha":494,"x_min":96,"x_max":438,"o":"m 228 721 l 131 29 l 438 29 l 428 0 l 96 0 l 197 721 l 228 721 z "},"ɴ":{"ha":729,"x_min":96,"x_max":633,"o":"m 532 0 l 493 0 l 218 690 q 196 506 210 597 l 125 0 l 96 0 l 197 721 l 236 721 l 511 31 l 531 201 q 536 243 533 215 l 604 721 l 633 721 l 532 0 z "},"ɶ":{"ha":890,"x_min":82,"x_max":879,"o":"m 871 693 l 533 693 q 599 605 575 664 q 622 465 622 546 q 619 396 622 443 l 785 396 l 779 368 l 615 368 q 554 165 600 257 q 433 29 508 72 l 786 29 l 782 0 l 375 0 q 296 -14 336 -14 q 138 58 193 -14 q 82 256 82 129 q 116 474 82 364 q 223 660 150 585 q 408 735 296 735 q 488 721 450 735 l 879 721 l 871 693 m 590 469 q 544 645 590 583 q 408 707 497 707 q 239 635 306 707 q 143 458 172 563 q 114 254 114 353 q 161 77 114 139 q 296 15 208 15 q 465 88 399 15 q 560 264 531 160 q 590 469 590 368 z "},"ʀ":{"ha":636,"x_min":96,"x_max":565,"o":"m 565 549 q 511 398 565 451 q 368 328 457 344 l 517 0 l 483 0 l 336 325 l 172 325 l 126 0 l 96 0 l 197 721 l 347 721 q 565 549 565 721 m 314 353 q 474 403 414 353 q 535 549 535 454 q 489 657 535 621 q 344 693 443 693 l 224 693 l 176 353 l 314 353 z "},"ʁ":{"ha":636,"x_min":96,"x_max":618,"o":"m 379 392 q 481 339 443 379 q 519 231 519 299 q 446 58 519 115 q 246 0 372 0 l 96 0 l 197 721 l 228 721 l 182 396 l 349 396 l 583 721 l 618 721 l 379 392 m 244 29 q 488 231 488 29 q 444 334 488 300 q 326 368 401 368 l 178 368 l 131 29 l 244 29 z "},"ʏ":{"ha":532,"x_min":82,"x_max":551,"o":"m 551 721 l 274 294 l 232 0 l 201 0 l 243 293 l 82 721 l 114 721 l 260 321 l 518 721 l 551 721 z "},"a":{"ha":693,"x_min":81,"x_max":600,"o":"m 422 735 q 600 683 518 735 l 525 156 q 518 86 518 110 q 528 39 518 57 q 560 10 538 21 l 550 -14 q 505 25 519 0 q 490 92 490 50 q 493 132 490 104 q 397 25 453 64 q 276 -14 342 -14 q 133 56 185 -14 q 81 247 81 126 q 117 474 81 361 q 230 660 153 586 q 422 735 307 735 m 422 708 q 247 638 317 708 q 145 461 178 567 q 113 249 113 356 q 156 77 113 139 q 278 15 199 15 q 499 182 404 15 l 568 669 q 422 708 504 708 z "},"á":{"ha":693,"x_min":81,"x_max":600,"o":"m 422 735 q 600 683 518 735 l 525 156 q 518 86 518 110 q 528 39 518 57 q 560 10 538 21 l 550 -14 q 505 25 519 0 q 490 92 490 50 q 493 132 490 104 q 397 25 453 64 q 276 -14 342 -14 q 133 56 185 -14 q 81 247 81 126 q 117 474 81 361 q 230 660 153 586 q 422 735 307 735 m 422 708 q 247 638 317 708 q 145 461 178 567 q 113 249 113 356 q 156 77 113 139 q 278 15 199 15 q 499 182 404 15 l 568 669 q 422 708 504 708 m 578 1057 l 590 1025 l 350 908 l 340 929 l 578 1057 z "},"ă":{"ha":693,"x_min":81,"x_max":608,"o":"m 422 735 q 600 683 518 735 l 525 156 q 518 86 518 110 q 528 39 518 57 q 560 10 538 21 l 550 -14 q 505 25 519 0 q 490 92 490 50 q 493 132 490 104 q 397 25 453 64 q 276 -14 342 -14 q 133 56 185 -14 q 81 247 81 126 q 117 474 81 361 q 230 660 153 586 q 422 735 307 735 m 422 708 q 247 638 317 708 q 145 461 178 567 q 113 249 113 356 q 156 77 113 139 q 278 15 199 15 q 499 182 404 15 l 568 669 q 422 708 504 708 m 456 919 q 368 953 400 919 q 333 1040 336 986 l 357 1043 q 456 950 368 950 q 534 975 500 950 q 586 1046 568 1000 l 608 1038 q 551 952 592 985 q 456 919 510 919 z "},"ắ":{"ha":693,"x_min":81,"x_max":600,"o":"m 576 1133 l 600 1110 l 447 954 l 432 969 l 576 1133 m 442 826 q 353 858 388 826 q 317 933 319 889 l 339 936 q 372 878 346 900 q 442 856 399 856 q 518 878 486 856 q 568 938 550 900 l 592 931 q 535 856 575 886 q 442 826 496 826 m 422 735 q 600 683 518 735 l 525 156 q 518 86 518 110 q 528 39 518 57 q 560 10 538 21 l 550 -14 q 505 25 519 0 q 490 92 490 50 q 493 132 490 104 q 397 25 453 64 q 276 -14 342 -14 q 133 56 185 -14 q 81 247 81 126 q 117 474 81 361 q 230 660 153 586 q 422 735 307 735 m 422 708 q 247 638 317 708 q 145 461 178 567 q 113 249 113 356 q 156 77 113 139 q 278 15 199 15 q 499 182 404 15 l 568 669 q 422 708 504 708 z "},"ặ":{"ha":693,"x_min":81,"x_max":608,"o":"m 422 735 q 600 683 518 735 l 525 156 q 518 86 518 110 q 528 39 518 57 q 560 10 538 21 l 550 -14 q 505 25 519 0 q 490 92 490 50 q 493 132 490 104 q 397 25 453 64 q 276 -14 342 -14 q 133 56 185 -14 q 81 247 81 126 q 117 474 81 361 q 230 660 153 586 q 422 735 307 735 m 422 708 q 247 638 317 708 q 145 461 178 567 q 113 249 113 356 q 156 77 113 139 q 278 15 199 15 q 499 182 404 15 l 568 669 q 422 708 504 708 m 456 919 q 368 953 400 919 q 333 1040 336 986 l 357 1043 q 456 950 368 950 q 534 975 500 950 q 586 1046 568 1000 l 608 1038 q 551 952 592 985 q 456 919 510 919 m 307 -137 q 324 -144 317 -137 q 331 -161 331 -151 q 323 -182 331 -174 q 301 -190 315 -190 q 283 -184 290 -190 q 276 -167 276 -178 q 285 -147 276 -156 q 307 -137 293 -137 z "},"ằ":{"ha":693,"x_min":81,"x_max":600,"o":"m 367 1133 l 465 967 l 447 954 l 338 1114 l 367 1133 m 442 826 q 353 858 388 826 q 317 933 319 889 l 339 936 q 372 878 346 900 q 442 856 399 856 q 518 878 486 856 q 568 938 550 900 l 592 931 q 535 856 575 886 q 442 826 496 826 m 422 735 q 600 683 518 735 l 525 156 q 518 86 518 110 q 528 39 518 57 q 560 10 538 21 l 550 -14 q 505 25 519 0 q 490 92 490 50 q 493 132 490 104 q 397 25 453 64 q 276 -14 342 -14 q 133 56 185 -14 q 81 247 81 126 q 117 474 81 361 q 230 660 153 586 q 422 735 307 735 m 422 708 q 247 638 317 708 q 145 461 178 567 q 113 249 113 356 q 156 77 113 139 q 278 15 199 15 q 499 182 404 15 l 568 669 q 422 708 504 708 z "},"ẳ":{"ha":693,"x_min":81,"x_max":600,"o":"m 422 735 q 600 683 518 735 l 525 156 q 518 86 518 110 q 528 39 518 57 q 560 10 538 21 l 550 -14 q 505 25 519 0 q 490 92 490 50 q 493 132 490 104 q 397 25 453 64 q 276 -14 342 -14 q 133 56 185 -14 q 81 247 81 126 q 117 474 81 361 q 230 660 153 586 q 422 735 307 735 m 422 708 q 247 638 317 708 q 145 461 178 567 q 113 249 113 356 q 156 77 113 139 q 278 15 199 15 q 499 182 404 15 l 568 669 q 422 708 504 708 m 442 826 q 353 858 388 826 q 317 933 319 889 l 339 936 q 372 878 346 900 q 442 856 399 856 q 518 878 486 856 q 568 938 550 900 l 592 931 q 535 856 575 886 q 442 826 496 826 m 446 1011 q 543 1090 543 1017 q 486 1149 543 1149 q 451 1144 465 1149 q 414 1128 436 1139 l 403 1151 q 488 1176 443 1176 q 551 1153 528 1176 q 575 1090 575 1131 q 548 1022 575 1047 q 474 990 521 997 l 464 914 l 435 914 l 446 1011 z "},"ẵ":{"ha":693,"x_min":81,"x_max":642,"o":"m 542 1001 q 503 1010 521 1001 q 463 1033 485 1018 q 428 1055 440 1049 q 400 1061 415 1061 q 361 1050 378 1061 q 319 1011 344 1039 l 301 1025 q 400 1089 353 1089 q 434 1081 418 1089 q 472 1058 450 1074 q 509 1037 493 1044 q 542 1029 525 1029 q 581 1042 563 1029 q 622 1086 599 1056 l 642 1074 q 542 1001 594 1001 m 444 826 q 356 858 390 826 q 319 933 322 889 l 342 936 q 375 878 349 900 q 444 856 401 856 q 521 878 489 856 q 571 938 553 900 l 594 931 q 538 856 578 886 q 444 826 499 826 m 422 735 q 600 683 518 735 l 525 156 q 518 86 518 110 q 528 39 518 57 q 560 10 538 21 l 550 -14 q 505 25 519 0 q 490 92 490 50 q 493 132 490 104 q 397 25 453 64 q 276 -14 342 -14 q 133 56 185 -14 q 81 247 81 126 q 117 474 81 361 q 230 660 153 586 q 422 735 307 735 m 422 708 q 247 638 317 708 q 145 461 178 567 q 113 249 113 356 q 156 77 113 139 q 278 15 199 15 q 499 182 404 15 l 568 669 q 422 708 504 708 z "},"ǎ":{"ha":693,"x_min":81,"x_max":631,"o":"m 422 735 q 600 683 518 735 l 525 156 q 518 86 518 110 q 528 39 518 57 q 560 10 538 21 l 550 -14 q 505 25 519 0 q 490 92 490 50 q 493 132 490 104 q 397 25 453 64 q 276 -14 342 -14 q 133 56 185 -14 q 81 247 81 126 q 117 474 81 361 q 230 660 153 586 q 422 735 307 735 m 422 708 q 247 638 317 708 q 145 461 178 567 q 113 249 113 356 q 156 77 113 139 q 278 15 199 15 q 499 182 404 15 l 568 669 q 422 708 504 708 m 615 1040 l 631 1022 l 461 890 l 444 890 l 313 1022 l 331 1040 l 456 924 l 615 1040 z "},"â":{"ha":693,"x_min":81,"x_max":615,"o":"m 422 735 q 600 683 518 735 l 525 156 q 518 86 518 110 q 528 39 518 57 q 560 10 538 21 l 550 -14 q 505 25 519 0 q 490 92 490 50 q 493 132 490 104 q 397 25 453 64 q 276 -14 342 -14 q 133 56 185 -14 q 81 247 81 126 q 117 474 81 361 q 230 660 153 586 q 422 735 307 735 m 422 708 q 247 638 317 708 q 145 461 178 567 q 113 249 113 356 q 156 77 113 139 q 278 15 199 15 q 499 182 404 15 l 568 669 q 422 708 504 708 m 313 908 l 297 926 l 467 1058 l 483 1058 l 615 926 l 597 908 l 472 1025 l 313 908 z "},"ấ":{"ha":693,"x_min":81,"x_max":708,"o":"m 685 1114 l 708 1090 l 556 935 l 540 950 l 685 1114 m 292 814 l 278 832 l 446 957 l 463 957 l 594 832 l 578 814 l 453 924 l 292 814 m 422 735 q 600 683 518 735 l 525 156 q 518 86 518 110 q 528 39 518 57 q 560 10 538 21 l 550 -14 q 505 25 519 0 q 490 92 490 50 q 493 132 490 104 q 397 25 453 64 q 276 -14 342 -14 q 133 56 185 -14 q 81 247 81 126 q 117 474 81 361 q 230 660 153 586 q 422 735 307 735 m 422 708 q 247 638 317 708 q 145 461 178 567 q 113 249 113 356 q 156 77 113 139 q 278 15 199 15 q 499 182 404 15 l 568 669 q 422 708 504 708 z "},"ậ":{"ha":693,"x_min":81,"x_max":615,"o":"m 422 735 q 600 683 518 735 l 525 156 q 518 86 518 110 q 528 39 518 57 q 560 10 538 21 l 550 -14 q 505 25 519 0 q 490 92 490 50 q 493 132 490 104 q 397 25 453 64 q 276 -14 342 -14 q 133 56 185 -14 q 81 247 81 126 q 117 474 81 361 q 230 660 153 586 q 422 735 307 735 m 422 708 q 247 638 317 708 q 145 461 178 567 q 113 249 113 356 q 156 77 113 139 q 278 15 199 15 q 499 182 404 15 l 568 669 q 422 708 504 708 m 313 908 l 297 926 l 467 1058 l 483 1058 l 615 926 l 597 908 l 472 1025 l 313 908 m 307 -137 q 324 -144 317 -137 q 331 -161 331 -151 q 323 -182 331 -174 q 301 -190 315 -190 q 283 -184 290 -190 q 276 -167 276 -178 q 285 -147 276 -156 q 307 -137 293 -137 z "},"ầ":{"ha":693,"x_min":81,"x_max":600,"o":"m 256 1114 l 354 947 l 336 935 l 226 1094 l 256 1114 m 292 814 l 278 832 l 446 957 l 463 957 l 594 832 l 578 814 l 453 924 l 292 814 m 422 735 q 600 683 518 735 l 525 156 q 518 86 518 110 q 528 39 518 57 q 560 10 538 21 l 550 -14 q 505 25 519 0 q 490 92 490 50 q 493 132 490 104 q 397 25 453 64 q 276 -14 342 -14 q 133 56 185 -14 q 81 247 81 126 q 117 474 81 361 q 230 660 153 586 q 422 735 307 735 m 422 708 q 247 638 317 708 q 145 461 178 567 q 113 249 113 356 q 156 77 113 139 q 278 15 199 15 q 499 182 404 15 l 568 669 q 422 708 504 708 z "},"ẩ":{"ha":693,"x_min":81,"x_max":717,"o":"m 422 735 q 600 683 518 735 l 525 156 q 518 86 518 110 q 528 39 518 57 q 560 10 538 21 l 550 -14 q 505 25 519 0 q 490 92 490 50 q 493 132 490 104 q 397 25 453 64 q 276 -14 342 -14 q 133 56 185 -14 q 81 247 81 126 q 117 474 81 361 q 230 660 153 586 q 422 735 307 735 m 422 708 q 247 638 317 708 q 145 461 178 567 q 113 249 113 356 q 156 77 113 139 q 278 15 199 15 q 499 182 404 15 l 568 669 q 422 708 504 708 m 290 814 l 276 832 l 444 957 l 461 957 l 593 832 l 576 814 l 451 924 l 290 814 m 588 1019 q 685 1099 685 1025 q 628 1157 685 1157 q 592 1152 607 1157 q 556 1136 578 1147 l 544 1160 q 629 1185 585 1185 q 693 1162 669 1185 q 717 1099 717 1139 q 690 1031 717 1056 q 615 999 663 1006 l 606 922 l 576 922 l 588 1019 z "},"ẫ":{"ha":693,"x_min":81,"x_max":638,"o":"m 538 1000 q 499 1008 517 1000 q 458 1032 481 1017 q 424 1053 436 1047 q 396 1060 411 1060 q 357 1049 374 1060 q 315 1010 340 1038 l 297 1024 q 396 1088 349 1088 q 430 1080 414 1088 q 468 1057 446 1072 q 505 1035 489 1043 q 538 1028 521 1028 q 576 1041 558 1028 q 618 1085 594 1054 l 638 1072 q 538 1000 590 1000 m 294 801 l 281 819 l 449 944 l 465 944 l 597 819 l 581 801 l 456 911 l 294 801 m 422 735 q 600 683 518 735 l 525 156 q 518 86 518 110 q 528 39 518 57 q 560 10 538 21 l 550 -14 q 505 25 519 0 q 490 92 490 50 q 493 132 490 104 q 397 25 453 64 q 276 -14 342 -14 q 133 56 185 -14 q 81 247 81 126 q 117 474 81 361 q 230 660 153 586 q 422 735 307 735 m 422 708 q 247 638 317 708 q 145 461 178 567 q 113 249 113 356 q 156 77 113 139 q 278 15 199 15 q 499 182 404 15 l 568 669 q 422 708 504 708 z "},"ȁ":{"ha":693,"x_min":81,"x_max":600,"o":"m 422 735 q 600 683 518 735 l 525 156 q 518 86 518 110 q 528 39 518 57 q 560 10 538 21 l 550 -14 q 505 25 519 0 q 490 92 490 50 q 493 132 490 104 q 397 25 453 64 q 276 -14 342 -14 q 133 56 185 -14 q 81 247 81 126 q 117 474 81 361 q 230 660 153 586 q 422 735 307 735 m 422 708 q 247 638 317 708 q 145 461 178 567 q 113 249 113 356 q 156 77 113 139 q 278 15 199 15 q 499 182 404 15 l 568 669 q 422 708 504 708 m 336 1099 l 400 917 l 375 906 l 301 1085 l 336 1099 m 475 1097 l 532 921 l 507 911 l 440 1082 l 475 1097 z "},"ä":{"ha":693,"x_min":81,"x_max":600,"o":"m 422 735 q 600 683 518 735 l 525 156 q 518 86 518 110 q 528 39 518 57 q 560 10 538 21 l 550 -14 q 505 25 519 0 q 490 92 490 50 q 493 132 490 104 q 397 25 453 64 q 276 -14 342 -14 q 133 56 185 -14 q 81 247 81 126 q 117 474 81 361 q 230 660 153 586 q 422 735 307 735 m 422 708 q 247 638 317 708 q 145 461 178 567 q 113 249 113 356 q 156 77 113 139 q 278 15 199 15 q 499 182 404 15 l 568 669 q 422 708 504 708 m 356 935 q 338 941 344 935 q 332 958 332 947 q 340 979 332 971 q 361 988 347 988 q 378 981 371 988 q 385 964 385 975 q 376 943 385 951 q 356 935 368 935 m 565 935 q 547 941 554 935 q 540 958 540 947 q 548 979 540 971 q 569 988 556 988 q 587 981 581 988 q 593 964 593 975 q 585 943 593 951 q 565 935 578 935 z "},"ǟ":{"ha":693,"x_min":81,"x_max":603,"o":"m 422 735 q 600 683 518 735 l 525 156 q 518 86 518 110 q 528 39 518 57 q 560 10 538 21 l 550 -14 q 505 25 519 0 q 490 92 490 50 q 493 132 490 104 q 397 25 453 64 q 276 -14 342 -14 q 133 56 185 -14 q 81 247 81 126 q 117 474 81 361 q 230 660 153 586 q 422 735 307 735 m 422 708 q 247 638 317 708 q 145 461 178 567 q 113 249 113 356 q 156 77 113 139 q 278 15 199 15 q 499 182 404 15 l 568 669 q 422 708 504 708 m 347 893 q 330 899 336 893 q 324 917 324 906 q 331 938 324 929 q 353 946 339 946 q 369 940 363 946 q 376 922 376 933 q 368 901 376 910 q 347 893 360 893 m 557 893 q 539 899 546 893 q 532 917 532 906 q 540 938 532 929 q 561 946 547 946 q 578 940 572 946 q 585 922 585 933 q 577 901 585 910 q 557 893 569 893 m 599 1046 l 338 1046 l 342 1075 l 603 1075 l 599 1046 z "},"ȧ":{"ha":693,"x_min":81,"x_max":600,"o":"m 422 735 q 600 683 518 735 l 525 156 q 518 86 518 110 q 528 39 518 57 q 560 10 538 21 l 550 -14 q 505 25 519 0 q 490 92 490 50 q 493 132 490 104 q 397 25 453 64 q 276 -14 342 -14 q 133 56 185 -14 q 81 247 81 126 q 117 474 81 361 q 230 660 153 586 q 422 735 307 735 m 422 708 q 247 638 317 708 q 145 461 178 567 q 113 249 113 356 q 156 77 113 139 q 278 15 199 15 q 499 182 404 15 l 568 669 q 422 708 504 708 m 463 951 q 446 958 453 951 q 439 975 439 965 q 447 996 439 988 q 468 1004 454 1004 q 486 998 479 1004 q 493 981 493 992 q 485 960 493 969 q 463 951 476 951 z "},"ạ":{"ha":693,"x_min":81,"x_max":600,"o":"m 422 735 q 600 683 518 735 l 525 156 q 518 86 518 110 q 528 39 518 57 q 560 10 538 21 l 550 -14 q 505 25 519 0 q 490 92 490 50 q 493 132 490 104 q 397 25 453 64 q 276 -14 342 -14 q 133 56 185 -14 q 81 247 81 126 q 117 474 81 361 q 230 660 153 586 q 422 735 307 735 m 422 708 q 247 638 317 708 q 145 461 178 567 q 113 249 113 356 q 156 77 113 139 q 278 15 199 15 q 499 182 404 15 l 568 669 q 422 708 504 708 m 307 -137 q 324 -144 317 -137 q 331 -161 331 -151 q 323 -182 331 -174 q 301 -190 315 -190 q 283 -184 290 -190 q 276 -167 276 -178 q 285 -147 276 -156 q 307 -137 293 -137 z "},"ǡ":{"ha":693,"x_min":81,"x_max":603,"o":"m 422 735 q 600 683 518 735 l 525 156 q 518 86 518 110 q 528 39 518 57 q 560 10 538 21 l 550 -14 q 505 25 519 0 q 490 92 490 50 q 493 132 490 104 q 397 25 453 64 q 276 -14 342 -14 q 133 56 185 -14 q 81 247 81 126 q 117 474 81 361 q 230 660 153 586 q 422 735 307 735 m 422 708 q 247 638 317 708 q 145 461 178 567 q 113 249 113 356 q 156 77 113 139 q 278 15 199 15 q 499 182 404 15 l 568 669 q 422 708 504 708 m 450 878 q 433 885 440 878 q 426 901 426 892 q 434 922 426 914 q 456 931 442 931 q 474 924 467 931 q 481 907 481 918 q 472 887 481 896 q 450 878 464 878 m 599 1035 l 338 1035 l 342 1064 l 603 1064 l 599 1035 z "},"à":{"ha":693,"x_min":81,"x_max":600,"o":"m 422 735 q 600 683 518 735 l 525 156 q 518 86 518 110 q 528 39 518 57 q 560 10 538 21 l 550 -14 q 505 25 519 0 q 490 92 490 50 q 493 132 490 104 q 397 25 453 64 q 276 -14 342 -14 q 133 56 185 -14 q 81 247 81 126 q 117 474 81 361 q 230 660 153 586 q 422 735 307 735 m 422 708 q 247 638 317 708 q 145 461 178 567 q 113 249 113 356 q 156 77 113 139 q 278 15 199 15 q 499 182 404 15 l 568 669 q 422 708 504 708 m 388 1056 l 589 928 l 575 908 l 368 1025 l 388 1056 z "},"ả":{"ha":693,"x_min":81,"x_max":600,"o":"m 422 735 q 600 683 518 735 l 525 156 q 518 86 518 110 q 528 39 518 57 q 560 10 538 21 l 550 -14 q 505 25 519 0 q 490 92 490 50 q 493 132 490 104 q 397 25 453 64 q 276 -14 342 -14 q 133 56 185 -14 q 81 247 81 126 q 117 474 81 361 q 230 660 153 586 q 422 735 307 735 m 422 708 q 247 638 317 708 q 145 461 178 567 q 113 249 113 356 q 156 77 113 139 q 278 15 199 15 q 499 182 404 15 l 568 669 q 422 708 504 708 m 443 961 q 540 1040 540 967 q 483 1099 540 1099 q 448 1094 463 1099 q 411 1078 433 1089 l 400 1101 q 485 1126 440 1126 q 549 1103 525 1126 q 572 1040 572 1081 q 545 972 572 997 q 471 940 518 947 l 461 864 l 432 864 l 443 961 z "},"ȃ":{"ha":693,"x_min":81,"x_max":600,"o":"m 422 735 q 600 683 518 735 l 525 156 q 518 86 518 110 q 528 39 518 57 q 560 10 538 21 l 550 -14 q 505 25 519 0 q 490 92 490 50 q 493 132 490 104 q 397 25 453 64 q 276 -14 342 -14 q 133 56 185 -14 q 81 247 81 126 q 117 474 81 361 q 230 660 153 586 q 422 735 307 735 m 422 708 q 247 638 317 708 q 145 461 178 567 q 113 249 113 356 q 156 77 113 139 q 278 15 199 15 q 499 182 404 15 l 568 669 q 422 708 504 708 m 311 889 q 367 974 328 942 q 461 1007 407 1007 q 549 974 517 1007 q 585 886 582 940 l 561 883 q 461 978 550 978 q 383 953 415 978 q 332 882 350 928 l 311 889 z "},"ɑ":{"ha":692,"x_min":81,"x_max":607,"o":"m 524 156 q 517 86 517 110 q 526 39 517 57 q 558 10 536 21 l 549 -14 q 503 25 518 0 q 489 92 489 50 q 492 132 489 104 q 397 24 451 63 q 276 -14 342 -14 q 132 56 183 -14 q 81 247 81 125 q 117 472 81 358 q 225 660 154 585 q 393 735 296 735 q 561 603 521 735 l 582 721 l 607 721 l 524 156 m 276 15 q 497 182 403 15 l 553 547 q 494 669 535 632 q 392 707 453 707 q 242 636 306 707 q 144 458 178 565 q 111 249 111 351 q 154 77 111 139 q 276 15 197 15 z "},"ɒ":{"ha":692,"x_min":85,"x_max":611,"o":"m 415 735 q 560 665 508 735 q 611 474 611 596 q 574 249 611 363 q 467 61 538 136 q 299 -14 396 -14 q 131 118 171 -14 l 110 0 l 85 0 l 168 565 q 175 635 175 611 q 165 682 175 664 q 133 711 156 700 l 143 735 q 188 696 174 721 q 203 629 203 671 q 200 589 203 617 q 295 697 240 658 q 415 735 350 735 m 300 14 q 450 85 386 14 q 547 263 514 156 q 581 472 581 369 q 538 644 581 582 q 415 706 494 706 q 194 539 289 706 l 139 174 q 198 51 157 89 q 300 14 239 14 z "},"ā":{"ha":693,"x_min":81,"x_max":600,"o":"m 422 735 q 600 683 518 735 l 525 156 q 518 86 518 110 q 528 39 518 57 q 560 10 538 21 l 550 -14 q 505 25 519 0 q 490 92 490 50 q 493 132 490 104 q 397 25 453 64 q 276 -14 342 -14 q 133 56 185 -14 q 81 247 81 126 q 117 474 81 361 q 230 660 153 586 q 422 735 307 735 m 422 708 q 247 638 317 708 q 145 461 178 567 q 113 249 113 356 q 156 77 113 139 q 278 15 199 15 q 499 182 404 15 l 568 669 q 422 708 504 708 m 590 951 l 329 951 l 333 981 l 594 981 l 590 951 z "},"ą":{"ha":693,"x_min":81,"x_max":600,"o":"m 525 156 q 518 86 518 110 q 528 39 518 57 q 560 10 538 21 l 550 -14 q 413 -95 457 -54 q 368 -193 368 -136 q 446 -265 368 -265 q 515 -256 475 -265 l 508 -286 q 443 -296 471 -296 q 365 -270 393 -296 q 336 -199 336 -244 q 383 -89 336 -133 q 528 -1 429 -44 q 490 92 490 28 q 493 132 490 104 q 397 25 453 64 q 276 -14 342 -14 q 133 56 185 -14 q 81 247 81 126 q 117 474 81 361 q 230 660 153 586 q 422 735 307 735 q 600 683 518 735 l 525 156 m 278 15 q 499 182 404 15 l 568 669 q 422 708 504 708 q 247 638 317 708 q 145 461 178 567 q 113 249 113 356 q 156 77 113 139 q 278 15 199 15 z "},"å":{"ha":693,"x_min":81,"x_max":600,"o":"m 422 735 q 600 683 518 735 l 525 156 q 518 86 518 110 q 528 39 518 57 q 560 10 538 21 l 550 -14 q 505 25 519 0 q 490 92 490 50 q 493 132 490 104 q 397 25 453 64 q 276 -14 342 -14 q 133 56 185 -14 q 81 247 81 126 q 117 474 81 361 q 230 660 153 586 q 422 735 307 735 m 422 708 q 247 638 317 708 q 145 461 178 567 q 113 249 113 356 q 156 77 113 139 q 278 15 199 15 q 499 182 404 15 l 568 669 q 422 708 504 708 m 482 1113 q 547 1088 524 1113 q 571 1021 571 1063 q 538 929 571 964 q 456 894 506 894 q 391 920 415 894 q 367 986 367 946 q 399 1078 367 1043 q 482 1113 432 1113 m 481 1088 q 419 1060 442 1088 q 394 989 396 1032 q 410 938 394 957 q 457 919 426 919 q 519 947 496 919 q 543 1018 542 975 q 527 1069 543 1050 q 481 1088 511 1088 z "},"ǻ":{"ha":693,"x_min":81,"x_max":600,"o":"m 422 735 q 600 683 518 735 l 525 156 q 518 86 518 110 q 528 39 518 57 q 560 10 538 21 l 550 -14 q 505 25 519 0 q 490 92 490 50 q 493 132 490 104 q 397 25 453 64 q 276 -14 342 -14 q 133 56 185 -14 q 81 247 81 126 q 117 474 81 361 q 230 660 153 586 q 422 735 307 735 m 422 708 q 247 638 317 708 q 145 461 178 567 q 113 249 113 356 q 156 77 113 139 q 278 15 199 15 q 499 182 404 15 l 568 669 q 422 708 504 708 m 468 1035 q 533 1010 510 1035 q 557 943 557 985 q 524 851 557 886 q 442 817 492 817 q 377 842 401 817 q 353 908 353 868 q 385 1000 353 965 q 468 1035 418 1035 m 467 1010 q 405 982 428 1010 q 381 911 382 954 q 397 860 381 879 q 443 842 413 842 q 505 869 482 842 q 529 940 528 897 q 513 991 529 972 q 467 1010 497 1010 m 579 1189 l 593 1156 l 354 1056 l 344 1076 l 579 1189 z "},"ⱥ":{"ha":693,"x_min":81,"x_max":600,"o":"m 525 156 q 518 86 518 110 q 528 39 518 57 q 560 10 538 21 l 550 -14 q 504 22 518 -3 q 490 88 490 46 q 493 132 490 115 q 397 25 453 64 q 276 -14 342 -14 q 211 -3 242 -14 l 176 -92 l 154 -86 l 190 6 q 109 96 138 33 q 81 247 81 158 q 117 474 81 361 q 230 660 153 586 q 422 735 307 735 q 471 732 440 735 l 503 814 l 525 808 l 493 728 q 600 683 543 718 l 525 156 m 113 249 q 135 115 113 169 q 201 35 158 60 l 461 706 q 422 708 436 708 q 247 638 317 708 q 145 461 178 567 q 113 249 113 356 m 568 669 q 483 703 532 693 l 222 25 q 278 15 246 15 q 499 182 404 15 l 568 669 z "},"ã":{"ha":693,"x_min":81,"x_max":638,"o":"m 422 735 q 600 683 518 735 l 525 156 q 518 86 518 110 q 528 39 518 57 q 560 10 538 21 l 550 -14 q 505 25 519 0 q 490 92 490 50 q 493 132 490 104 q 397 25 453 64 q 276 -14 342 -14 q 133 56 185 -14 q 81 247 81 126 q 117 474 81 361 q 230 660 153 586 q 422 735 307 735 m 422 708 q 247 638 317 708 q 145 461 178 567 q 113 249 113 356 q 156 77 113 139 q 278 15 199 15 q 499 182 404 15 l 568 669 q 422 708 504 708 m 538 942 q 499 950 517 942 q 458 974 481 958 q 424 995 436 989 q 396 1001 411 1001 q 357 990 374 1001 q 315 951 340 979 l 297 965 q 396 1029 349 1029 q 430 1022 414 1029 q 468 999 446 1014 q 505 977 489 985 q 538 969 521 969 q 576 983 558 969 q 618 1026 594 996 l 638 1014 q 538 942 590 942 z "},"ɐ":{"ha":646,"x_min":114,"x_max":599,"o":"m 147 190 q 144 144 144 174 q 178 47 144 79 q 283 15 211 15 q 374 26 331 15 q 469 60 418 38 l 479 33 q 379 -2 425 10 q 282 -14 333 -14 q 156 26 197 -14 q 114 142 114 65 q 117 189 114 172 l 169 568 q 175 633 175 603 q 166 681 175 663 q 133 710 157 699 l 143 733 q 188 695 174 719 q 203 632 203 671 q 201 600 203 611 q 302 701 247 667 q 428 735 357 735 q 553 687 508 735 q 599 558 599 639 q 517 363 599 433 q 308 293 436 293 l 161 293 l 147 190 m 165 321 l 307 321 q 495 384 424 321 q 567 558 567 447 q 531 667 567 628 q 426 706 494 706 q 299 667 354 706 q 199 556 244 629 l 165 321 z "},"æ":{"ha":1028,"x_min":47,"x_max":983,"o":"m 360 735 q 488 690 440 735 q 546 567 535 646 q 647 685 581 636 q 804 735 714 735 q 935 692 886 735 q 983 576 983 649 q 858 381 983 450 q 500 297 732 313 q 537 92 493 169 q 679 15 581 15 q 780 34 735 15 q 876 92 825 53 l 892 71 q 789 7 839 28 q 679 -14 739 -14 q 553 26 604 -14 q 482 144 501 67 q 353 23 415 60 q 221 -14 292 -14 q 93 35 139 -14 q 47 167 47 85 q 118 344 47 272 q 336 415 189 415 l 486 415 q 524 528 503 482 q 475 660 518 614 q 358 707 432 707 q 174 663 278 707 l 165 688 q 360 735 272 735 m 803 707 q 647 650 711 707 q 547 506 582 593 q 503 325 513 419 q 953 576 953 354 q 913 672 953 638 q 803 707 874 707 m 339 388 q 140 326 203 388 q 78 167 78 264 q 116 56 78 97 q 221 15 154 15 q 351 53 290 15 q 474 176 411 92 q 467 256 467 215 q 481 388 467 318 l 339 388 z "},"ǽ":{"ha":1028,"x_min":47,"x_max":983,"o":"m 360 735 q 488 690 440 735 q 546 567 535 646 q 647 685 581 636 q 804 735 714 735 q 935 692 886 735 q 983 576 983 649 q 858 381 983 450 q 500 297 732 313 q 537 92 493 169 q 679 15 581 15 q 780 34 735 15 q 876 92 825 53 l 892 71 q 789 7 839 28 q 679 -14 739 -14 q 553 26 604 -14 q 482 144 501 67 q 353 23 415 60 q 221 -14 292 -14 q 93 35 139 -14 q 47 167 47 85 q 118 344 47 272 q 336 415 189 415 l 486 415 q 524 528 503 482 q 475 660 518 614 q 358 707 432 707 q 174 663 278 707 l 165 688 q 360 735 272 735 m 803 707 q 647 650 711 707 q 547 506 582 593 q 503 325 513 419 q 953 576 953 354 q 913 672 953 638 q 803 707 874 707 m 339 388 q 140 326 203 388 q 78 167 78 264 q 116 56 78 97 q 221 15 154 15 q 351 53 290 15 q 474 176 411 92 q 467 256 467 215 q 481 388 467 318 l 339 388 m 708 1057 l 721 1025 l 481 908 l 471 929 l 708 1057 z "},"ǣ":{"ha":1028,"x_min":47,"x_max":983,"o":"m 360 735 q 488 690 440 735 q 546 567 535 646 q 647 685 581 636 q 804 735 714 735 q 935 692 886 735 q 983 576 983 649 q 858 381 983 450 q 500 297 732 313 q 537 92 493 169 q 679 15 581 15 q 780 34 735 15 q 876 92 825 53 l 892 71 q 789 7 839 28 q 679 -14 739 -14 q 553 26 604 -14 q 482 144 501 67 q 353 23 415 60 q 221 -14 292 -14 q 93 35 139 -14 q 47 167 47 85 q 118 344 47 272 q 336 415 189 415 l 486 415 q 524 528 503 482 q 475 660 518 614 q 358 707 432 707 q 174 663 278 707 l 165 688 q 360 735 272 735 m 803 707 q 647 650 711 707 q 547 506 582 593 q 503 325 513 419 q 953 576 953 354 q 913 672 953 638 q 803 707 874 707 m 339 388 q 140 326 203 388 q 78 167 78 264 q 116 56 78 97 q 221 15 154 15 q 351 53 290 15 q 474 176 411 92 q 467 256 467 215 q 481 388 467 318 l 339 388 m 721 951 l 460 951 l 464 981 l 725 981 l 721 951 z "},"b":{"ha":711,"x_min":101,"x_max":632,"o":"m 444 735 q 584 672 536 735 q 632 489 632 608 q 598 260 632 376 q 490 65 564 144 q 300 -14 415 -14 q 203 -3 247 -14 q 101 33 158 8 l 240 1018 l 271 1022 l 213 606 q 322 701 265 667 q 444 735 378 735 m 444 707 q 322 671 378 707 q 207 567 265 635 l 135 51 q 215 24 176 33 q 300 15 253 15 q 473 91 406 15 q 570 276 540 167 q 601 489 600 385 q 562 651 601 596 q 444 707 522 707 z "},"ḃ":{"ha":711,"x_min":101,"x_max":632,"o":"m 444 735 q 584 672 536 735 q 632 489 632 608 q 598 260 632 376 q 490 65 564 144 q 300 -14 415 -14 q 203 -3 247 -14 q 101 33 158 8 l 240 1018 l 271 1022 l 213 606 q 322 701 265 667 q 444 735 378 735 m 444 707 q 322 671 378 707 q 207 567 265 635 l 135 51 q 215 24 176 33 q 300 15 253 15 q 473 91 406 15 q 570 276 540 167 q 601 489 600 385 q 562 651 601 596 q 444 707 522 707 m 492 1197 q 475 1204 482 1197 q 468 1221 468 1211 q 476 1242 468 1233 q 497 1250 483 1250 q 515 1244 508 1250 q 522 1226 522 1238 q 514 1206 522 1215 q 492 1197 506 1197 z "},"ḅ":{"ha":711,"x_min":101,"x_max":632,"o":"m 444 735 q 584 672 536 735 q 632 489 632 608 q 598 260 632 376 q 490 65 564 144 q 300 -14 415 -14 q 203 -3 247 -14 q 101 33 158 8 l 240 1018 l 271 1022 l 213 606 q 322 701 265 667 q 444 735 378 735 m 444 707 q 322 671 378 707 q 207 567 265 635 l 135 51 q 215 24 176 33 q 300 15 253 15 q 473 91 406 15 q 570 276 540 167 q 601 489 600 385 q 562 651 601 596 q 444 707 522 707 m 285 -137 q 301 -144 294 -137 q 308 -161 308 -151 q 301 -182 308 -174 q 279 -190 293 -190 q 261 -184 268 -190 q 254 -167 254 -178 q 263 -147 254 -156 q 285 -137 271 -137 z "},"ꞵ":{"ha":725,"x_min":57,"x_max":667,"o":"m 199 735 q 294 951 219 879 q 472 1024 368 1024 q 613 970 558 1024 q 667 822 667 917 q 603 638 667 713 q 424 553 539 563 q 583 488 522 550 q 643 318 643 425 q 611 163 643 239 q 513 36 579 86 q 349 -14 446 -14 q 142 103 208 -14 l 89 -268 l 57 -272 l 199 735 m 349 15 q 495 60 436 15 q 583 175 554 106 q 611 317 611 244 q 549 482 611 424 q 372 540 486 540 l 300 540 l 308 568 l 376 568 q 518 603 460 568 q 606 695 576 638 q 635 822 635 753 q 590 951 635 907 q 472 996 546 996 q 315 932 381 996 q 231 733 249 868 l 147 140 q 232 45 183 75 q 349 15 281 15 z "},"ɓ":{"ha":711,"x_min":101,"x_max":632,"o":"m 444 735 q 584 672 536 735 q 632 489 632 608 q 599 260 632 375 q 490 65 565 144 q 300 -14 415 -14 q 203 -3 247 -14 q 101 33 158 8 l 197 721 l 199 721 l 218 858 q 276 981 229 938 q 394 1024 324 1024 q 536 981 471 1024 l 522 957 q 396 994 463 994 q 297 959 336 994 q 247 853 257 924 l 229 719 l 228 719 l 213 606 q 322 701 265 667 q 444 735 378 735 m 300 15 q 474 91 406 15 q 572 276 542 167 q 601 490 601 386 q 562 652 601 597 q 444 707 522 707 q 321 671 376 707 q 208 567 265 635 l 136 51 q 215 24 176 33 q 300 15 253 15 z "},"ʭ":{"ha":393,"x_min":-10,"x_max":400,"o":"m 378 557 l 347 557 l 365 682 l 117 682 l 99 556 l 69 556 l 92 710 l 400 710 l 378 557 m 299 1 l 268 1 l 286 126 l 38 126 l 19 0 l -10 0 l 13 154 l 321 154 l 299 1 z "},"ʘ":{"ha":992,"x_min":104,"x_max":919,"o":"m 586 960 q 831 865 742 960 q 919 593 919 769 q 861 283 919 421 q 694 65 803 144 q 438 -14 585 -14 q 193 83 282 -14 q 104 354 104 181 q 164 662 104 524 q 333 880 224 800 q 586 960 443 960 m 586 932 q 349 856 451 932 q 191 648 246 779 q 136 356 136 517 q 217 104 136 193 q 438 15 297 15 q 678 90 576 15 q 834 297 781 165 q 888 593 888 428 q 808 844 888 757 q 586 932 729 932 m 508 444 q 492 451 499 444 q 485 468 485 458 q 492 489 485 481 q 514 497 500 497 q 532 491 525 497 q 539 474 539 485 q 531 453 539 463 q 508 444 522 444 z "},"ʬ":{"ha":572,"x_min":65,"x_max":583,"o":"m 583 917 l 442 556 l 404 556 l 361 890 l 224 556 l 188 556 l 143 917 l 171 917 l 208 578 l 347 917 l 382 917 l 425 578 l 557 917 l 583 917 m 506 361 l 364 0 l 326 0 l 283 335 l 146 0 l 110 0 l 65 361 l 93 361 l 131 22 l 269 361 l 304 361 l 347 22 l 479 361 l 506 361 z "},"ƀ":{"ha":715,"x_min":106,"x_max":636,"o":"m 449 735 q 588 672 540 735 q 636 489 636 608 q 602 260 636 376 q 494 65 568 144 q 304 -14 419 -14 q 207 -3 251 -14 q 106 33 163 8 l 224 874 l 131 874 l 135 901 l 228 901 l 244 1018 l 275 1022 l 258 901 l 489 901 l 479 874 l 254 874 l 217 606 q 326 701 269 667 q 449 735 382 735 m 304 15 q 477 91 410 15 q 574 276 544 167 q 606 489 604 385 q 566 651 606 596 q 449 707 526 707 q 326 671 382 707 q 211 567 269 635 l 139 51 q 219 24 181 33 q 304 15 257 15 z "},"ƃ":{"ha":711,"x_min":101,"x_max":632,"o":"m 444 735 q 584 672 536 735 q 632 489 632 608 q 599 260 632 375 q 490 65 565 144 q 300 -14 415 -14 q 203 -3 247 -14 q 101 33 158 8 l 240 1017 l 575 1017 l 564 988 l 267 988 l 213 606 q 322 701 265 667 q 444 735 378 735 m 300 15 q 474 91 406 15 q 572 276 542 167 q 601 490 601 386 q 562 652 601 597 q 444 707 522 707 q 321 671 376 707 q 208 567 265 635 l 136 51 q 215 24 176 33 q 300 15 253 15 z "},"c":{"ha":582,"x_min":82,"x_max":572,"o":"m 411 735 q 501 718 463 735 q 572 665 540 701 l 553 646 q 490 692 524 676 q 410 707 456 707 q 244 639 311 707 q 146 467 178 571 q 114 257 114 364 q 163 77 114 139 q 297 15 211 15 q 387 32 346 15 q 468 81 428 49 l 483 60 q 297 -14 396 -14 q 140 57 197 -14 q 82 257 82 128 q 118 481 82 371 q 228 663 154 590 q 411 735 303 735 z "},"ć":{"ha":582,"x_min":82,"x_max":572,"o":"m 411 735 q 501 718 463 735 q 572 665 540 701 l 553 646 q 490 692 524 676 q 410 707 456 707 q 244 639 311 707 q 146 467 178 571 q 114 257 114 364 q 163 77 114 139 q 297 15 211 15 q 387 32 346 15 q 468 81 428 49 l 483 60 q 297 -14 396 -14 q 140 57 197 -14 q 82 257 82 128 q 118 481 82 371 q 228 663 154 590 q 411 735 303 735 m 554 1057 l 567 1025 l 326 908 l 317 929 l 554 1057 z "},"č":{"ha":582,"x_min":82,"x_max":607,"o":"m 411 735 q 501 718 463 735 q 572 665 540 701 l 553 646 q 490 692 524 676 q 410 707 456 707 q 244 639 311 707 q 146 467 178 571 q 114 257 114 364 q 163 77 114 139 q 297 15 211 15 q 387 32 346 15 q 468 81 428 49 l 483 60 q 297 -14 396 -14 q 140 57 197 -14 q 82 257 82 128 q 118 481 82 371 q 228 663 154 590 q 411 735 303 735 m 592 1040 l 607 1022 l 438 890 l 421 890 l 289 1022 l 307 1040 l 432 924 l 592 1040 z "},"ç":{"ha":582,"x_min":82,"x_max":572,"o":"m 411 735 q 501 718 463 735 q 572 665 540 701 l 553 646 q 490 692 524 676 q 410 707 456 707 q 244 639 311 707 q 146 467 178 571 q 114 257 114 364 q 163 77 114 139 q 297 15 211 15 q 387 32 346 15 q 468 81 428 49 l 483 60 q 301 -14 397 -12 l 285 -103 q 363 -128 338 -107 q 389 -190 389 -149 q 356 -266 389 -237 q 269 -294 322 -294 q 185 -269 219 -294 l 199 -247 q 269 -267 228 -267 q 333 -247 310 -267 q 357 -192 357 -228 q 334 -142 357 -157 q 254 -126 311 -128 l 278 -12 q 134 64 186 -6 q 82 257 82 133 q 118 481 82 371 q 228 663 154 590 q 411 735 303 735 z "},"ĉ":{"ha":582,"x_min":82,"x_max":592,"o":"m 411 735 q 501 718 463 735 q 572 665 540 701 l 553 646 q 490 692 524 676 q 410 707 456 707 q 244 639 311 707 q 146 467 178 571 q 114 257 114 364 q 163 77 114 139 q 297 15 211 15 q 387 32 346 15 q 468 81 428 49 l 483 60 q 297 -14 396 -14 q 140 57 197 -14 q 82 257 82 128 q 118 481 82 371 q 228 663 154 590 q 411 735 303 735 m 289 908 l 274 926 l 443 1058 l 460 1058 l 592 926 l 574 908 l 449 1025 l 289 908 z "},"ɕ":{"ha":590,"x_min":82,"x_max":572,"o":"m 411 735 q 501 718 463 735 q 572 665 540 701 l 553 646 q 490 692 524 676 q 411 707 457 707 q 245 639 313 707 q 146 467 178 571 q 114 256 114 363 q 174 68 114 131 q 288 231 235 183 q 406 279 342 279 q 491 248 461 279 q 521 165 521 217 q 463 35 521 83 q 310 -14 404 -14 q 239 -5 269 -14 q 181 24 208 4 l 121 -78 l 99 -67 l 158 40 q 101 132 121 76 q 82 257 82 188 q 118 481 82 371 q 228 663 154 590 q 411 735 303 735 m 406 253 q 301 208 347 253 q 196 50 254 164 q 311 15 243 15 q 440 54 389 15 q 490 165 490 93 q 469 229 490 206 q 406 253 447 253 z "},"ċ":{"ha":582,"x_min":82,"x_max":572,"o":"m 411 735 q 501 718 463 735 q 572 665 540 701 l 553 646 q 490 692 524 676 q 410 707 456 707 q 244 639 311 707 q 146 467 178 571 q 114 257 114 364 q 163 77 114 139 q 297 15 211 15 q 387 32 346 15 q 468 81 428 49 l 483 60 q 297 -14 396 -14 q 140 57 197 -14 q 82 257 82 128 q 118 481 82 371 q 228 663 154 590 q 411 735 303 735 m 439 951 q 422 958 429 951 q 415 975 415 965 q 423 996 415 988 q 444 1004 431 1004 q 463 998 456 1004 q 469 981 469 992 q 461 960 469 969 q 439 951 453 951 z "},"ƈ":{"ha":582,"x_min":82,"x_max":822,"o":"m 714 1024 q 775 1012 750 1024 q 822 981 800 1000 l 806 961 q 763 987 783 978 q 714 996 742 996 q 639 966 669 996 q 600 874 608 936 l 572 665 l 556 649 q 489 692 524 678 q 408 707 454 707 q 244 639 311 707 q 146 467 178 571 q 114 257 114 364 q 163 77 114 139 q 297 15 211 15 q 387 32 346 15 q 468 81 428 49 l 483 60 q 297 -14 396 -14 q 140 57 197 -14 q 82 257 82 128 q 118 481 82 371 q 228 663 154 590 q 410 735 301 735 q 546 689 489 735 l 571 876 q 619 985 581 947 q 714 1024 657 1024 z "},"ʗ":{"ha":611,"x_min":85,"x_max":601,"o":"m 443 735 q 531 718 494 735 q 601 665 567 701 l 582 646 q 521 692 553 678 q 443 707 489 707 q 270 610 344 707 q 156 362 196 514 q 117 51 117 210 q 164 -176 117 -101 q 299 -251 211 -251 q 383 -234 343 -251 q 465 -185 424 -217 l 481 -207 q 299 -281 393 -281 q 141 -197 196 -281 q 85 51 86 -114 q 129 382 86 225 q 253 637 172 539 q 443 735 335 735 z "},"ȼ":{"ha":582,"x_min":82,"x_max":572,"o":"m 489 722 q 572 665 536 706 l 553 646 q 479 696 515 683 l 221 31 q 297 15 256 15 q 387 32 346 15 q 468 81 428 49 l 483 60 q 297 -14 396 -14 q 210 3 249 -14 l 174 -92 l 151 -86 l 190 14 q 110 106 139 43 q 82 257 82 168 q 118 481 82 371 q 228 663 154 590 q 411 735 303 735 q 467 729 444 735 l 500 814 l 522 808 l 489 722 m 457 703 q 410 707 436 707 q 244 639 311 707 q 146 467 178 571 q 114 257 114 364 q 137 122 114 176 q 201 42 160 68 l 457 703 z "},"d":{"ha":713,"x_min":81,"x_max":658,"o":"m 658 1018 l 515 0 l 490 0 l 511 178 q 406 39 464 92 q 269 -14 347 -14 q 131 55 182 -14 q 81 246 81 124 q 115 470 81 357 q 219 659 149 583 q 396 735 290 735 q 572 621 519 735 l 628 1022 l 658 1018 m 397 707 q 238 636 303 707 q 143 459 174 565 q 113 247 113 353 q 154 76 113 138 q 269 15 196 15 q 403 72 346 15 q 519 238 461 129 l 567 579 q 397 707 517 707 z "},"ð":{"ha":699,"x_min":76,"x_max":607,"o":"m 475 924 q 607 575 607 803 q 572 295 607 431 q 462 73 536 160 q 279 -14 388 -14 q 128 51 181 -14 q 76 231 76 117 q 108 419 76 325 q 206 577 140 514 q 369 640 272 640 q 575 506 497 640 q 576 560 576 524 q 549 754 576 671 q 454 904 521 838 l 331 786 l 308 796 l 435 921 q 282 999 360 981 l 292 1025 q 456 942 383 1000 l 556 1036 l 574 1019 l 475 924 m 279 15 q 480 147 408 15 q 572 465 551 279 q 369 613 493 613 q 223 554 282 613 q 136 408 164 496 q 108 231 108 319 q 153 72 108 129 q 279 15 197 15 z "},"ȸ":{"ha":1046,"x_min":83,"x_max":965,"o":"m 788 735 q 919 669 874 735 q 965 481 965 604 q 932 241 965 354 q 834 57 899 128 q 679 -14 769 -14 q 572 28 615 -14 q 510 143 529 71 l 486 0 l 464 0 l 479 142 q 267 -14 396 -14 q 133 58 182 -14 q 83 258 83 131 q 119 490 83 381 q 224 667 156 600 q 382 735 292 735 q 546 613 490 735 l 603 1018 l 633 1022 l 575 611 q 788 735 669 735 m 268 15 q 388 60 336 15 q 488 199 440 106 l 540 574 q 472 673 508 639 q 382 707 436 707 q 240 643 301 707 q 147 476 179 579 q 114 258 114 372 q 156 79 114 143 q 268 15 197 15 m 679 15 q 817 83 760 15 q 904 259 875 151 q 933 482 933 367 q 896 649 933 592 q 788 707 858 707 q 673 671 726 707 q 569 569 619 635 l 517 196 q 580 60 539 106 q 679 15 621 15 z "},"ď":{"ha":713,"x_min":81,"x_max":825,"o":"m 658 1018 l 515 0 l 490 0 l 511 178 q 406 39 464 92 q 269 -14 347 -14 q 131 55 182 -14 q 81 246 81 124 q 115 470 81 357 q 219 659 149 583 q 396 735 290 735 q 572 621 519 735 l 628 1022 l 658 1018 m 397 707 q 238 636 303 707 q 143 459 174 565 q 113 247 113 353 q 154 76 113 138 q 269 15 196 15 q 403 72 346 15 q 519 238 461 129 l 567 579 q 397 707 517 707 m 793 1024 l 825 1021 l 763 819 l 742 824 l 793 1024 z "},"ḓ":{"ha":713,"x_min":81,"x_max":658,"o":"m 658 1018 l 515 0 l 490 0 l 511 178 q 406 39 464 92 q 269 -14 347 -14 q 131 55 182 -14 q 81 246 81 124 q 115 470 81 357 q 219 659 149 583 q 396 735 290 735 q 572 621 519 735 l 628 1022 l 658 1018 m 397 707 q 238 636 303 707 q 143 459 174 565 q 113 247 113 353 q 154 76 113 138 q 269 15 196 15 q 403 72 346 15 q 519 238 461 129 l 567 579 q 397 707 517 707 m 132 -256 l 117 -236 l 286 -104 l 303 -104 l 433 -236 l 418 -256 l 290 -137 l 132 -256 z "},"đ":{"ha":719,"x_min":81,"x_max":736,"o":"m 736 901 l 732 874 l 638 874 l 515 0 l 490 0 l 511 178 q 406 39 464 92 q 269 -14 347 -14 q 131 55 182 -14 q 81 246 81 124 q 115 470 81 357 q 219 659 149 583 q 396 735 290 735 q 572 621 519 735 l 607 874 l 396 874 l 397 901 l 611 901 l 628 1022 l 658 1018 l 642 901 l 736 901 m 567 579 q 397 707 517 707 q 238 636 303 707 q 143 459 174 565 q 113 247 113 353 q 154 76 113 138 q 269 15 196 15 q 403 72 346 15 q 519 238 461 129 l 567 579 z "},"ȡ":{"ha":815,"x_min":81,"x_max":826,"o":"m 722 251 q 798 223 769 251 q 826 149 826 194 q 773 32 826 78 q 642 -14 719 -14 q 526 39 560 -14 l 451 -78 l 428 -67 l 513 67 q 504 119 504 90 q 510 172 504 136 l 510 176 q 268 -14 408 -14 q 131 55 181 -14 q 81 246 81 124 q 115 470 81 357 q 219 659 149 583 q 396 735 290 735 q 572 621 519 735 l 628 1022 l 658 1018 l 538 161 q 535 122 535 133 q 536 101 535 108 q 624 215 582 179 q 722 251 667 251 m 269 15 q 404 73 346 15 q 519 239 463 131 l 567 579 q 397 707 517 707 q 238 636 303 707 q 143 459 174 565 q 113 247 113 353 q 154 76 113 138 q 269 15 196 15 m 642 15 q 751 51 707 15 q 796 149 796 86 q 776 205 796 185 q 721 225 757 225 q 635 191 674 225 q 543 68 596 157 q 642 15 565 15 z "},"ḋ":{"ha":713,"x_min":81,"x_max":658,"o":"m 658 1018 l 515 0 l 490 0 l 511 178 q 406 39 464 92 q 269 -14 347 -14 q 131 55 182 -14 q 81 246 81 124 q 115 470 81 357 q 219 659 149 583 q 396 735 290 735 q 572 621 519 735 l 628 1022 l 658 1018 m 397 707 q 238 636 303 707 q 143 459 174 565 q 113 247 113 353 q 154 76 113 138 q 269 15 196 15 q 403 72 346 15 q 519 238 461 129 l 567 579 q 397 707 517 707 m 472 1197 q 456 1204 463 1197 q 449 1221 449 1211 q 456 1242 449 1233 q 478 1250 464 1250 q 496 1244 489 1250 q 503 1226 503 1238 q 494 1206 503 1215 q 472 1197 486 1197 z "},"ḍ":{"ha":713,"x_min":81,"x_max":658,"o":"m 658 1018 l 515 0 l 490 0 l 511 178 q 406 39 464 92 q 269 -14 347 -14 q 131 55 182 -14 q 81 246 81 124 q 115 470 81 357 q 219 659 149 583 q 396 735 290 735 q 572 621 519 735 l 628 1022 l 658 1018 m 397 707 q 238 636 303 707 q 143 459 174 565 q 113 247 113 353 q 154 76 113 138 q 269 15 196 15 q 403 72 346 15 q 519 238 461 129 l 567 579 q 397 707 517 707 m 288 -137 q 304 -144 297 -137 q 311 -161 311 -151 q 303 -182 311 -174 q 282 -190 296 -190 q 264 -184 271 -190 q 257 -167 257 -178 q 265 -147 257 -156 q 288 -137 274 -137 z "},"ƍ":{"ha":699,"x_min":60,"x_max":618,"o":"m 250 -274 q 60 -199 138 -274 l 81 -179 q 157 -228 117 -212 q 250 -244 197 -244 q 385 -206 339 -244 q 432 -106 432 -167 q 400 -26 432 -58 q 289 42 368 6 q 135 151 182 90 q 88 310 88 211 q 118 503 88 406 q 219 667 149 600 q 403 735 290 735 q 562 665 506 735 q 618 475 618 596 q 555 215 618 322 q 338 49 492 108 q 433 -20 404 14 q 463 -104 463 -54 q 406 -226 463 -178 q 250 -274 350 -274 m 310 61 q 527 224 467 121 q 588 475 588 328 q 539 644 588 582 q 401 707 490 707 q 235 642 299 707 q 146 488 172 578 q 119 311 119 397 q 162 164 119 219 q 310 61 204 108 z "},"ʤ":{"ha":1072,"x_min":81,"x_max":1043,"o":"m 1040 696 l 701 268 l 729 268 q 981 57 981 268 q 944 -115 981 -39 q 840 -232 907 -190 q 688 -274 774 -274 q 563 -244 615 -274 q 471 -160 511 -215 l 493 -143 q 578 -220 532 -196 q 688 -244 625 -244 q 878 -161 807 -244 q 949 56 949 -78 q 894 196 949 151 q 728 240 840 240 l 663 240 l 667 269 l 1000 693 l 613 693 l 515 0 l 490 0 l 511 178 q 406 39 464 92 q 269 -14 347 -14 q 131 55 182 -14 q 81 246 81 124 q 115 470 81 357 q 219 659 149 583 q 396 735 290 735 q 572 621 519 735 l 628 1022 l 658 1018 l 615 711 l 617 721 l 1043 721 l 1040 696 m 567 579 q 397 707 517 707 q 238 636 303 707 q 143 459 174 565 q 113 247 113 353 q 154 76 113 138 q 269 15 196 15 q 403 72 346 15 q 519 238 461 129 l 567 579 z "},"ɗ":{"ha":713,"x_min":81,"x_max":860,"o":"m 751 1024 q 860 981 814 1024 l 842 961 q 802 987 822 978 q 751 996 782 996 q 678 967 708 996 q 640 876 649 938 l 618 721 l 617 721 l 515 0 l 490 0 l 511 178 q 406 39 464 92 q 268 -14 347 -14 q 131 55 181 -14 q 81 246 81 124 q 115 470 81 357 q 219 659 149 583 q 396 735 290 735 q 572 621 519 735 l 586 721 l 588 721 l 610 879 q 657 987 619 950 q 751 1024 694 1024 m 567 579 q 397 707 517 707 q 238 636 303 707 q 143 459 174 565 q 113 247 113 353 q 154 76 113 138 q 269 15 196 15 q 403 72 346 15 q 519 238 461 129 l 567 579 z "},"ḏ":{"ha":713,"x_min":81,"x_max":658,"o":"m 658 1018 l 515 0 l 490 0 l 511 178 q 406 39 464 92 q 269 -14 347 -14 q 131 55 182 -14 q 81 246 81 124 q 115 470 81 357 q 219 659 149 583 q 396 735 290 735 q 572 621 519 735 l 628 1022 l 658 1018 m 397 707 q 238 636 303 707 q 143 459 174 565 q 113 247 113 353 q 154 76 113 138 q 269 15 196 15 q 403 72 346 15 q 519 238 461 129 l 567 579 q 397 707 517 707 m 157 -164 l 418 -164 l 414 -193 l 153 -193 l 157 -164 z "},"ɖ":{"ha":713,"x_min":81,"x_max":688,"o":"m 688 -233 q 637 -262 667 -251 q 575 -274 607 -274 q 493 -244 522 -274 q 464 -158 464 -214 q 467 -126 464 -149 l 485 0 l 508 172 q 404 37 461 88 q 268 -14 347 -14 q 131 55 181 -14 q 81 246 81 124 q 115 470 81 357 q 219 659 149 583 q 396 735 290 735 q 572 621 519 735 l 628 1022 l 658 1018 l 515 0 l 497 -128 q 494 -158 494 -150 q 575 -246 494 -246 q 626 -237 604 -246 q 672 -212 649 -229 l 688 -233 m 269 15 q 403 72 346 15 q 519 238 461 129 l 567 579 q 397 707 517 707 q 238 636 303 707 q 143 459 174 565 q 113 247 113 353 q 154 76 113 138 q 269 15 196 15 z "},"ƌ":{"ha":713,"x_min":81,"x_max":658,"o":"m 515 0 l 490 0 l 511 178 q 406 39 464 92 q 268 -14 347 -14 q 131 55 181 -14 q 81 246 81 124 q 115 470 81 357 q 219 659 149 583 q 396 735 290 735 q 572 621 519 735 l 624 988 l 322 988 l 326 1017 l 658 1017 l 515 0 m 567 579 q 397 707 517 707 q 238 636 303 707 q 143 459 174 565 q 113 247 113 353 q 154 76 113 138 q 269 15 196 15 q 403 72 346 15 q 519 238 461 129 l 567 579 z "},"ǳ":{"ha":1226,"x_min":81,"x_max":1232,"o":"m 658 1018 l 515 0 l 490 0 l 511 178 q 406 39 464 92 q 269 -14 347 -14 q 131 55 182 -14 q 81 246 81 124 q 115 470 81 357 q 219 659 149 583 q 396 735 290 735 q 572 621 519 735 l 628 1022 l 658 1018 m 397 707 q 238 636 303 707 q 143 459 174 565 q 113 247 113 353 q 154 76 113 138 q 269 15 196 15 q 403 72 346 15 q 519 238 461 129 l 567 579 q 397 707 517 707 m 1232 721 l 1228 696 l 743 29 l 1125 29 l 1118 0 l 700 0 l 704 25 l 1190 693 l 832 693 l 836 721 l 1232 721 z "},"ʣ":{"ha":1039,"x_min":81,"x_max":1044,"o":"m 1040 696 l 554 29 l 938 29 l 931 0 l 490 0 l 511 178 q 406 39 464 92 q 269 -14 347 -14 q 131 55 182 -14 q 81 246 81 124 q 115 470 81 357 q 219 659 149 583 q 396 735 290 735 q 572 621 519 735 l 628 1022 l 658 1018 l 617 721 l 1044 721 l 1040 696 m 269 15 q 403 72 346 15 q 519 238 461 129 l 567 579 q 397 707 517 707 q 238 636 303 707 q 143 459 174 565 q 113 247 113 353 q 154 76 113 138 q 269 15 196 15 m 519 29 l 1003 693 l 613 693 l 519 29 z "},"ǆ":{"ha":1226,"x_min":81,"x_max":1235,"o":"m 658 1018 l 515 0 l 490 0 l 511 178 q 406 39 464 92 q 269 -14 347 -14 q 131 55 182 -14 q 81 246 81 124 q 115 470 81 357 q 219 659 149 583 q 396 735 290 735 q 572 621 519 735 l 628 1022 l 658 1018 m 397 707 q 238 636 303 707 q 143 459 174 565 q 113 247 113 353 q 154 76 113 138 q 269 15 196 15 q 403 72 346 15 q 519 238 461 129 l 567 579 q 397 707 517 707 m 1232 721 l 1228 696 l 743 29 l 1125 29 l 1118 0 l 700 0 l 704 25 l 1190 693 l 832 693 l 836 721 l 1232 721 m 1219 1040 l 1235 1022 l 1065 890 l 1049 890 l 917 1022 l 935 1040 l 1060 924 l 1219 1040 z "},"ʥ":{"ha":1053,"x_min":81,"x_max":1057,"o":"m 957 267 q 1030 239 1003 267 q 1057 163 1057 211 q 989 35 1057 71 q 800 0 921 0 q 779 -143 783 -101 l 750 -140 q 772 0 756 -94 l 490 0 l 511 178 q 406 39 464 92 q 269 -14 347 -14 q 131 55 182 -14 q 81 246 81 124 q 115 470 81 357 q 219 659 149 583 q 396 735 290 735 q 572 621 519 735 l 628 1022 l 658 1018 l 617 721 l 1044 721 l 1040 696 l 556 29 l 778 29 q 957 267 822 267 m 269 15 q 403 72 346 15 q 519 238 461 129 l 567 579 q 397 707 517 707 q 238 636 303 707 q 143 459 174 565 q 113 247 113 353 q 154 76 113 138 q 269 15 196 15 m 613 693 l 519 26 l 1003 693 l 613 693 m 807 29 q 969 56 911 26 q 1028 161 1028 85 q 956 239 1028 239 q 865 188 901 239 q 807 29 828 138 z "},"e":{"ha":642,"x_min":82,"x_max":597,"o":"m 597 576 q 472 381 597 450 q 114 297 346 313 q 113 254 113 283 q 161 76 113 136 q 294 15 210 15 q 394 34 350 15 q 490 92 439 53 l 507 71 q 403 7 453 28 q 294 -14 353 -14 q 138 55 193 -14 q 82 253 82 124 q 119 478 82 367 q 232 662 156 589 q 419 735 308 735 q 549 692 501 735 q 597 576 597 650 m 418 707 q 263 652 328 707 q 163 510 199 597 q 117 325 128 424 q 567 576 567 354 q 528 672 567 638 q 418 707 490 707 z "},"é":{"ha":642,"x_min":82,"x_max":597,"o":"m 597 576 q 472 381 597 450 q 114 297 346 313 q 113 254 113 283 q 161 76 113 136 q 294 15 210 15 q 394 34 350 15 q 490 92 439 53 l 507 71 q 403 7 453 28 q 294 -14 353 -14 q 138 55 193 -14 q 82 253 82 124 q 119 478 82 367 q 232 662 156 589 q 419 735 308 735 q 549 692 501 735 q 597 576 597 650 m 418 707 q 263 652 328 707 q 163 510 199 597 q 117 325 128 424 q 567 576 567 354 q 528 672 567 638 q 418 707 490 707 m 549 1057 l 561 1025 l 321 908 l 311 929 l 549 1057 z "},"ĕ":{"ha":642,"x_min":82,"x_max":597,"o":"m 597 576 q 472 381 597 450 q 114 297 346 313 q 113 254 113 283 q 161 76 113 136 q 294 15 210 15 q 394 34 350 15 q 490 92 439 53 l 507 71 q 403 7 453 28 q 294 -14 353 -14 q 138 55 193 -14 q 82 253 82 124 q 119 478 82 367 q 232 662 156 589 q 419 735 308 735 q 549 692 501 735 q 597 576 597 650 m 418 707 q 263 652 328 707 q 163 510 199 597 q 117 325 128 424 q 567 576 567 354 q 528 672 567 638 q 418 707 490 707 m 426 919 q 339 953 371 919 q 304 1040 307 986 l 328 1043 q 426 950 339 950 q 505 975 471 950 q 557 1046 539 1000 l 579 1038 q 522 952 563 985 q 426 919 481 919 z "},"ě":{"ha":642,"x_min":82,"x_max":601,"o":"m 597 576 q 472 381 597 450 q 114 297 346 313 q 113 254 113 283 q 161 76 113 136 q 294 15 210 15 q 394 34 350 15 q 490 92 439 53 l 507 71 q 403 7 453 28 q 294 -14 353 -14 q 138 55 193 -14 q 82 253 82 124 q 119 478 82 367 q 232 662 156 589 q 419 735 308 735 q 549 692 501 735 q 597 576 597 650 m 418 707 q 263 652 328 707 q 163 510 199 597 q 117 325 128 424 q 567 576 567 354 q 528 672 567 638 q 418 707 490 707 m 586 1040 l 601 1022 l 432 890 l 415 890 l 283 1022 l 301 1040 l 426 924 l 586 1040 z "},"ȩ":{"ha":642,"x_min":82,"x_max":597,"o":"m 597 576 q 472 381 597 450 q 114 297 346 313 q 113 254 113 283 q 161 76 113 136 q 294 15 210 15 q 394 34 350 15 q 490 92 439 53 l 507 71 q 403 7 453 28 q 294 -14 353 -14 l 293 -14 l 276 -103 q 355 -128 329 -107 q 381 -190 381 -149 q 347 -266 381 -237 q 261 -294 314 -294 q 176 -269 211 -294 l 190 -247 q 261 -267 219 -267 q 325 -247 301 -267 q 349 -192 349 -228 q 326 -142 349 -157 q 246 -126 303 -128 l 269 -12 q 131 64 181 -4 q 82 253 82 132 q 119 478 82 367 q 232 662 156 589 q 419 735 308 735 q 549 692 501 735 q 597 576 597 650 m 418 707 q 263 652 328 707 q 163 510 199 597 q 117 325 128 424 q 567 576 567 354 q 528 672 567 638 q 418 707 490 707 z "},"ê":{"ha":642,"x_min":82,"x_max":597,"o":"m 597 576 q 472 381 597 450 q 114 297 346 313 q 113 254 113 283 q 161 76 113 136 q 294 15 210 15 q 394 34 350 15 q 490 92 439 53 l 507 71 q 403 7 453 28 q 294 -14 353 -14 q 138 55 193 -14 q 82 253 82 124 q 119 478 82 367 q 232 662 156 589 q 419 735 308 735 q 549 692 501 735 q 597 576 597 650 m 418 707 q 263 652 328 707 q 163 510 199 597 q 117 325 128 424 q 567 576 567 354 q 528 672 567 638 q 418 707 490 707 m 283 908 l 268 926 l 438 1058 l 454 1058 l 586 926 l 568 908 l 443 1025 l 283 908 z "},"ế":{"ha":642,"x_min":82,"x_max":679,"o":"m 679 1090 l 526 935 l 511 950 l 656 1114 l 679 1090 m 424 924 l 263 814 l 249 832 l 417 957 l 433 957 l 565 832 l 549 814 l 424 924 m 419 735 q 549 692 501 735 q 597 576 597 650 q 472 381 597 450 q 114 297 346 313 q 113 254 113 283 q 161 76 113 136 q 294 15 210 15 q 394 34 350 15 q 490 92 439 53 l 507 71 q 403 7 453 28 q 294 -14 353 -14 q 138 55 193 -14 q 82 253 82 124 q 119 478 82 367 q 232 662 156 589 q 419 735 308 735 m 117 325 q 567 576 567 354 q 528 672 567 638 q 418 707 490 707 q 263 652 328 707 q 163 510 199 597 q 117 325 128 424 z "},"ệ":{"ha":642,"x_min":82,"x_max":597,"o":"m 597 576 q 472 381 597 450 q 114 297 346 313 q 113 254 113 283 q 161 76 113 136 q 294 15 210 15 q 394 34 350 15 q 490 92 439 53 l 507 71 q 403 7 453 28 q 294 -14 353 -14 q 138 55 193 -14 q 82 253 82 124 q 119 478 82 367 q 232 662 156 589 q 419 735 308 735 q 549 692 501 735 q 597 576 597 650 m 418 707 q 263 652 328 707 q 163 510 199 597 q 117 325 128 424 q 567 576 567 354 q 528 672 567 638 q 418 707 490 707 m 283 908 l 268 926 l 438 1058 l 454 1058 l 586 926 l 568 908 l 443 1025 l 283 908 m 271 -137 q 288 -144 281 -137 q 294 -161 294 -151 q 287 -182 294 -174 q 265 -190 279 -190 q 247 -184 254 -190 q 240 -167 240 -178 q 249 -147 240 -156 q 271 -137 257 -137 z "},"ề":{"ha":642,"x_min":82,"x_max":597,"o":"m 325 947 l 307 935 l 197 1094 l 226 1114 l 325 947 m 263 814 l 249 832 l 417 957 l 433 957 l 565 832 l 549 814 l 424 924 l 263 814 m 597 576 q 472 381 597 450 q 114 297 346 313 q 113 254 113 283 q 161 76 113 136 q 294 15 210 15 q 394 34 350 15 q 490 92 439 53 l 507 71 q 403 7 453 28 q 294 -14 353 -14 q 138 55 193 -14 q 82 253 82 124 q 119 478 82 367 q 232 662 156 589 q 419 735 308 735 q 549 692 501 735 q 597 576 597 650 m 418 707 q 263 652 328 707 q 163 510 199 597 q 117 325 128 424 q 567 576 567 354 q 528 672 567 638 q 418 707 490 707 z "},"ể":{"ha":642,"x_min":82,"x_max":688,"o":"m 597 576 q 472 381 597 450 q 114 297 346 313 q 113 254 113 283 q 161 76 113 136 q 294 15 210 15 q 394 34 350 15 q 490 92 439 53 l 507 71 q 403 7 453 28 q 294 -14 353 -14 q 138 55 193 -14 q 82 253 82 124 q 119 478 82 367 q 232 662 156 589 q 419 735 308 735 q 549 692 501 735 q 597 576 597 650 m 418 707 q 263 652 328 707 q 163 510 199 597 q 117 325 128 424 q 567 576 567 354 q 528 672 567 638 q 418 707 490 707 m 261 814 l 247 832 l 415 957 l 432 957 l 564 832 l 547 814 l 422 924 l 261 814 m 558 1019 q 656 1099 656 1025 q 599 1157 656 1157 q 563 1152 578 1157 q 526 1136 549 1147 l 515 1160 q 600 1185 556 1185 q 664 1162 640 1185 q 688 1099 688 1139 q 660 1031 688 1056 q 586 999 633 1006 l 576 922 l 547 922 l 558 1019 z "},"ễ":{"ha":642,"x_min":82,"x_max":608,"o":"m 367 1060 q 328 1049 344 1060 q 286 1010 311 1038 l 268 1024 q 367 1088 319 1088 q 401 1080 385 1088 q 439 1057 417 1072 q 476 1035 460 1043 q 508 1028 492 1028 q 547 1041 529 1028 q 589 1085 565 1054 l 608 1072 q 508 1000 561 1000 q 469 1008 488 1000 q 429 1032 451 1017 q 394 1053 407 1047 q 367 1060 382 1060 m 426 911 l 265 801 l 251 819 l 419 944 l 436 944 l 568 819 l 551 801 l 426 911 m 419 735 q 549 692 501 735 q 597 576 597 650 q 472 381 597 450 q 114 297 346 313 q 113 254 113 283 q 161 76 113 136 q 294 15 210 15 q 394 34 350 15 q 490 92 439 53 l 507 71 q 403 7 453 28 q 294 -14 353 -14 q 138 55 193 -14 q 82 253 82 124 q 119 478 82 367 q 232 662 156 589 q 419 735 308 735 m 117 325 q 567 576 567 354 q 528 672 567 638 q 418 707 490 707 q 263 652 328 707 q 163 510 199 597 q 117 325 128 424 z "},"ȅ":{"ha":642,"x_min":82,"x_max":597,"o":"m 597 576 q 472 381 597 450 q 114 297 346 313 q 113 254 113 283 q 161 76 113 136 q 294 15 210 15 q 394 34 350 15 q 490 92 439 53 l 507 71 q 403 7 453 28 q 294 -14 353 -14 q 138 55 193 -14 q 82 253 82 124 q 119 478 82 367 q 232 662 156 589 q 419 735 308 735 q 549 692 501 735 q 597 576 597 650 m 418 707 q 263 652 328 707 q 163 510 199 597 q 117 325 128 424 q 567 576 567 354 q 528 672 567 638 q 418 707 490 707 m 307 1099 l 371 917 l 346 906 l 272 1085 l 307 1099 m 446 1097 l 503 921 l 478 911 l 411 1082 l 446 1097 z "},"ë":{"ha":642,"x_min":82,"x_max":597,"o":"m 597 576 q 472 381 597 450 q 114 297 346 313 q 113 254 113 283 q 161 76 113 136 q 294 15 210 15 q 394 34 350 15 q 490 92 439 53 l 507 71 q 403 7 453 28 q 294 -14 353 -14 q 138 55 193 -14 q 82 253 82 124 q 119 478 82 367 q 232 662 156 589 q 419 735 308 735 q 549 692 501 735 q 597 576 597 650 m 418 707 q 263 652 328 707 q 163 510 199 597 q 117 325 128 424 q 567 576 567 354 q 528 672 567 638 q 418 707 490 707 m 326 935 q 309 941 315 935 q 303 958 303 947 q 310 979 303 971 q 332 988 318 988 q 349 981 342 988 q 356 964 356 975 q 347 943 356 951 q 326 935 339 935 m 536 935 q 518 941 525 935 q 511 958 511 947 q 519 979 511 971 q 540 988 526 988 q 558 981 551 988 q 564 964 564 975 q 556 943 564 951 q 536 935 549 935 z "},"ė":{"ha":642,"x_min":82,"x_max":597,"o":"m 597 576 q 472 381 597 450 q 114 297 346 313 q 113 254 113 283 q 161 76 113 136 q 294 15 210 15 q 394 34 350 15 q 490 92 439 53 l 507 71 q 403 7 453 28 q 294 -14 353 -14 q 138 55 193 -14 q 82 253 82 124 q 119 478 82 367 q 232 662 156 589 q 419 735 308 735 q 549 692 501 735 q 597 576 597 650 m 418 707 q 263 652 328 707 q 163 510 199 597 q 117 325 128 424 q 567 576 567 354 q 528 672 567 638 q 418 707 490 707 m 433 951 q 417 958 424 951 q 410 975 410 965 q 417 996 410 988 q 439 1004 425 1004 q 457 998 450 1004 q 464 981 464 992 q 456 960 464 969 q 433 951 447 951 z "},"ẹ":{"ha":642,"x_min":82,"x_max":597,"o":"m 597 576 q 472 381 597 450 q 114 297 346 313 q 113 254 113 283 q 161 76 113 136 q 294 15 210 15 q 394 34 350 15 q 490 92 439 53 l 507 71 q 403 7 453 28 q 294 -14 353 -14 q 138 55 193 -14 q 82 253 82 124 q 119 478 82 367 q 232 662 156 589 q 419 735 308 735 q 549 692 501 735 q 597 576 597 650 m 418 707 q 263 652 328 707 q 163 510 199 597 q 117 325 128 424 q 567 576 567 354 q 528 672 567 638 q 418 707 490 707 m 271 -137 q 288 -144 281 -137 q 294 -161 294 -151 q 287 -182 294 -174 q 265 -190 279 -190 q 247 -184 254 -190 q 240 -167 240 -178 q 249 -147 240 -156 q 271 -137 257 -137 z "},"è":{"ha":642,"x_min":82,"x_max":597,"o":"m 597 576 q 472 381 597 450 q 114 297 346 313 q 113 254 113 283 q 161 76 113 136 q 294 15 210 15 q 394 34 350 15 q 490 92 439 53 l 507 71 q 403 7 453 28 q 294 -14 353 -14 q 138 55 193 -14 q 82 253 82 124 q 119 478 82 367 q 232 662 156 589 q 419 735 308 735 q 549 692 501 735 q 597 576 597 650 m 418 707 q 263 652 328 707 q 163 510 199 597 q 117 325 128 424 q 567 576 567 354 q 528 672 567 638 q 418 707 490 707 m 358 1056 l 560 928 l 546 908 l 339 1025 l 358 1056 z "},"ẻ":{"ha":642,"x_min":82,"x_max":597,"o":"m 597 576 q 472 381 597 450 q 114 297 346 313 q 113 254 113 283 q 161 76 113 136 q 294 15 210 15 q 394 34 350 15 q 490 92 439 53 l 507 71 q 403 7 453 28 q 294 -14 353 -14 q 138 55 193 -14 q 82 253 82 124 q 119 478 82 367 q 232 662 156 589 q 419 735 308 735 q 549 692 501 735 q 597 576 597 650 m 418 707 q 263 652 328 707 q 163 510 199 597 q 117 325 128 424 q 567 576 567 354 q 528 672 567 638 q 418 707 490 707 m 414 961 q 511 1040 511 967 q 454 1099 511 1099 q 419 1094 433 1099 q 382 1078 404 1089 l 371 1101 q 456 1126 411 1126 q 519 1103 496 1126 q 543 1040 543 1081 q 516 972 543 997 q 442 940 489 947 l 432 864 l 403 864 l 414 961 z "},"ȇ":{"ha":642,"x_min":82,"x_max":597,"o":"m 597 576 q 472 381 597 450 q 114 297 346 313 q 113 254 113 283 q 161 76 113 136 q 294 15 210 15 q 394 34 350 15 q 490 92 439 53 l 507 71 q 403 7 453 28 q 294 -14 353 -14 q 138 55 193 -14 q 82 253 82 124 q 119 478 82 367 q 232 662 156 589 q 419 735 308 735 q 549 692 501 735 q 597 576 597 650 m 418 707 q 263 652 328 707 q 163 510 199 597 q 117 325 128 424 q 567 576 567 354 q 528 672 567 638 q 418 707 490 707 m 282 889 q 338 974 299 942 q 432 1007 378 1007 q 520 974 488 1007 q 556 886 553 940 l 532 883 q 432 978 521 978 q 353 953 386 978 q 303 882 321 928 l 282 889 z "},"ē":{"ha":642,"x_min":82,"x_max":597,"o":"m 597 576 q 472 381 597 450 q 114 297 346 313 q 113 254 113 283 q 161 76 113 136 q 294 15 210 15 q 394 34 350 15 q 490 92 439 53 l 507 71 q 403 7 453 28 q 294 -14 353 -14 q 138 55 193 -14 q 82 253 82 124 q 119 478 82 367 q 232 662 156 589 q 419 735 308 735 q 549 692 501 735 q 597 576 597 650 m 418 707 q 263 652 328 707 q 163 510 199 597 q 117 325 128 424 q 567 576 567 354 q 528 672 567 638 q 418 707 490 707 m 561 951 l 300 951 l 304 981 l 565 981 l 561 951 z "},"ę":{"ha":642,"x_min":82,"x_max":597,"o":"m 597 576 q 472 381 597 450 q 114 297 346 313 q 113 254 113 283 q 161 76 113 136 q 294 15 210 15 q 394 34 350 15 q 490 92 439 53 l 507 71 q 401 7 446 24 q 285 -69 324 -32 q 247 -161 247 -106 q 270 -222 247 -200 q 335 -243 293 -243 q 401 -233 364 -243 l 399 -264 q 331 -274 361 -274 q 244 -243 274 -274 q 214 -162 214 -212 q 322 -12 214 -72 q 294 -14 314 -14 q 138 55 193 -14 q 82 253 82 124 q 119 478 82 367 q 232 662 156 589 q 419 735 308 735 q 549 692 501 735 q 597 576 597 650 m 418 707 q 263 652 328 707 q 163 510 199 597 q 117 325 128 424 q 567 576 567 354 q 528 672 567 638 q 418 707 490 707 z "},"ɛ":{"ha":575,"x_min":65,"x_max":554,"o":"m 264 -14 q 120 37 175 -14 q 65 175 65 88 q 117 317 65 258 q 269 381 169 375 q 143 528 143 407 q 169 626 143 578 q 247 704 194 674 q 372 735 299 735 q 554 671 478 735 l 535 650 q 463 692 501 678 q 372 707 424 707 q 261 681 306 707 q 196 614 217 654 q 175 529 175 574 q 214 430 175 467 q 333 393 253 393 l 403 393 l 393 365 l 328 365 q 149 310 201 365 q 97 174 97 254 q 142 58 97 100 q 264 15 188 15 q 376 35 329 15 q 469 93 424 54 l 486 71 q 388 8 440 31 q 264 -14 335 -14 z "},"ʚ":{"ha":688,"x_min":65,"x_max":606,"o":"m 263 -14 q 119 35 174 -14 q 65 169 65 85 q 118 315 65 254 q 272 381 171 375 q 150 525 150 406 q 176 624 150 576 q 253 703 201 672 q 379 735 306 735 q 547 664 488 735 q 606 463 606 593 q 565 221 606 329 q 448 49 525 113 q 263 -14 371 -14 m 264 15 q 433 75 364 15 q 538 237 503 135 q 574 463 574 339 q 524 644 574 582 q 379 707 474 707 q 231 652 281 707 q 181 525 181 597 q 219 429 181 465 q 333 393 257 393 l 383 393 l 375 365 l 326 365 q 148 308 200 365 q 96 169 96 251 q 140 56 96 96 q 264 15 185 15 z "},"ɜ":{"ha":585,"x_min":8,"x_max":504,"o":"m 329 735 q 458 691 411 735 q 504 574 504 647 q 457 443 504 494 q 326 382 410 392 q 440 335 397 375 q 482 224 482 296 q 455 110 482 164 q 370 21 428 56 q 225 -14 313 -14 q 100 13 151 -14 q 8 83 49 39 l 29 101 q 112 38 65 61 q 226 15 158 15 q 397 77 342 15 q 451 224 451 139 q 401 331 451 294 q 261 368 351 368 l 193 368 l 201 394 l 263 394 q 419 444 365 394 q 472 574 472 494 q 435 671 472 635 q 329 707 399 707 q 230 691 274 707 q 129 640 186 675 l 115 663 q 221 717 171 699 q 329 735 271 735 z "},"ɞ":{"ha":675,"x_min":82,"x_max":594,"o":"m 313 -14 q 141 56 200 -14 q 82 254 82 126 q 122 494 82 385 q 238 669 161 604 q 421 735 315 735 q 548 690 501 735 q 594 571 594 646 q 549 442 594 492 q 419 382 504 393 q 531 335 490 374 q 572 224 572 296 q 545 110 572 164 q 460 21 518 56 q 313 -14 401 -14 m 314 15 q 485 76 431 15 q 540 222 540 138 q 494 331 540 294 q 356 368 447 368 l 308 368 l 315 394 l 357 394 q 510 443 457 394 q 563 569 563 492 q 526 670 563 633 q 419 707 489 707 q 252 644 321 707 q 149 478 183 582 q 114 254 114 375 q 165 77 114 139 q 314 15 215 15 z "},"ɝ":{"ha":751,"x_min":8,"x_max":818,"o":"m 818 504 q 704 464 764 464 q 624 494 654 464 q 594 581 594 524 q 597 617 594 592 l 608 692 l 493 638 q 504 574 504 607 q 457 443 504 494 q 326 382 410 392 q 440 335 397 375 q 482 224 482 296 q 455 110 482 164 q 370 21 428 56 q 225 -14 313 -14 q 100 13 151 -14 q 8 83 49 39 l 29 101 q 112 38 65 61 q 226 15 158 15 q 397 77 342 15 q 451 224 451 139 q 401 331 451 294 q 261 368 351 368 l 193 368 l 201 394 l 263 394 q 419 444 365 394 q 472 574 472 494 q 465 624 472 599 l 461 622 l 463 631 q 415 687 449 667 q 329 707 381 707 q 230 691 274 707 q 129 640 186 675 l 115 663 q 221 717 171 699 q 329 735 271 735 q 422 715 382 735 q 482 661 461 696 l 613 721 l 643 721 l 628 614 q 625 581 625 589 q 647 512 625 533 q 704 490 668 490 q 756 499 735 490 q 804 525 778 508 l 818 504 z "},"ɘ":{"ha":639,"x_min":39,"x_max":554,"o":"m 322 735 q 497 656 439 735 q 554 453 554 576 q 513 219 554 326 q 398 49 472 113 q 228 -14 324 -14 q 123 7 167 -14 q 39 71 79 28 l 60 92 q 134 34 96 53 q 228 15 172 15 q 403 93 331 15 q 506 297 476 171 q 194 355 292 304 q 97 514 97 406 q 126 627 97 576 q 206 706 154 678 q 322 735 257 735 m 129 514 q 167 408 129 449 q 289 349 206 368 q 511 325 372 329 q 522 451 522 389 q 474 635 522 563 q 322 707 426 707 q 181 653 233 707 q 129 514 129 599 z "},"ʃ":{"ha":324,"x_min":-143,"x_max":469,"o":"m 361 1024 q 469 981 424 1024 l 451 961 q 412 987 432 978 q 361 996 392 996 q 288 967 318 996 q 250 876 258 938 l 228 721 l 125 0 l 107 -129 q 58 -237 97 -200 q -37 -274 19 -274 q -143 -232 -99 -274 l -126 -211 q -87 -237 -107 -229 q -37 -246 -68 -246 q 38 -217 7 -246 q 76 -126 68 -189 l 94 0 l 197 721 l 219 879 q 267 987 229 950 q 361 1024 304 1024 z "},"ʆ":{"ha":344,"x_min":-167,"x_max":492,"o":"m 383 1024 q 492 981 446 1024 l 474 961 q 434 987 454 978 q 383 996 414 996 q 310 967 340 996 q 272 876 281 938 l 250 721 l 143 -42 q 253 -87 196 -57 l 240 -111 q 139 -68 189 -83 l 139 -69 q 79 -219 125 -165 q -46 -274 33 -274 q -134 -242 -101 -274 q -167 -161 -167 -211 q -121 -60 -167 -96 q -4 -24 -75 -24 q 111 -36 54 -24 l 219 721 l 242 879 q 289 987 251 950 q 383 1024 326 1024 m -46 -246 q 58 -201 22 -246 q 107 -62 93 -156 q 53 -53 75 -56 q -4 -50 31 -50 q -101 -79 -65 -50 q -136 -161 -136 -108 q -112 -223 -136 -200 q -46 -246 -89 -246 z "},"ƪ":{"ha":335,"x_min":22,"x_max":313,"o":"m 313 -233 q 262 -262 292 -251 q 200 -274 232 -274 q 118 -244 147 -274 q 89 -158 89 -214 q 92 -126 89 -149 l 110 0 l 108 0 l 214 747 q 128 724 171 724 q 51 755 81 724 q 22 840 22 786 q 65 971 22 918 q 168 1024 107 1024 q 240 994 214 1024 q 265 914 265 965 q 264 886 265 896 l 139 0 l 140 0 l 122 -128 q 119 -158 119 -150 q 200 -246 119 -246 q 251 -237 229 -246 q 297 -212 274 -229 l 313 -233 m 131 751 q 218 776 174 751 l 233 886 q 235 913 235 896 q 218 974 235 951 q 167 996 201 996 q 85 951 117 996 q 54 840 54 907 q 74 774 54 796 q 131 751 94 751 z "},"ʅ":{"ha":469,"x_min":61,"x_max":408,"o":"m 408 26 q 358 -3 388 8 q 296 -14 328 -14 q 214 16 243 -14 q 185 101 185 46 q 188 133 185 111 l 206 260 l 233 461 l 251 589 q 254 619 254 611 q 174 707 254 707 q 122 699 144 707 q 76 674 100 690 l 61 694 q 112 724 82 713 q 174 735 142 735 q 256 705 226 735 q 285 619 285 675 q 282 588 285 610 l 264 461 l 236 260 l 218 132 q 215 101 215 110 q 296 14 215 14 q 347 22 325 14 q 393 47 369 31 l 408 26 z "},"ɇ":{"ha":642,"x_min":82,"x_max":597,"o":"m 597 576 q 333 329 597 394 l 218 31 q 294 15 253 15 q 394 34 350 15 q 490 92 439 53 l 507 71 q 403 7 453 28 q 294 -14 353 -14 q 207 3 247 -14 l 171 -92 l 149 -85 l 186 13 q 109 103 136 42 q 82 253 82 164 q 119 478 82 367 q 232 662 156 589 q 419 735 308 735 q 467 731 444 735 l 499 814 l 519 808 l 488 725 q 568 671 539 710 q 597 576 597 632 m 418 707 q 263 652 328 707 q 163 510 199 597 q 117 325 126 422 q 319 353 240 333 l 456 704 q 418 707 433 707 m 567 576 q 544 655 567 624 q 478 699 521 686 l 346 360 q 567 576 567 421 m 307 322 q 114 297 222 304 q 113 254 113 283 q 197 42 113 97 l 307 322 z "},"ẽ":{"ha":642,"x_min":82,"x_max":608,"o":"m 597 576 q 472 381 597 450 q 114 297 346 313 q 113 254 113 283 q 161 76 113 136 q 294 15 210 15 q 394 34 350 15 q 490 92 439 53 l 507 71 q 403 7 453 28 q 294 -14 353 -14 q 138 55 193 -14 q 82 253 82 124 q 119 478 82 367 q 232 662 156 589 q 419 735 308 735 q 549 692 501 735 q 597 576 597 650 m 418 707 q 263 652 328 707 q 163 510 199 597 q 117 325 128 424 q 567 576 567 354 q 528 672 567 638 q 418 707 490 707 m 508 942 q 469 950 488 942 q 429 974 451 958 q 394 995 407 989 q 367 1001 382 1001 q 328 990 344 1001 q 286 951 311 979 l 268 965 q 367 1029 319 1029 q 401 1022 385 1029 q 439 999 417 1014 q 476 977 460 985 q 508 969 492 969 q 547 983 529 969 q 589 1026 565 996 l 608 1014 q 508 942 561 942 z "},"ǝ":{"ha":642,"x_min":44,"x_max":560,"o":"m 347 735 q 504 666 449 735 q 560 468 560 597 q 523 243 560 354 q 410 59 486 132 q 222 -14 333 -14 q 92 28 140 -14 q 44 144 44 71 q 170 340 44 271 q 528 424 296 408 q 529 467 529 438 q 481 645 529 585 q 347 706 432 706 q 247 687 292 706 q 151 629 203 668 l 135 650 q 239 714 189 693 q 347 735 289 735 m 224 14 q 378 69 314 14 q 478 210 443 124 q 525 396 514 297 q 75 144 75 367 q 113 49 75 83 q 224 14 151 14 z "}}}
